<?xml version="1.0" encoding="utf-8"?>
<!-- Generator: Adobe Illustrator 19.1.0, SVG Export Plug-In . SVG Version: 6.00 Build 0)  -->
<svg version="1.1" id="Layer_1" xmlns="http://www.w3.org/2000/svg" xmlns:xlink="http://www.w3.org/1999/xlink" x="0px" y="0px"
	 viewBox="0 0 1280 905" style="enable-background:new 0 0 1280 905;" xml:space="preserve">
<style type="text/css">
	.st0{fill:#00A6E0;}
	.st1{fill:#488FBB;}
	.st2{fill:#4CBDE9;}
	.st3{fill:#0093CD;}
	.st4{fill:#0094CE;}
	.st5{fill:#4ABCE8;}
	.st6{fill:#49BCE8;}
	.st7{fill:#478FBC;}
</style>
<g>
	<g>
		<path class="st0" d="M278.5,923.6c-335.8,0-671.6,0-1007.4,0.2c-6.8,0-7.5-2-7.5-8.3c0.2-498.8,0.2-997.5,0-1496.3
			c0-6.8,1.3-8.1,7.7-8.1c671.4,0.2,1342.7,0.2,2014.1,0c7.2,0,7.9,2.2,7.9,8.8c-0.1,498.8-0.2,997.5,0,1496.3
			c0,6.3-1.4,7.7-7.3,7.7C950.2,923.6,614.4,923.6,278.5,923.6z"/>
		<path class="st1" d="M1120.3,365.7c1.8,4.8-2.5,6.3-4.7,8.5c-35.6,35.6-71.4,71.1-107.1,106.6c-3.2,3.2-6.4,6.3-8.9,10.2
			c13.3-4.7,24.8-12.3,36.4-19.7c19.2-12.2,38.2-24.7,56.5-38.4c4.1-3,6.8-3,10.9,0.7c19.6,17.8,38.8,36.1,57.7,54.7
			c3.6,3.5,8.2,6.5,8,12.8c-4.4,2.9-9.2,3.9-14.4,3.8c-42.5-1-84.9,2-127.5,1.8c-139.4-0.4-278.9-0.1-418.3-0.1
			c-3.4,0-6.9-0.1-10.3,0.1c-9,0.4-11.5,2.5-13.6,11.8c-8.8,39.5-16.6,79.3-25.2,118.9c-4.5,20.6-8.9,41.2-12.9,62
			c-1.2,6.1-3,11.8-7,16.6c-21,6.4-42.4,10.7-63.7,15.2c-2.5,0.5-4.7-0.1-6.4-2.1c-14.8-16.9-31.6-31.6-45.8-49.1
			c-2.1-3-2.8-6.1-2-10.1c9.2-45.3,18.8-90.6,28.5-135.8c1.2-5.4,2-10.9,3-16.4c1.6-8.5-0.1-10.7-8.2-10.9
			c-11.3-0.3-22.7-0.1-34-0.1c-12.1,0-24.2,0.2-36.4-0.2c-3.5-0.1-7.6,0.6-9.6-3.9c10.7-13.2,23.4-24.3,36.4-34.5
			c11.3-8.8,12.4-21.6,16.3-34.1c-5.8,4.2-11.6,8.2-17.2,12.6c-21.7,16.7-43.1,33.9-63.3,52.7c-1.6,1.5-3.4,2.5-5.2,3.8
			c-5.3,2.7-10.8,3.7-16.7,3.6c-11.2-0.1-22.5,0-33.7-0.1c-5.1,0-9.9-1-14.2-3.8c-9.1-8.5-16.5-18.6-24.8-27.9
			c-2.2-2.5-2.9-5.1-0.6-8.2c25.6-34.3,51.8-68.1,82-98.1c4.8-3.8,10.4-3.6,15.9-3.6c43.6,0,87.2,0,130.8,0c13.9,0,15.1-0.8,18-15.3
			c10.9-55.6,22.6-111,33.5-166.6c4.6-23.4,9.4-46.8,14.1-70.2c0.9-4.5,2.7-8.4,6.4-11.1c12.1-8.5,25.7-13.6,38.9-19.6
			c28.7-13.1,58.3-23.7,88.3-33.1c2-0.6,4.1-0.9,6.2-1.3c4.4,2.8,3.4,7.1,2.6,11.2c-7.9,40.6-16.5,81.1-24.7,121.6
			c-11.5,56.6-23.1,113.2-34.4,169.8c-2.4,12.1-0.4,14.6,11.2,14.7c25.9,0.1,51.8,0.6,77.6-0.1c132-3.5,264.1-0.5,396.1-1.6
			C1110.1,363,1115.3,363.7,1120.3,365.7z"/>
		<path class="st2" d="M540,715.9c2.8-21,8-41.4,12.3-62c9.6-46.5,19.5-92.9,29.3-139.4c2.5-11.8,2.4-11.9,13.8-11.9
			c140.3-0.1,280.6-0.1,420.9-0.4c51-0.1,101.9-0.8,152.9-1.2c-7.3,14.9-17.2,28-26.1,41.8c-3.3,5.2-7.7,5-12.5,5
			c-62.6,0-125.2,0-187.8,0c-24.6,0-49.1,0-73.7,0c-3.4,0-6.9-0.7-10.1,1.4c19.7,5.6,35.6,19,52.8,29.5
			c58,35.2,115.6,71.4,173.3,107.2c4.9,3,12,4.2,12.8,12.2c-5.1,8.7-14.7,10.8-22,16.2c-5.5,0.3-10.3-2-14.9-4.9
			c-33.6-21.9-68-42.4-102-63.6c-3.2-2-6.5-3.9-6.9-8.4c0.7-2.2,1.3-4.4,2.3-7.6c-3.4,1.8-5.8,3.1-8.3,4.3
			c-5.2,0.2-9.5-2.1-13.9-4.9c-26.9-17-54.1-33.7-81.2-50.4c-11.8-7.3-23.4-15.1-35.4-22.2c-3.3-2-6.6-3.3-10.5-3.4
			c-23-0.2-45.9,0-70.4-0.1c10.9,8.3,21.6,14.1,31.9,20.5c42.8,26.5,85.4,53.2,128.3,79.6c3.5,2.2,7.1,4.3,5.5,9.6
			c-22.1,14.4-45.3,26.5-69,37.6c-1.9,0.9-4.1,0.8-6.1,1.2c-4.9,1.4-8.8-1.2-12.6-3.6c-49-30.7-98-61.2-147-91.9
			c-14.3-9-28.8-17.4-42.9-26.7c-6.6-4.4-9.1-3.2-10.8,5.2c-6.8,34-13.3,68-20.7,101.9c-0.9,4.1-0.5,9.1-5.5,11.2
			c-1.6,4.2-4.5,6.1-8.7,7.3C564.7,708.4,552.3,712.3,540,715.9z"/>
		<path class="st2" d="M1120.3,365.7c-3.8,1.9-7.8,1.3-11.7,1.3c-124.2,0.1-248.4-0.2-372.6,0.7c-37.5,0.3-75,0.8-112.5,1.1
			c-11.2,0.1-11.5-0.1-9.1-11.8c10.6-52.8,21.4-105.6,32.1-158.4c9.7-47.6,19.4-95.2,29.1-142.8c0.5-2.7,0.5-5.5,0.8-8.3
			c11.1-4.5,22.5-7.8,34.1-9.9c9-1.6,7.5,6.9,9,12.2c2.1,6.6,1.2,13.1-0.2,19.7c-15.1,71.7-29.9,143.5-44.7,215.3
			c-0.3,1.4-0.6,2.7-0.9,4.1c-1.1,5.4,1.1,5.8,5.2,4c10.7-4.9,21.3-9.9,31.7-15.1c56-28.1,112.4-55.3,168.6-83.1
			c18.2-9,36.2-18.3,54.3-27.4c5.3-2.7,10.7-6.6,17.2-3.8c5.3,4.6,9.4,10.3,13.1,16.3c1.2,4.4-1.6,6-4.6,7.4
			c-51.3,24.3-101.9,50.1-153,74.9c-30.7,14.9-61.2,30.2-91.8,45.5c-7.6,3.8-15.5,7.1-22.5,10.9c18.8-0.5,38.2-0.6,57.6,0
			c11.8,0.3,22.3-2.5,32.7-7.9c46.7-24.1,94.2-46.6,141.2-70c23.4-11.6,47.2-22.5,70.2-34.8c4-2.2,8.1-4.3,12.8-2
			c11.1,15.2,22.3,30.3,33.4,45.5c1.3,1.8,2.6,3.7,1.3,6.1c-0.2,5-4.3,6.1-7.4,7.7c-19.8,9.8-39.5,20.1-59.5,29.5
			c-17.8,8.4-35.3,17.6-52.4,25.8c46.1-0.1,93-0.1,139.9,0.1c3.9,0,8.8-1.4,11.1,4.1c12.8-0.6,19.3,9,26.3,18
			C1105.8,348.9,1113.2,357.2,1120.3,365.7z"/>
		<path class="st3" d="M1097.8,698.2c-30.1-18.5-60.1-36.9-90.1-55.5c-46.6-28.9-93.2-57.8-139.8-86.7c-3.2-2-6.6-3.5-9-6.7
			c89.4,0,178.8,0,268.3,0.1c2.8,0,6.8-1.6,8.1,1.3c1.5,3.3-2.3,5.7-4.2,8.2c-10.7,14.8-21.4,29.6-32.1,44.4c-0.9,1.3-1.7,2.8-1,5.5
			c11.6-6,21.5-14.1,31.6-21.7c13.7-10.3,26.4-22,38.8-34.1c1.8-1.7,3.6-3.2,6-3.7c1.5-1.6,3.4-3,5.5-3c16.5-0.6,33.1-3.7,49.2,2.9
			c11.9,9.2,23.6,18.7,35.7,27.7c4,3,4.1,5.7,1.6,9.7c-21.5,34.7-40,71.4-61.6,106c-8,12.8-14.8,26.3-22.2,39.5
			c-4.9,8.8-5.7,9.2-12.9,3c-9.6-8.2-18.8-17-28.3-25.4c-4.2-3.7-4.7-6.9-1.5-12c7.9-12.5,14.8-25.7,23.4-37.7
			c1.7-2.4,3.4-4.9,3.4-9.9c-9.9,7.5-18.9,14.7-28.3,21.4C1125.2,680.7,1113.6,692.9,1097.8,698.2z"/>
		<path class="st3" d="M976.1,861.8c34.8,0,69.6,0.2,104.4-0.1c17.9-0.1,35.7,2.8,53.7,1.8c1.8-0.1,4-0.6,5,1.5
			c1.3,2.6-1.2,3.9-2.5,5.5c-2.7,3-5.3,6.1-9.8,6.3c-34.9,1.6-69.9,3.3-104.8,5c-5.6-3.7-11.8-1.9-17.6-1.5
			c-20.5,1.2-41.1,0-61.5,2.4c-2.9,0.3-5.6,0.9-8,2.5c-10,0-20.1,0-30.1,0c-7.2-4.8-15.5-2.9-23-3c-24-0.2-48-1.2-72-1.2
			c-4.9,0-9.8,0-14.3,2.5c-6.4,0-12.7,0-19.1,0c-2.2-1.6-4.7-2.7-7.3-2.5c-14.5,1.3-29.1,0.3-43.7,0.9c-1.6,0.1-3.1,0.6-4.4,1.6
			c-15.4,0.5-30.6-0.3-45.5-4.9c-3-0.9-6.5-1.5-8.8-3.5c-9.5-8.1-19.2-5.9-29.7-2.6c-21.4,6.7-43.6,7.6-65.7,9.2
			c-73.5,5.4-147.1,3.1-220.7,3.5c-16,0.1-20.6-3.5-26.1-18.7c-2-5.5-0.5-7.8,5-8c11.6-0.4,23.2-1.2,34.7-1.6
			c4.6-0.2,8.6-1.2,12.6-3.9c8-5.3,17.4-3.8,26.1-4.2c36.6-1.8,73.2-2.3,109.8-3.8c15-0.6,29.9-3.3,44.9-3.2
			c12.6,1.8,24.6-1.4,36.4-5.1c7.3-2.3,14.9-3.6,21.8-7.1c5.1-2.5,7.4-5.8,6.7-12.3c-0.8-7.3,1.9-14.7,3.1-21.9
			c3.7-22,11.2-42.5,20.5-62.6c4.9-10.5,11-20.1,16.5-30c4.9-9,6.5-8.7,14.5-2.9c12.4,9,19.7,22.8,29.3,34.6c0.7,0.8,1,2.1,1.8,2.8
			c10.3,8.7,6.5,18.7,2.8,29c-4.9,13.7-11.4,26.8-13.8,41.4c-0.2,1.1-0.6,2.1-0.8,3.2c-2.9,27.7,2.6,28.8,24.9,32
			c19.8,2.9,39.8,3.5,59.6,5c11.1,0.8,22.4,2.9,33.7,1.7c6.4,1.3,12.7-1.8,19.1-0.7c10,1.4,20,4.9,29.9-0.1c2.7,0,5.3,0,8,0
			c2.5,1.7,5.2,2.5,8.1,2.6c24.9,1.1,49.7,1.9,74.6,1.5c3.7-0.1,7.5,0.3,11.3,0.5C971.2,853.4,974.9,855.6,976.1,861.8z"/>
		<path class="st3" d="M422.8,279.8c-2.1-2.6-4.8-3.9-8-4.5c-4.9,0.6-9.1-1.1-13.4-3.8c-28-17.7-56.4-35-84.5-52.6
			c-4-2.5-9.8-3.8-9.9-10.6c16.7-26.5,35.9-50.9,57.6-72.9c18.3-18.5,39-33.8,61-47.3c21-12.9,43-23.5,65.4-33.4
			c2.9-1.3,6-2.3,8.9-3.4c4.8-1.9,7.4-0.3,6.5,5.2c-1.4,9.6-3.1,19.2-4.7,28.7c-0.6,3.7-3.4,5.4-6.2,7.1
			c-36.3,21.6-67.9,49.7-97.1,80.9c-10.9,11.6-21.2,24-29.7,37.8c-1.1,1.8-3.3,4-1.5,5.9c2.4,2.5,4.2-0.7,5.8-2.2
			c36.1-33.3,75.6-61.3,117.6-85.6c3.2-1.9,6.4-3.9,9.6-5.9c4.9,3.4,2.4,8,1.6,12.1c-4.8,23.4-10.3,46.6-15.3,69.9
			c-5.7,26.6-11,53.3-17.1,79.7c-1.1,4.6-2.3,9.1-3.7,13.6c-1.7,5.5-5.7,7.7-10.5,5.3c-10.6-5.1-20.4-11.7-30.1-18.3
			C423.1,284.3,422.6,282.1,422.8,279.8z"/>
		<path class="st3" d="M950.7,163.3c-39.1,19.4-78.2,38.9-117.3,58.2c-52.8,26.1-105.7,52-158.6,77.9c-2.1,1-4.4,3.7-6.5,2.2
			c-2.7-2-0.3-5.2,0.2-7.6c16.4-79.6,32.8-159.1,49.3-238.7c0.4-1.9,1.1-3.7,1.6-5.6C729,62.3,733,78,739.8,92
			c5.1,10.4,8.7,21.5,13.3,32.1c2.2,5.1,1.3,8-3.1,10.9c-10,6.7-19.8,13.8-29.7,20.7c-4.8,3.4-8.8,7.7-13,13c4.4,1,7.1-0.8,9.9-2.1
			c29.1-13.3,58.2-26.4,87-40.2c6.7-3.2,9.4-1.1,12.3,4.7c10.2,20.1,20.8,40,30.7,60.3c2.8,5.7,5.4,6.2,10.5,3.4
			c23.2-12.7,46.6-25,69.9-37.5C940.9,150.3,940.9,150.4,950.7,163.3z"/>
		<path class="st2" d="M422.8,279.8c10.7,6.6,21.3,13.3,32,19.9c3.6,2.2,6.5,3.5,7.9-2.9c12.4-57.9,25-115.7,37.6-173.6
			c13.8-8.3,27.4-17,42.7-21.7c-15.3,76.1-30.6,152.2-45.9,228.3c-2.1,10.3-4.4,20.6-6.3,30.9c-1,5.5-3.4,8-9,8
			c-52.5-0.2-105-0.2-157.5-0.3c8-13,20.1-21.9,30.6-32.2c18.4-17.9,37.3-35.1,57.5-50.8C415.6,283,418.5,280,422.8,279.8z"/>
		<path class="st3" d="M585.8,697.8c5-25.9,10-51.7,15.1-77.6c2.8-14.2,5.6-28.3,8.6-42.4c1.9-9.1,2.6-9.6,10.2-4.8
			c37.8,23.5,75.5,47,113.1,70.6c30.9,19.3,61.6,38.8,92.5,58.2c-8.5,6.2-18.4,9.6-27.7,13.8c-15.5,6.9-31.6,12.3-47.4,18.5
			c-8,3.2-13.9,2.3-19.6-6c-14.7-21-30.7-40.9-45.8-61.6c-3.8-5.1-6.8-5.1-12-2.3c-25.6,13.8-52.3,24.9-79.4,35.1
			C590.9,700.3,587.6,702.1,585.8,697.8z"/>
		<path class="st2" d="M365.3,502.5c28.2,0.1,56.5,0.1,84.7,0.2c11,0,10.9,0,8.6,11c-11.4,54-22.7,108-34,162
			c-0.3,1.4-0.4,2.8-0.5,4.1c-12-7.8-12-7.8-24.1,1.2c-4.9,3.7-9.9,7.3-14.9,11c-2,1.4-4,3.5-5.5-0.5c-4-2.8-2.8-6.8-2-10.6
			c6.1-28.5,12.6-56.9,18.6-85.4c1.2-5.6,5.3-13,1.7-16.5c-4.4-4.2-9.9,2.6-14.6,4.9c-31.1,14.7-61.9,29.9-92.6,45.4
			c-7.4,3.7-15.1,6.7-22.3,10.8c-3,1.7-6,2-9.1,0.7c-4.7-1.3-7.2-4.1-3.7-8.9c5.2-7.2,9.8-15,16.4-21.1
			c9.6-10.4,22.3-15.7,34.5-21.3c24.6-11.5,48.3-24.9,74.3-36.2c-17-0.2-33.1,0.1-49.1-0.2c-3.7-0.1-8.2,1.2-10.2-4.1
			c3.1-7.3,9.2-11.9,14.4-17.2C345.4,521.8,353.7,510.3,365.3,502.5z"/>
		<path class="st1" d="M1006.3,203.5c-65,32-130,64.1-195,96.2c-12.4,6.1-24.7,12.6-37.1,18.8c-3.1,1.5-6.4,3.3-9.7,3.4
			c-27.9,0.3-55.9,0.2-85.7,0.2c8.1-6.5,15.9-9.6,23.3-13.3c46.6-23.1,93.2-46,139.9-68.8c39-19.1,78.1-38.1,117.1-57.2
			c1.7-0.8,3.1-2,4.7-3.1c1-0.4,2-0.7,3-1.1c17-7,17-7,27.9,8.2C998.6,192.2,1002.4,197.9,1006.3,203.5z"/>
		<path class="st3" d="M259.2,640.9c21.6-12.4,44.3-22.2,66.4-33.5c23.6-11.9,47.3-23.4,71-35.1c2.3-1.1,4.9-3.7,7.2-1.8
			c2.5,2.1,0.3,5.3-0.3,7.8c-7.9,37.7-16,75.5-24.1,113.2c-2.4,7.1-8.5,10.4-13.7,14.5c-7.3,5.8-15.2,10.9-22.7,16.6
			c-3.2,2.4-5.7,3.5-8.9,0.1C308.9,695.8,283,669.4,259.2,640.9z"/>
		<path class="st1" d="M900.4,663c-13.9-11.1-29.4-19.6-44.3-28.9c-42.5-26.5-85-52.9-127.5-79.3c-1.6-1-2.9-2.2-4.4-3.3
			c1.4-3.2,3.8-2.1,5.7-2.1c25.1-0.1,50.2,0,75.3-0.1c3.8,0,7.3,0.7,10.6,2.8c42,26.2,84.1,52.4,126.1,78.6c1.6,1,2.9,2.4,4.3,3.6
			C931.5,645,916.1,654.3,900.4,663z"/>
		<path class="st2" d="M307,208.2c35.9,22.4,71.9,44.7,107.8,67.1c-22.2,14.6-44.4,29.2-66.6,43.8c-7.3,1.8-12.7-3.1-18.2-6.5
			c-17.1-10.8-34.3-21.5-51.7-31.9c-3.4-2-6.2-4.2-6.3-8.7C281.1,249.1,292.8,227.8,307,208.2z"/>
		<path class="st1" d="M952,637.5c23.5,14.3,47,28.5,70.4,43c17.9,11.1,36.2,21.6,53.4,33.9c-15.4,9.7-30.9,19.2-47.3,27.1
			c-6.9,1.2-12.1-3.1-17.4-6.5c-23.9-15.1-47.9-29.9-72-44.5c-3.6-2.1-5.4-5.1-6-9.1C936.9,665.6,943.4,651,952,637.5z"/>
		<path class="st3" d="M1072.6,322.2c-54.6,0-109.2,0-163.9,0c0.3-3.5,2.9-3.7,4.6-4.6c41.6-20.6,83.2-41,124.8-61.5
			c0.9-0.5,2-0.7,3-1.1c9.2,5.6,12.2,11.4,10.4,21.5c-1,5.7,1.1,9.5,4.5,13.4c6.6,7.5,13.2,15,19.7,22.6c2,2.4,3.6,5.2,5.4,7.8
			C1077.8,322.8,1075.1,321.7,1072.6,322.2z"/>
		<path class="st2" d="M933.2,681.4c21.9,13.7,43.8,27.4,65.7,41.1c9.9,6.2,19.8,12.6,29.6,19c-14.5,9.7-30.4,16.4-45.9,24
			c-2.9,1.4-4.9-0.3-7.2-2c-15.7-11.7-31.3-23.5-47.1-34.9c-5-3.6-6.9-7.4-4.9-13.9C927,703.7,928,691.9,933.2,681.4z"/>
		<path class="st2" d="M344.7,322.3c-19.9,15.5-39.8,31-59.7,46.5c-12.2,5.4-24.3,6.3-36.5,0c-2.8-2.6-5.5-5.2-8.3-7.7
			c-1.8-1.6-2.6-3.4-1.7-5.9c4.8-12.9,8.1-26.5,14.7-38.6c1.2-0.5,2.4-1.4,3.7-1.1c25,5,50.2,1.1,75.3,2.5
			C336.5,318.3,341.7,316.7,344.7,322.3z"/>
		<path class="st4" d="M814.3,851.8c-19.4,0.1-38.7-3.2-58-3.9c-12.1-0.4-24-2.5-36-2.7c-6.5-0.1-12.6-1.8-18.6-3.8
			c-7.8-2.6-9.2-10.9-9.1-17.8c0.2-12.8,2.4-25.5,8.2-36.9c5.8-11.4,7.7-24.1,11.4-36.3c0.5-1.7-0.2-3.3-1.1-4.7
			c-8.7-12.9-17.8-25.5-27.9-37.3c-1.2-1.4-3.1-2.9-4.6-2.8c-5.1,0.3-7.1-2.4-8.5-7.8c-6.2,11.6-17.3,18.8-19.4,33.7
			c-1,6.9-6.8,14.3-10.4,21.4c-7.7,15.2-11.8,31.5-12.9,48.4c-0.5,7.5-5.6,14-3.2,22.3c0.8,2.6-2.9,5.6-5.8,7.3
			c-2.1,1.2-4.3,2.1-5.2,4.8c-1.4,4.1-3.1,5.9-6.3,1.1c-1.7-2.6-4.6-0.6-6.5,0.3c-10.3,4.9-21.5,5.4-32.3,7.5
			c-3.7,0.7-8,2.1-10.6-2.8c18.4-3.5,36.9-6.3,54.5-13.4c5.6-2.3,8.8-5.2,8.9-11.9c0.5-24.6,7.7-47.7,16.2-70.1
			c6.7-17.8,16.3-34.3,26.8-50.1c7.3-10.9,8.8-10.8,16.4-0.5c10.7,14.5,21.1,29.2,32.5,43c6.5,7.8,6.5,14.8,2.2,23.3
			c-6.6,13.1-11,27.1-14.5,41.4c-1.6,6.6-1.9,13.1-1.9,19.9c0,8.7,4.1,13.1,12,14.9c19.4,4.5,39.3,5.1,58.9,6.5
			c31.3,2.3,62.7,2.6,94,3.8c-6.9,9.1-16.2,3.9-24.5,4.2c-1.9,0.1-3.7-1.7-5.6-2.5C826.7,846.8,820.9,853.7,814.3,851.8z"/>
		<path class="st1" d="M344.7,322.3c-24.1-0.1-48.2-0.3-72.4-0.1c-7.1,0.1-13.5-1.1-19.3-5.5c5.2-15.5,11.2-30.6,19.1-44.8
			c25.4,15.7,50.7,31.4,76.1,47.1C347,320.1,345.9,321.2,344.7,322.3z"/>
		<path class="st1" d="M321.3,549c23.6,0,47.1,0,70.7,0c0.2,0.9,0.3,1.8,0.5,2.7c-40.2,19.7-80.4,39.4-120.6,59.2
			c9.7-15.8,22-29.4,33.4-43.8C310.3,560.8,315,554,321.3,549z"/>
		<path class="st5" d="M267.7,502.7c21.5,0.1,43.1,0.2,64.6,0.3c-9.5,11.9-22.1,20.6-31.2,33c-2.3,3.2-4.6,1.8-6.4-0.7
			C286.2,523.9,275.4,514.7,267.7,502.7z"/>
		<path class="st6" d="M1229.3,549.1c-18.3,0-36.5,0.1-54.8,0.1c5.5-9.6,14.7-15.4,21.7-23.4c1.3-1.5,3-0.7,4.3,0.4
			C1209.9,534,1220.6,540.1,1229.3,549.1z"/>
		<path class="st4" d="M795.3,883.5c3.1-4.2,7.6-4.9,12.1-4.9c30,0.4,60.1-1.6,90.1,1.6c3.4,0.4,6.3,0.9,7.2,5
			C868.2,886.4,831.8,883.4,795.3,883.5z"/>
		<path class="st4" d="M976.1,861.8c-4.8-6.9-12.2-6.2-18.8-6.4c-15.8-0.6-31.6,0-47.4-0.3c-10.5-0.2-21-1.1-31.5-1.7
			c-3.2-0.2-5.4-2.1-7-4.8c31.2,0.9,62.4,2.1,93.6,1.7C974.4,850.1,975.7,851.9,976.1,861.8z"/>
		<path class="st4" d="M934.8,885.1c3-6.7,9.2-6.2,14.4-6.4c19.5-0.6,39-0.1,58.5-1.8c5-0.4,10.7-0.7,14.3,4.8
			C993,884.2,963.9,884,934.8,885.1z"/>
		<path class="st7" d="M248.4,368.9c12.2,0,24.3,0,36.5,0c-5.4,5.2-10.9,10.5-16.2,15.8c-2.6,2.5-4.6,1.8-6.7-0.6
			C257.5,378.9,253,373.9,248.4,368.9z"/>
		<path class="st4" d="M720.8,883.5c6.9-6.4,15.6-2.9,23.4-4.5c7.6-1.6,15.7-0.4,23.6-0.4c3.7,0,6.6,1.5,8.5,4.9
			C757.8,886.1,739.3,883.6,720.8,883.5z"/>
		<path class="st4" d="M814.3,851.8c6.3-1.4,12.4-5.2,19-1.7C826.8,848.2,821.1,856.2,814.3,851.8z"/>
	</g>
</g>
</svg>
