<?xml version="1.0" encoding="utf-8"?>
<!-- Generator: Adobe Illustrator 19.1.0, SVG Export Plug-In . SVG Version: 6.00 Build 0)  -->
<svg version="1.1" id="Layer_1" xmlns="http://www.w3.org/2000/svg" xmlns:xlink="http://www.w3.org/1999/xlink" x="0px" y="0px"
	 viewBox="0 0 645 426" style="enable-background:new 0 0 645 426;" xml:space="preserve">
<style type="text/css">
	.st0{fill:#327732;}
	.st1{fill:#41792C;}
	.st2{fill:#4A7E31;}
	.st3{fill:#61A34C;}
	.st4{fill:#387E3B;}
	.st5{fill:#548536;}
	.st6{fill:#4D7E2F;}
	.st7{fill:#409941;}
	.st8{fill:#607F35;}
	.st9{fill:#54903F;}
	.st10{fill:#5FA156;}
	.st11{fill:#5F8439;}
	.st12{fill:#379054;}
	.st13{fill:#307437;}
	.st14{fill:#4C8437;}
	.st15{fill:#599A50;}
	.st16{fill:#528739;}
	.st17{fill:#479C46;}
	.st18{fill:#5FA158;}
	.st19{fill:#2E8144;}
	.st20{fill:#5F8036;}
	.st21{fill:#5FA157;}
	.st22{fill:#32702B;}
	.st23{fill:#4B8136;}
	.st24{fill:#5E9C52;}
	.st25{fill:#337834;}
	.st26{fill:#569443;}
	.st27{fill:#448847;}
	.st28{fill:#548B40;}
	.st29{fill:#518F42;}
	.st30{fill:#3E8F4D;}
	.st31{fill:#5F8238;}
	.st32{fill:#3B8A4A;}
	.st33{fill:#428039;}
	.st34{fill:#4B6C27;}
	.st35{fill:#438237;}
	.st36{fill:#5B9C3B;}
	.st37{fill:#57893D;}
	.st38{fill:#477B2F;}
	.st39{fill:#507D27;}
	.st40{fill:#55802A;}
	.st41{fill:#597830;}
	.st42{fill:#4D752D;}
	.st43{fill:#517831;}
	.st44{fill:#2F722E;}
	.st45{fill:#348535;}
	.st46{fill:#2F712C;}
	.st47{fill:#549644;}
	.st48{fill:#5D9E43;}
	.st49{fill:#60A45C;}
	.st50{fill:#4E8534;}
	.st51{fill:#61A45B;}
	.st52{fill:#32752F;}
	.st53{fill:#4F9040;}
	.st54{fill:#60A152;}
	.st55{fill:#608236;}
	.st56{fill:#4D732C;}
	.st57{fill:#3C792B;}
	.st58{fill:#5EA257;}
	.st59{fill:#477D2F;}
	.st60{fill:#399255;}
	.st61{fill:#609D4A;}
	.st62{fill:#588D39;}
	.st63{fill:#367A35;}
	.st64{fill:#238C3F;}
	.st65{fill:#509555;}
	.st66{fill:#498240;}
	.st67{fill:#43823C;}
	.st68{fill:#539350;}
	.st69{fill:#5D7C34;}
	.st70{fill:#5B9C3C;}
	.st71{fill:#317733;}
	.st72{fill:#5A9C53;}
	.st73{fill:#5A9B4B;}
	.st74{fill:#4A8030;}
	.st75{fill:#5F994A;}
	.st76{fill:#3F8B4A;}
	.st77{fill:#4B8A3A;}
	.st78{fill:#529656;}
	.st79{fill:#437F39;}
	.st80{fill:#5B9C51;}
	.st81{fill:#55954B;}
	.st82{fill:#5A9643;}
	.st83{fill:#5E9F3E;}
	.st84{fill:#307532;}
	.st85{fill:#549246;}
	.st86{fill:#4D8439;}
	.st87{fill:#4E8F44;}
	.st88{fill:#327430;}
	.st89{fill:#549549;}
	.st90{fill:#5C9E50;}
	.st91{fill:#347732;}
	.st92{fill:#498637;}
	.st93{fill:#5FA053;}
	.st94{fill:#4B802E;}
	.st95{fill:#4E873B;}
	.st96{fill:#409942;}
	.st97{fill:#5EA156;}
	.st98{fill:#3A7A32;}
	.st99{fill:#498E45;}
	.st100{fill:#5A9E5D;}
	.st101{fill:#3F8037;}
	.st102{fill:#5D9F54;}
	.st103{fill:#5C9E53;}
	.st104{fill:#5A833A;}
	.st105{fill:#519036;}
	.st106{fill:#397B33;}
	.st107{fill:#599A3A;}
	.st108{fill:#537F28;}
	.st109{fill:#448440;}
	.st110{fill:#57782F;}
	.st111{fill:#5EA054;}
	.st112{fill:#4C8839;}
	.st113{fill:#517B33;}
	.st114{fill:#338635;}
	.st115{fill:#4A8939;}
	.st116{fill:#5F8337;}
	.st117{fill:#3A9153;}
	.st118{fill:#238E40;}
	.st119{fill:#42833C;}
	.st120{fill:#5A7E35;}
	.st121{fill:#5A7C33;}
	.st122{fill:#5C9D3E;}
	.st123{fill:#4B8937;}
	.st124{fill:#5E9E3D;}
	.st125{fill:#549245;}
	.st126{fill:#519247;}
	.st127{fill:#5D9E51;}
	.st128{fill:#5E9D50;}
	.st129{fill:#5A9F5D;}
	.st130{fill:#40823B;}
	.st131{fill:#3C8038;}
	.st132{fill:#5D9C50;}
	.st133{fill:#5D9D4F;}
</style>
<g>
	<g>
		<path class="st0" d="M-10,28.7c0-11.7,0.1-23.3-0.1-35c-0.1-3.1,0.6-3.8,3.7-3.7C30.3-9.9,66.8-10,103.4-10
			c77.8,0,155.7,0,233.5,0c2.2,1.6,2.5,3.9,2.6,6.4c0.1,5-0.2,10,0.2,15c0.6,6.5,3,8.9,9.5,9.3c4.8,0.3,9.6,0,14.4,0.2
			c2,0.1,4.2-0.3,5.6,1.7c0.9,4-1.9,4.2-4.5,4.4c-18.6,1.8-37.2,1.1-55.9,1c-7.6,0-15.1-1.9-22.7-1.1c-6.1,0.6-8.5,2.6-8.5,8.9
			c-0.1,14.6-0.8,29.2,0.6,43.8c0.8,8,0.2,16,0.2,24c0,6.3,0.1,12.6,2.7,18.5c0.4,1,0.4,2,0,3c-2,2.6-4.7,3.2-7.8,2.7
			c-10.3-1.6-20.9-0.4-31.2-2.2c-3-0.5-5.5,1.6-8.4,2.1c-6.9,1.1-13.9,1-20.9,0.7c-14.3-0.5-28.6,1.3-42.9,1.2
			c-5.6-0.1-10.2,2.2-14.2,6.4c-3.8,4-7.3,3.7-10.7-0.2c4.1-37.9,0.8-76,1.9-114c0-1.7,0-3.5-0.1-5.2c-0.6-6.5-3.2-9.2-9.5-9.2
			C102.8,7,68.3,5.6,33.8,6.2C29,6.3,24.5,7.1,21,10.8c-5.1,5.5-3.8,12.5-4.2,19.1c-3.3,5.4-8.5,3.9-13.3,3.9
			C1,31.6-1.8,30-5.3,30.2C-7,30.4-8.7,30.2-10,28.7z"/>
		<path class="st1" d="M143.3,435c-51.1,0-102.2,0-153.3,0c0-26.1,0-52.2,0-78.3c1.4-1.3,2-3.7,4.2-3.9C0.8,352,4,347.6,6.2,342
			c0.9-1.1,1.6-2.6,3.5-2.3c0.7,0.1,1.3,0.4,1.8,0.9c1.5,2.7,1.9,5.6,1.7,8.6c-0.2,1.6-0.2,3.2-0.1,4.7c-1.6,9.1-1,18.3-0.6,27.4
			c0.4,7.9,3.4,10.4,11.3,11.5c10.7,1.4,21.3,0.4,32,0.6c13.9,0.2,27.9-0.1,41.8,0.4c8.3,0.3,16.6,0.1,24.8,0
			c9-0.1,11.5-2.5,12.7-11.5c0.4-3.1,0.4-6.2,0.4-9.4c0-14.1-0.1-28.2,0.1-42.3c0-2.3-0.7-5,1.9-6.6c1-0.1,1.9-0.1,2.9,0.1
			c2.5,1.2,2.5,3.7,2.4,5.9c-0.5,14.1,1.2,28.1,1.1,42.2c0,7.3,1.3,14.5,1.2,21.9c0,4.6,2.5,7.8,6.4,10c0.8,2.1,1.9,4-0.7,5.9
			c-6.1,4.4-8.3,10.9-5.4,17.9C146.8,431.3,146.1,433.3,143.3,435z"/>
		<path class="st2" d="M143.3,435c0.3-1.5,0.6-3.1-0.2-4.6c-3.6-6.2-0.9-12.5-0.3-18.7c0.4-4.4,5.8-3.1,7.8-5.9
			c0.8-3.1,3.4-2.6,5.5-2.6c12.4,0.4,24.8,0.9,37.1,1.4c13.6,0.6,27.2,1.5,40.7-0.6c3.9,1.7,8.5,0.2,12.3,3c1.4,1.1,3.1-0.9,4.7-1.1
			c5.3,1.6,10.7,2.1,16.2,2.4c14.1,0.6,28.1,1.2,42.1,2.6c8.3,0.8,16.8,1.9,25-1.3c2.1,0.2,3.7-1.5,5.7-1.7
			c8.2,2.2,16.6,3.1,24.9,4.3c4.1,0.6,8.1,1.1,12.2,1.6c2.3,0.3,3.9-0.4,5.7-1.3c2.8-1,5.3,0.7,7.9,1c12.5,1.6,25.1,1.7,37.5,3.3
			c10.9,1.4,22-0.3,32.7,3.4c3.9,1.4,8.3-1.5,12.1,1.2c3.8,5.3,3.7,9.5-0.3,13.7c-82.9,0-165.7,0-248.6,0c-2.1-4.6-5.4-8.5-7.7-12.9
			c-1.5-2.8-4-4.4-7.3-3.1c-2.5,0.9-5.1,0.9-7.7,0.9c-13.6-0.3-27.2,0.3-40.8-0.2c-5.4-0.2-8.1,2.4-7.6,8c0.4,4-1,6.1-4.5,7.3
			C146.8,435,145,435,143.3,435z"/>
		<path class="st3" d="M658,107c0,2.1,0,4.2,0,6.3c-0.5,0.5-1,1.3-1.5,1.3c-7.5-0.2-14.4,3.4-21.8,3.4c-14.3-0.1-28.6-0.1-42.9,0
			c-4.7,0-9.2-1.5-13.9-1c-1.5,0.2-3,0-3.1-1.8c-0.2-2.1,1.6-1.9,2.9-2c10.6-0.9,21.2-1.7,30.1-1.5c-7.9-0.4-17.5,1-27.2,1.1
			c-5.7,0.1-10.8,3.4-16.6,3.1c-2.1,0.1-4.2-0.9-6.3,0.1c-3,0.6-5.6-0.3-8-2.2c-3.9-1.5-4.5-4.3-4.6-8.4
			c-0.4-14.8-0.4-29.5-0.4-44.3c0-10.9,0-21.9,0-32.8c0-3.6,0.6-7,3.3-9.7c1.9-3,5.3-3.4,8.1-4.8c4.2-1.5,8.4-1.6,12.9-1.3
			c16.5,1.1,32.9,0.3,49.4-0.7c1.2-0.1,2.3-0.3,3.5,0c3.9,1.1,7.7,0.2,11.5-0.8c7.3,2.2,8.6,3.9,8.6,11.9c0.1,20.1,0.2,40.2,0,60.3
			c-0.1,6.7,1.1,11.8,8.4,14.1C654.7,98.7,656.1,103.3,658,107z"/>
		<path class="st4" d="M658,107c-2.2-0.8-3.4-2.8-5-4.4c-2.2-2.1-4.5-3.9-7.7-3.8c-4.9,0.2-6-2.4-6-6.8c0.1-21.2,0-42.4,0-63.6
			c0-2.6,0.1-5.2-0.1-7.8c-0.3-3.7-1.9-6.3-6-6.6c-13.7-2.7-26.5-9.8-41.1-7.7c-8.4,1.2-16.8,1.1-25.3,0.9c-7-0.1-7.8-0.9-7.7-7.8
			c0.1-3.2-1.2-6.7,1.5-9.4c31.2,0,62.5,0.1,93.7-0.1c3.1,0,3.7,0.6,3.7,3.7C658,31.5,658,69.3,658,107z"/>
		<path class="st5" d="M472.7,435c0.7-4.3,0.3-8.4-1-12.5c-2.5-2.1-1.6-4.2-0.2-6.4c2.6-0.4,4.5-1.7,6.3-3.8
			c4.1-4.7,8.6-9,13.1-13.3c1.5-1.5,3.1-2.9,5.4-1.4c2,2.2,4.1,3,7,1.5c3.1-1.6,6.4,0.1,9.4,0.1c8-0.1,15.6,1.9,23.5,2.1
			c8.2,0.2,16,2.3,23.6,5c7,2.5,8.4,7.4,5.3,14.5c-0.6,1.4-1.4,3-1.1,4.5c1,5.5-1.9,8.1-6.5,9.7C529.3,435,501,435,472.7,435z"/>
		<path class="st6" d="M557.6,435c2.5-2.8,4.3-5.8,3.4-9.9c-0.5-2.1,0.6-4,1.6-5.9c2.7-4.8,1.9-8.4-3.4-10.2
			c-7.3-2.5-14.8-4.8-22.6-4.7c-4.2,0.1-8.2-1.1-12.2-1.8c-7.6-1.3-15.1-3.3-22.9-1c-2.8,0.8-4.5-1.1-6.1-3.1
			c0.2-0.3,0.3-0.5,0.5-0.8c2.4-1.3,5.3-1,7.7-2.5c6.5,1.2,12.9,0.2,19.4-0.1c9.9-0.5,19.8-0.2,29.7-0.1c2.4,0.1,4.7,0.4,6.6,2.3
			c1.6,1.6,3.7,1.6,6.1,1.2c6.7-1.3,13,1.8,19.6,2.2c4.5,0.3,9.1,0.3,13.6,1.4c1.7,0.4,3.8,0.4,5.4-1c1.8-1.7,4.1-1.6,6.3-1.8
			c14.2,0.5,28.3-1.4,42.5-0.7c2.2,0.1,4,0.5,5.4,2.2c0,2.8,0,5.6,0,8.4c-4.1,6.9-10.8,5-16.6,4.4c-8.6-1-17.1,1-25.7,0.6
			c-3.3-0.2-5.2,2.3-6.1,5.4c-1,3.4-1,6.9-0.6,10.3c0.3,2.2,0.1,4.1-1.8,5.4C590.7,435,574.1,435,557.6,435z"/>
		<path class="st7" d="M658,129c0,28.6,0,57.1,0,85.7c-4.4,3.4-12.2,2.5-14.9-1.7c-0.4-0.6,0.8-2.5-1.2-1.9
			c-5.4,1.7-10.8,1-16.2,0.8c-7.2-0.3-14.3,1.6-21.5,0.9c-6.4,0.2-12.7,0-19,0.3c-6.1,0.3-11.6-0.9-16.3-4.9
			c-2.2-1.9-2.7-4.5-2.4-7.1c1.4-11.4,0.6-22.8,0.9-34.2c0-1.2,0.1-2.4,0.4-3.6c4.2-3.6,4.6-7.9,2.9-12.9c-0.6-1.6-0.3-3.5-0.2-5.2
			c0.6-6.5,0.6-13.1,1.8-19.6c1.1-6.2,3.7-9.2,8.6-9.3c3.5-0.1,5.1,1.2,4.7,4.9c-0.2,2.6-0.7,5.1-1.3,7.6
			c-2.1,5.3-2.3,10.9-2.4,16.4c-0.2,13.6-0.2,27.1,0,40.7c0.1,9,2.4,11.7,11.1,11.1c15.7-1,31.4-0.7,47.1-1c6.4-0.1,8.9-2.5,9-9
			c0.3-16.5,0.2-33.1,0-49.6c0-3.1-0.9-5.8-3.2-8c-1-1-2-1.9-1.8-3.5c1.4-4.3,5.9-5.1,9.9-2C655.7,125.5,656,128,658,129z"/>
		<path class="st8" d="M658,400.6c-15.9,0.4-31.8,0.7-47.7,1.1c-3.7,1.7-7.5,0.9-11.2,0.7c-2-0.1-3.1-1.4-3.9-3.1
			c-1.3-2.7-1.9-5.6-1.9-8.6c0.1-17.2,0-34.4-0.3-51.5c-0.2-7.3-0.9-14.5-0.7-21.8c0.1-2.2-0.4-4.6,1.3-6.4
			c13.1-4.5,26.7-2.7,40.2-2.9c5.1-0.1,10.3,0,15.4-0.6c3-0.3,6.2-1.2,8.8,1.3c0,3.5,0,7,0,10.4c-1.5,2-3.5,2.6-5.9,2.6
			c-10.3,0-20.6,1.4-31,1.2c-9.4-0.2-12.6,2.7-12.1,12c0.8,15.1,0.6,30.2,1,45.4c0.2,6.9,3.1,9.1,10,8.6c10.7-0.7,21.4-0.2,32.1-0.3
			c2.4,0,4.4,0.6,5.9,2.6C658,394.3,658,397.4,658,400.6z"/>
		<path class="st9" d="M658,308.6c-17.7,0.7-35.3,1.5-53,2.1c-3.4,0.1-6.5,2.6-10.1,1c-2.6,0.4-1.8-3.1-3.9-3.2
			c-4.4-1.1-8.8-1.2-13.1,0.3c-3.2,0.5-6.3,0.3-9.5,0.1c-2.2-0.1-3.9-0.9-5-2.9c-1.6-4.2,0.2-6.6,5.2-5.9c4.5,0.6,8.9,0.2,13.4-0.4
			c3.9-0.5,6.2-2.6,7.3-6.4c1.5-5,1.1-10,0.4-15c-0.5-3.3-2.9-4.6-6-4.8c-3.1-0.2-4.6-1.8-5.1-4.8c-1-6.4-2.3-12.7,1.1-18.8
			c1-1.8,0.6-3.7-0.2-5.5c-2.8-6.2-2.6-12.5-0.3-18.8c1.5-4,0.1-5.9-3.7-6.8c-4-0.9-7.9-2.4-12.1-2.7c-2.1-0.2-4.1-0.5-5.3-2.7
			c0.8-4.6-0.4-9.7,2.8-13.9c2.5-0.5,3.7,0.5,4.4,3c0.6,2.3,1.4,4.8,4.6,4.6c11.3,5.3,23.4,2.5,35.1,3.2c1.9,1.9,0.7,4.3,0.8,6.5
			c0.3,6.4,0.2,12.7,0,19.1c-0.1,5.3,0.1,10.6-0.3,15.9c-1,14.5,2.4,28.9,2.1,43.4c-0.1,2.8,1.4,4.4,3.9,5.4
			c3.3,1.3,6.5,2.1,10.1,2.1c6.2,0,12.5,0,18.4,2.5c1.9,0.8,3-1.6,4.9-1c4.2,1.4,9.4-1,13,3.2C658,308,658,308.3,658,308.6z"/>
		<path class="st10" d="M658,391.2c-13.6,0.3-27.2-0.5-40.8,0.8c-7.4,0.8-9.9-1.7-10-9c-0.4-16.8-0.7-33.7-0.9-50.5
			c-0.1-10.4,2.1-12.2,12.4-12.4c13.1-0.2,26.1-0.7,39.2-1c0,4.5,0,9.1,0,13.6c-1.6,2.3-3.5,2.2-5.8,1.1
			c-13.4-6.4-35.3,2.7-35.1,23.9c0.1,11.7,9,21.2,20.5,21c5.5-0.1,11.6,1.4,16.2-3.7c1.4-1.6,3,0.2,4.2,1.5
			C658,381.4,658,386.3,658,391.2z"/>
		<path class="st11" d="M556.6,17.2c-2.4,0.7-4.8,1.4-7.3,2.1c-6.6,4-14,1.6-20.9,2.6c-7.3,0.3-14.7-0.8-21.7,1.9
			c-12-0.2-24,1-36,0.2c-1.7-0.1-3.4-0.1-5.1-0.8c-7.2-8.2-5.1-18.7-6.7-28.3c-0.3-2,1-3.5,2.4-4.8c4.5,0,9,0,13.5,0
			c2.8,2,2.4,5.1,2.7,8c0.6,6.8,3.5,9.2,10.1,8.8c14.6-0.8,29.2-1.9,43.9-1.7c1.4,0,2.8,0,4.1-0.1c5.8-0.4,7.7-2.3,8-8
			c0.1-2.7,0.2-5.3,2.6-7c4.5,0,9,0,13.5,0c1,2.7,0.7,5.5,0.3,8.2c-0.4,2.3-0.1,4.5,0.6,6.6C562.2,10.3,561.2,13.3,556.6,17.2z"/>
		<path class="st12" d="M367.8,23.6c-7,0-14.1,0.1-21.1,0c-7.3-0.1-9.1-1.7-9.5-9.1C336.9,6.3,337-1.8,337-10c3.5,0,6.9,0,10.4,0
			c2.6,1.9,2.5,4.7,2.6,7.5c0.4,10.4,2.8,12.8,13.2,12.8c15.3,0.1,30.7,0,46,0.1c3.3,0,6.5-0.8,9.7-1.2c2.9,0.1,3.9-1.5,4.2-4.2
			c0.4-3.3,0.2-6.7,0.1-10c0-2,0.1-3.7,1.9-5c3.8,0,7.6,0,11.4,0c2.1,1.8,2.6,4.2,2.6,6.8c0,6,0.1,12.1-0.1,18.1
			c-1.6,7.3-5.9,11-12.9,11.1c-3.4,0.1-6.8,0.4-10.2,1.2c-2.2-0.9-4.5-1.2-7-1.2c-12.2,0-24.5,0.7-36.7-0.5
			C370.3,25.7,368.8,25.3,367.8,23.6z"/>
		<path class="st13" d="M9.7,341c-0.7,0.7-1.4,1.4-2,2.1c-3.9,2.2-4.6-1.1-5.2-3.4c-3.6-13.9-7.4-27.8-8.8-42
			c-0.8-8.5-1.1-17.3-0.9-25.9c0.2-7.4-1.2-14.5-2.7-21.7c0-13.9,0-27.9,0-41.8c1.1-0.7,2.4-1.4,3.3-0.3c2.3,2.9,5.7,4.7,7.3,8.1
			c0.4,3.1,0.4,6.2-0.1,9.3c-1.5,9.4,0.7,18.6,0.8,27.9c0,3.5,2.4,6.1,5.4,7.8c3.1,1.7,5.5,4.1,7.1,7.3c-1,18.2-0.4,36.5-0.5,54.7
			c0,5-0.9,9.8-1.5,14.7C11.7,339.5,11.3,340.5,9.7,341z"/>
		<path class="st14" d="M148.5,435c1.6-2.2,1.6-4.7,1.5-7.4c-0.6-7.6,3.3-11.5,10.7-10.9c13.9,1.1,27.8,0,41.7,0.5
			c1.9,0.1,5.7,1.5,5.1-3.3c-0.1-0.9,1-0.7,1.6-0.4c4.1,2.4,9.1,3.7,10.8,9c1.4,4.2,6.7,7.1,4.2,12.6C198.9,435,173.7,435,148.5,435
			z"/>
		<path class="st15" d="M419.8,12c-2.8,0.8-5.7,1-8.7,1c-17.1,0-34.1,0-51.2,0c-10.2,0-12.6-2.4-12.6-12.5c0-3.5,0-7,0-10.4
			c5.2,0,10.4,0,15.5,0c1.7,1.5,2.9,3.1,1.5,5.6c-1.8,3.1,0.2,4,2.9,4.2c3.9,0.3,7.9-0.1,12,0.2c-1.7-1.5-3.7-2.4-5-4.4
			c-1.4-2.4-0.9-4.1,1.1-5.6c6.6,0,13.1,0,19.7,0c2.5,1.7,2.7,5,4.8,7c1,0.9,2.2,2.1,3.6,1.7c2-0.6,0.7-2.3,0.6-3.5
			c-0.2-2.3,0.9-3.8,2.4-5.2c4.8,0,9.7,0,14.5,0C424.7-4.8,424.3,4.9,419.8,12z"/>
		<path class="st16" d="M607.3,435c-1.8-6.7-1.8-13.3,0.7-19.9c1.4-3.8,3.8-5.3,8-4.7c6,0.9,12,1,17.9-0.8c1.3-0.4,2.8-0.5,4-0.1
			c6.8,2.3,13.5,1.7,20.2-0.7c0,7.7-0.1,15.3,0.1,23c0.1,2.6-0.6,3.2-3.2,3.2C639,435,623.2,435,607.3,435z"/>
		<path class="st17" d="M658,129c-2,0.6-3.2-0.5-4.5-1.8c-2.4-2.4-5-2.8-8-1.2c-0.9,1.8-2.5,2.2-4.3,2.3
			c-18.7,1.6-37.4,1.2-56.1,1.1c-1.4,0-2.7-0.3-3.7-1.5c0.5-2.2,1-4.4,1.4-6.6c0.2-1.4,0.1-2.9-1.7-3.3c-1.6-0.4-2.6,0.6-3.4,1.8
			c-3.3,5.2-4.2,11.3-5,17.1c-0.8,6.6-0.7,13.5,0.4,20.2c0.5,2.8-0.1,5.2-3.2,6.3c-3.3-0.5-2.5-3.3-2.5-5.3c-0.2-9.3-0.2-18.6,0-28
			c0.1-6,0.3-12-3.7-17.1c9.4-1.8,18.9-0.9,28.3-1.7c8.7-0.7,17.5-0.2,26.2-1.3c0,0.5,0.1,1.1,0.1,1.6c-13.5,0.7-27.1,1.4-40.6,2.2
			c0,0.5,0.1,0.9,0.1,1.4c16,0,32-0.1,48,0c7.6,0,15.1,0,22.4-2.6c3.1-1.1,6.5-0.2,9.7,0.7C658,118.5,658,123.8,658,129z"/>
		<path class="st18" d="M546.2-10C546-6,547-2,546.4,2c-0.6,3.9-2.5,5.8-6.5,5.8c-12.2-0.1-24.4,0.4-36.6,0.9
			c-6.2,0.3-12.3,0.9-18.5,1.1c-7.4,0.2-9.9-2.4-10-9.8c-0.1-3.3,0-6.6,0-9.9c9.7,0,19.3,0,29,0c2.4,1.8,2.8,3.7-0.1,5.7
			c3.6,0.1,6.9,0,10.1,0c2.8,0.1,4.9-0.2,3.5-4c-0.2-0.6,0.5-1.2,0.9-1.8C527.5-10,536.9-10,546.2-10z"/>
		<path class="st19" d="M658,307.6c-4.8,0-9.6-0.1-14.4-0.1c-5.3-2.6-6.4-6.6-6.1-12.5c0.9-24.1,0.2-48.3,0.4-72.4
			c0-2.9-0.3-5.9,1.3-8.6c1.2-2.1,2.4-4.2,5.3-2.3c4,3.3,9,2.3,13.6,3.1c0,3.1,0,6.3,0,9.4c-4.2,3.7-5.6,8.4-5.7,13.9
			c-0.2,14.7,0.8,29.4-1,44c-0.8,6.7,2.6,11.6,6.7,16.2C658,301.3,658,304.5,658,307.6z"/>
		<path class="st20" d="M658,376.5c-5.9,2.5-12,3.6-18.3,4.8c-10.6,2.1-23.6-8-25.2-19.7c-3-22,17.5-38.5,38.1-30.7
			c1.8,0.7,3.6,1.1,5.4,1.6c0,3.1,0,6.3,0,9.4c-1.5,1.9-2.8,1.7-4.6,0c-8.4-7.5-15.9-5.8-20,4.9c-2.8,7.4-3.1,15,1.2,22.1
			c2,3.3,4.9,4.8,8.7,4.6c5.1-0.4,7.8-5.4,5.2-9.8c-0.8-1.3-1.9-2.5-2.5-4c-0.5-1.4-0.5-2.7,0.8-3.7c2.5-2.1,8.5-1.8,11.3,0.6
			C658,363.3,658,369.9,658,376.5z"/>
		<path class="st21" d="M658,356.7c-1.4,0.1-2.8,0.1-4.1,0.4c-3,0.6-7,0.3-2.4,5.1c4,4.1-0.2,13.4-5.8,14.3
			c-8.4,1.2-14.4-2.7-16.1-11.6c-1.4-7.4-1.4-14.8,2.4-21.8c5.2-9.7,14.4-11.5,22.5-4c1.1,1,2.4,2,3.6,3
			C658,346.9,658,351.8,658,356.7z"/>
		<path class="st22" d="M-10,250.2c3.3,7.2,5.3,14.3,5.6,22.7c0.4,12.2,0.4,24.4,2.6,36.7c1.7,9.8,6.1,18.8,6.7,28.7
			c0.1,2,1.3,3.6,2.8,4.9c-1,7.5-3.5,10.1-10.7,11.7c-2.3,0.5-4.6,1.2-6.9,1.9C-10,321.2-10,285.7-10,250.2z"/>
		<path class="st23" d="M-10,28.7c4.6,0,9.3-0.4,13.5,2.1c5.3,2.2,7.6,5.8,6.2,11.8c-0.7,3,0.8,6.1,0.4,10.4c0.7-3.2,1-5.3,1.4-7.4
			c0.7-3.4,2.6-3.8,5.1-1.6c0.7,13-0.2,26.1,0.5,39.2c0.7,12.3,0.5,24.6,1.3,36.9c0.3,4.5-0.2,9,0.1,13.6c-1.8,3.1-7.4,4.5-12.1,2.7
			c-2.2-0.8-4.5-1.8-5.4-4.4c-1.3-4.7,0.7-9.3,1.3-13.8c1.3-9.9,1.8-19.6,0-29.5C1,81.5,2.8,74.2,3.6,67c0.9-7.9-0.2-15.8-1.3-23.6
			c-0.7-5.1-4.2-8.8-9.2-10.5c-1.4-0.5-2.2-1.3-3.1-2.1C-10,30.1-10,29.4-10,28.7z"/>
		<path class="st24" d="M-10,127.9c0-31,0-62,0-93c2.1-2.6,4.2-2.2,6.6-0.3c3.7,3,5.8,6.7,6.3,11.5C4.1,57.6,4.3,69,1.1,80.3
			c-1.1,4-0.2,8,1,11.8c3.6,11.2,0.3,21.7-3,32.1C-2.7,130.1-6,131-10,127.9z"/>
		<path class="st25" d="M436.2,15.2c0.1-8.4,0.1-16.8,0.2-25.1c8.3,0,16.6,0,24.9,0c0.8,8.2,1.4,16.5,2.4,24.7
			c0.3,2.3,1.8,4.4,2.8,6.6c-0.4,2.7-2.6,2.4-4.4,2.5c-7.7,0.3-15.5,0-23.2-1.2C433.3,21.8,436.2,18,436.2,15.2z"/>
		<path class="st26" d="M556.6,17.2c2.5-3.5,2.2-7.6,2.6-11.5c0.5-5.2,0.4-10.4,0.5-15.6c0.3,0,0.7,0,1,0
			c0.3,16.2-2.1,14.5,14.8,14.6c8.6,0,17.2-1.1,25.8-1.1c11.9,0,21.8,5.3,31.9,10.5c-13.9,0.6-27.8,1.7-41.6,1.7
			c-7.2,0-14.4,1.1-21.5-0.4C565.4,14.5,560.8,14.6,556.6,17.2z"/>
		<path class="st27" d="M2.5,131c4.7,4.9,9.5,5.6,14.5,2c3.2-0.7,3.6,1.2,3.2,3.7c-1.4,2.8-4.1,2-6.4,2.1
			C2.9,139.3,1,141.2,0.9,152.4c-0.1,19.1,0.1,38.3-0.1,57.4c0,2.4,1.3,5.8-2.6,6.9c-2.7-2.8-5.5-5.6-8.2-8.4c0-25.1,0-50.1,0-75.2
			C-5.7,129.5-1.1,128.8,2.5,131z"/>
		<path class="st28" d="M2.5,131c-4,1.3-8.1,2.4-12.4,2.1c0-1.7,0-3.5,0-5.2c4.1,0,6.3-2.4,7.3-6.1c2.8-10.8,5.6-21.5,1.2-32.6
			c-1.3-3.3-1.2-6.7-0.1-10.2c3.6-11,3.5-22.1,1.8-33.4C-0.8,39.6-4.1,36.1-10,35c0-1.4,0-2.8,0-4.2c11,0.8,14.8,4.9,15.5,16
			C6.4,58.4,6.4,70,4.7,81.6c-0.2,1.5-0.3,3.2,0,4.7c2.9,12.5,1.3,24.9-0.2,37.3C4.2,126.2,3.4,128.6,2.5,131z"/>
		<path class="st29" d="M658,298.2c-7.5-2.3-9.5-4.5-9.2-12.2c0.9-17.6,0.7-35.3,0.9-52.9c0.1-6,2.2-8.2,8.3-9.1
			C658,248.8,658,273.5,658,298.2z"/>
		<path class="st30" d="M375.3-10c0.5,4.3,2.7,7.1,7,7.8c1.6,0.3,3.2,0.9,2.9,2.9c-0.2,1.9-2,1.7-3.3,1.7c-6.4,0-12.8,0-19.2-0.1
			c-1.7,0-3.7-0.3-4.6-2c-1.1-2,0.6-3.2,1.8-4.5c1.5-1.7,2.8-3.5,2.9-5.9C367-10,371.2-10,375.3-10z"/>
		<path class="st31" d="M518.2-10c1.2,1.6,2.7,2.6,4.6,3.1c1.4,0.3,2.8,0.9,2.5,2.7c-0.3,1.6-1.8,2.2-3.1,2.3
			c-3.6,0.2-7.2,0.3-10.8,0.4c-4,0.1-7.9,0.2-11.9,0.3c-1.6,0-3.3-0.3-3.3-2.4c-0.1-1.8,1.4-2.3,2.8-2.4c2.5-0.2,4.3-1.2,4.7-3.9
			C508.6-10,513.4-10,518.2-10z"/>
		<path class="st32" d="M406.4-10c0.1,3,0,6,3.1,7.8c1,0.6,2.3,1.2,1.7,2.8c-0.5,1.2-1.8,1.5-3,1.7C400.6,3.8,395.1-1.3,395-10
			C398.8-10,402.6-10,406.4-10z"/>
		<path class="st33" d="M419.8,12c1.9-7.2,1.5-14.6,1-21.9c1.4,0,2.8,0,4.1,0c0,4.5,0,9-0.1,13.5C424.8,7.3,423.5,10.4,419.8,12z"/>
		<path class="st34" d="M19.1,9.9c1.6-4.6,5-6.2,9.7-6.2C52.4,3.7,76,3.2,99.6,3.8c13.1,0.4,26.2,1,39.3,0.3
			c7.3-0.4,10.5,2.9,10.6,10.3c0.1,37.4,0,74.8,0.1,112.3c0,3.3-1.1,6.1-3.1,8.6c-3,5.2-8.6,5.1-13.3,6.4c-6.4,1.8-12.9,1.2-19-1.8
			c-11.1-5.4-22.8-4.3-34.5-3.9c-3,0.1-5.2,3.3-8.6,2.8c-14-0.1-27.9,1.9-41.9,0.1c-2-0.3-4.1,0-6.1-0.7c-3.6-3.8-4.8-8-4.8-13.4
			c0-14.4-0.9-28.9-1.1-43.3c-0.3-20.3-0.4-40.7,0.1-61.1C17.3,16.8,19.5,13.6,19.1,9.9z"/>
		<path class="st35" d="M70.8,136.1c1.7-1.9,4-1.9,6.2-1.9c7.9,0,15.9,0.1,23.8,0c5.9-0.1,11.1,2.4,16.5,4.1
			c7,2.3,13.5,1.5,20.2-0.7c2.9-1,6-1.6,9-2.4c3.5,1.4,6.2,0.8,8.4-2.6c3.2-4.9,8.4-5.5,13.7-5.7c21.6-0.7,43.2-1.5,64.9-1.1
			c3.6,2,0.3,4.2,0.3,6.3c-0.7,3.7-3.5,5.6-6.4,7.3c-16-0.9-31.9-2.1-47.9-1.6c-2.4,0.1-4.8-0.1-7.2,0.3c-5.3,0.9-7.8,3.8-7.8,9.3
			c0.1,19.4,0.3,38.9,1.8,58.2c0.8,10.5,1.8,20.5-0.1,31.1c-1.7,9.5,1.2,12.1,8.5,14c3.3,0.9,3.5,3.4,3.6,6.1
			c0.1,16.5,0.9,32.9,2,49.4c0.2,3.4,0.6,6.9-0.8,10.3c-1.1,1.1-2.4,1.2-3.8,1.1c-11.1-1.2-22.2-2.4-33.1,1.2
			c-1.8,0.6-3.3-0.4-4.7-1.4c-1.2-2.4-0.9-5.1-0.9-7.7c-0.1-9.9,0.3-19.8-0.2-29.7c-0.4-7.9-4.5-11.8-12.4-11.1
			c-10.4,0.9-20.7,3.1-31.3,1.3c-1.6-0.3-3.1,0.4-4.6,1c-3,0.7-5.7-0.2-8.1-1.9c-0.6-1.1-1.4-2.2-1.2-3.6c1.8-3.6,5.1-2.4,7.7-2.2
			c4.5,0.4,8.9,0.9,13.4,0.7c7.4-0.5,11.1-3.9,11.5-11.4c0.5-8.7,0.8-17.4-0.1-26.1c-1.2-11.6-0.1-23.2-0.6-34.8
			c-0.7-14.6-0.7-29.2-0.9-43.7c-0.1-5.9-2.8-8.6-9.1-9.1c-8.3-0.5-16.5,0-24.8-0.3C74,138.7,71.2,139.6,70.8,136.1z"/>
		<path class="st36" d="M367.8,23.6c1.5,0,2.9,0,4.4,0c2.5,2,4.6,3.9,4.6,7.7c0.7,25.7,1.8,51.3,2.1,77c0,3.1,0,6.3-0.7,9.3
			c-0.3,6.4-0.3,6.4-6.9,6.6c-4.1,0.1-8,1.3-12.1,1.8c-0.9,0.3-1.9,0.2-2.8,0.2c-7.7,0.4-15.4,0.3-23.1,0.1c-2.7-0.1-5,0.4-7.2,1.7
			c-10.1-0.7-20.2-0.5-30.4-0.5c-3.5-0.2-7.1-0.1-10.6,0.1c-2.6,0.2-4.1-0.4-5-2.8c-3.6-3-4-7.3-4-11.4c-0.2-26.8-1.8-53.5-1.2-80.3
			c0.1-7.2,2.7-9.6,9.9-9.3c20.8,0.9,41.6,2.4,62.5,1.5C354.2,25.1,361.1,24.9,367.8,23.6z"/>
		<path class="st28" d="M19.1,9.9c1.2,1,2.6,2.1,1.5,3.9c-2.2,3.7-1.6,7.8-1.6,11.7c0,15.5,0,31,0.1,46.4c0.1,18.4,1.6,36.8,1,55.2
			c-0.1,3.9,1.6,6.6,4.2,9.1c-1.8,2.8-3.5,2.8-5.3,0c-0.7-1-1.4-2.1-2.1-3.1c-1.5-9.6-1.2-19.3-1.5-28.9C15,84.2,15,64.3,14.9,44.4
			c-3.8-3.3-2.6-7.4-1.6-11.4c0.4-1.4,1-2.8,1.6-4.2C14.9,22.1,15.2,15.6,19.1,9.9z"/>
		<path class="st37" d="M280.1,124.8c5.1,0.3,10.4-0.9,15.4,1c-4.3,3-9.3,1.3-14,2c-1.9,0.3-4,0.2-6,0.1c-3-0.2-5.6,1-7.1,4
			c-11.1,1.8-22.3,1.6-33.5,2.3c-2.1,0.1-3.8-0.5-3.7-3.1c0.7-1.8,1.4-3.5,2.1-5.3c1.9-3.3,4.8-3.9,8.4-3.3
			C254.5,124.5,267.3,125.2,280.1,124.8z"/>
		<path class="st38" d="M14.8,28.7c0,5.2,0,10.4,0.1,15.6c-2,4.5-1.1,9.9-5.3,14.8C7.8,53.1,6.4,47.7,7,42.3
			c0.5-4.6-0.5-8.2-3.4-11.4C7.5,31.5,11.6,32.5,14.8,28.7z"/>
		<path class="st39" d="M88.4,269c0.8-0.2,1.7-0.7,2.5-0.7c11.8,0.5,23.5-2.1,35.2-2.4c9.1-0.2,12.9,3.8,13,13c0.1,12.3,0,24.7,0,37
			c3.1,5.2,3,5.8-1,9.4c0,17.2,0,34.4,0,51.6c-0.1,18.3-1.2,19.4-19.2,19.4c-25.8,0-51.6-0.1-77.4,0.1c-7.6,0-15.1-0.7-22.7-1.2
			c-3.7-0.2-6.1-2.1-7.5-5.4c-1.3-2.9-1.6-6-1.6-9.2c0-9,0-18.1,0-27.1c5.7-1.4,2.3,2.7,2.7,4.5c-0.3,0.7,0.8,0.1,0.1,0.1
			c-0.2,0-0.3-0.2-0.1-0.5c4.8-5.1,1.4-10.8,0.4-15.9c-1.2-6.1-0.9-8.9,3.8-12.8c3.2-2.6,3.3-6.7,3.9-10.4c1-5.7-0.1-11.5,1.2-17.1
			c0.7-3.1,1.6-6.5,6.2-4.1c0.8,2.2,1.2,4.5,1.1,6.9c-0.4,7.1,0.3,14.2-0.1,21.2c-0.6,11,0.4,21.9-0.8,32.9c-0.5,4.6,0.8,9.3-0.1,14
			c-0.4,1.9,1.4,4.5,4.1,5.2c2.7,1.3,5.7,1.6,8.6,1.5c12.7-0.5,25.4,1.2,38.1,1.2c11.2,0,22.4,0.2,33.5-0.3c6.4-0.2,8.5-2.7,8.6-9.8
			c0.2-16.9,0-33.7,0.1-50.6c0-2.8-0.3-5.6,1.1-8.2c6.3-7.6,5.6-16.5,4.2-25.4c-0.4-2.5-1.9-4.5-4.3-1.2c-0.6,0.8-1.3,1.1-2.2,1.3
			c-3.7,0-7.5,0.4-11.2-0.1c-0.3-0.1-0.8-0.2-0.9-0.4c-2.5-8.1-9.2-9.7-16.3-11.1C87,273.8,86.5,272.6,88.4,269z"/>
		<path class="st40" d="M26.3,298.2c-2.1,2.8-2.8,6.2-2.3,9.4c1.1,7.7-1.7,15-2.1,22.5c-0.1,2-1.3,3.3-3.4,3c-3.5-0.5-4.1,2-3.6,4.1
			c0.8,3.7,0.7,7.6,3.4,10.8c2.3,2.8,1.2,6.1-1.1,8.4c-1.8,1.8-3.4,3.4-3.2,6.1c0.1,1-0.1,2.3-1.5,2.2c-1.2-0.1-1.4-1.4-1.6-2.4
			c-0.4-2.9,0.1-5.9-1.2-8.7c0-1.4,0-2.8,0-4.3c1.4-2.7,0.8-5.5,0-8.3c0,0-0.1-0.1-0.1-0.1c1.6-21.6,0.8-43.2,1.1-64.8
			c0-2.7,0.7-5.5,1-8.2c-0.3-4.1,2.5-4.7,5.5-4.7c9.3-0.2,18.6-0.1,27.9-0.1c8.5,0,16.9-0.1,25.4,0c2.4,0.1,4.8,0,6.1,2.8
			c0.9,1.9,3.3,0.4,4.5,1.9c2.4,0.4,4.8,0.7,7.2,1.1c0.8,2,2.5,2.7,4.4,3.1c2.9,0.6,5.7,1.4,8.5,2.2c7.1,2,7.7,3,6.8,10.3
			c-0.6,1.2-1.4,1.4-2.8,1.5c-9.6,0.2-19.2,1.7-28.9,0.7c-9-0.9-18.1-1.3-27.2,0.7c-5,1.1-10.1,1.2-15-1.4c-4-2-5.1-0.7-5.7,4
			C28.1,292.7,30.4,296.4,26.3,298.2z"/>
		<path class="st41" d="M234.5,406.8c-3.1,1.2-6.4,1-9.7,1.1c-24.8,0.6-49.5-1.7-74.3-2.1c-5.2-0.6-8-3.3-8.2-8.8
			c-0.7-23.9-2.6-47.8-2.1-71.7c1-4.7,1.9-5.2,5.7-3.4c1.9,0.9,3.6,2,4.7,3.8c0.4,0.8,0.6,1.6,0.6,2.5c-0.6,17,1.7,34,0.9,51.1
			c-0.1,2.3,0,4.5,0.4,6.8c0.7,4,3,6.5,6.9,7.5c4.1,0.9,8.2,1.3,12.3,1.3c11.7,0,23.4,0,35.2,0c2,0.1,4.1-0.4,6,0.3
			c4.6,1.7,6.5-0.7,7.4-4.7c4-2.1,2.5-5.6,2.3-9c-0.5-11,0.5-22.1-0.4-33.1c-0.8-9.1,3-16.5,7-23.9c1.7-3.2,4.6-3.1,7.5-2.1
			c1.4,1.4,1.3,3.2,1.2,4.9c-0.3,14.9,1.8,29.8,1.1,44.8c-0.4,8.9,1.2,17.7,0.9,26.5C239.8,402.1,240.2,406.7,234.5,406.8z"/>
		<path class="st42" d="M149.3,326.4c-3-0.7-5.7-4.4-9.1-1c-0.7,0-1.4,0-2,0c1.2-3,1-6.2,1-9.4c10-3.5,20.3-1.9,30.5-2.1
			c2.8-0.1,5.5,0,7.7,2.1c17.2,3,34.6,0.9,51.9,1.6c2.6,0.1,5.6-1,7.4,2.2c0.3,1.5,0.3,2.8-1.3,3.5c-0.7,0.2-1.7,0.3-1.9,0.7
			c-2.8,6.5-9.2,11.5-9.3,19.1c-0.1,14-0.8,28.1,0.5,42.1c0.3,3.3,0.1,6.6-2.7,9.1c-2.8-1.3-2.3-4-2.4-6.2
			c-0.6-16.1-1.2-32.2-1.4-48.3c-0.1-8.1-2.8-10.7-10.7-12.1c-7.9-1.4-15.8-0.6-23.7-0.8c-8.8-0.2-17.6,0.5-26.3-1
			c-2-0.3-3.8-0.2-5.4,1.1C151.1,327.2,150.2,326.6,149.3,326.4z"/>
		<path class="st39" d="M9.8,341.1c1.7,2.8,2.2,5.5,0,8.3C9.8,346.6,9.8,343.8,9.8,341.1z"/>
		<path class="st43" d="M473.6,417.3c-0.7,1.7-1.3,3.5-2,5.2c-6.1,1.9-12,1.3-17.9-1.2c-2.1-0.9-4.7-0.8-7.1-0.8
			c-19.5,0-38.8-2.9-58.3-4.4c-2-0.2-3.9-1.2-5.8-1.9c-1.1,0.4-1.9,0-2.6-0.9c-2.6-4.3-1.5-9.1-1.8-13.7c-0.3-3.6-0.2-7.3-0.2-10.9
			c0-13.1,0.1-26.3-0.1-39.4c-0.1-9.7,0.2-19.3,1.8-28.9c0.7-1.6,2.2-2.5,3.2-3.7c6.3-2.6,13-3.5,19.7-4.5c5.9-0.8,6.9-2.6,7.4-8.7
			c2-23.6,0.6-47.3,1-70.9c0.1-3.6-0.2-7.3,2.4-10.4c1.7-0.4,3.3-0.6,4.5,1c0.9,4.5-0.7,8.9-0.7,13.4c0.1,22.9,0.1,45.8,0,68.7
			c0,5.7,0.5,10.9,7.1,12.7c1.3,0.4,1.9,1.5,1.6,2.9c-0.3,1.4-1.5,1.7-2.6,1.7c-2.6,0-5.2,0.6-6.7-0.1c6.8,0.4,14.7-0.5,22.6,0.2
			c5.6,0.5,11.3,1.9,16.9,0.1c2.1-0.5,3.4,1.5,5.3,1.7c3.5,1.9,7.9-1.3,11,2.2c2.9,3,3.9,6.7,3.8,10.9c-0.1,23.8,0,47.6-0.1,71.4
			C476.2,412,476.8,415.3,473.6,417.3z"/>
		<path class="st44" d="M381.5,413.1c0.3,0.4,0.7,0.7,1,1.1c0.2,2.1-1,2.9-2.8,2.7c-12.7-1.5-25.5-2.6-37.9-6
			c-0.6-0.2-1.2-0.6-1.8-1c-1.5-6.3-0.5-12.6-0.1-18.9c0.7-8.3,0.9-16.6-0.1-24.9c-0.8-6.7-0.1-13.5-0.3-20.2c-0.1-4-0.1-8-0.9-11.9
			c-0.2-2.2-0.2-4.5-0.2-6.7c-0.1-4.5,2.4-7.5,6.8-7.6c11.3-0.3,22.6,0.2,33.9-0.3c1.6-0.1,2.6,0.5,3.3,1.8
			c-3.6,22.2-2.1,44.5-1.1,66.8C380.7,396.4,380.7,404.7,381.5,413.1z"/>
		<path class="st45" d="M335.9,412.1c-2.8,2.6-6.5,2.5-9.8,2.3c-16.1-0.8-32.2-1.8-48.3-2.8c-8.9-0.5-17.8-1.1-26.7-1.7
			c-6.1-1.7-7.8-6.3-7.8-12c0-8-0.2-16,0-24c0.5-16.2-1-32.3-1.3-48.5c0-2.1-0.2-4.2,0.5-6.2c2-2.2,4.7-1.6,7.2-1.7
			c7.1-0.2,14.3,0.5,21.3-1.4c6,1.4,11.9-0.4,17.8-0.7c12.6,5.3,25.9,2.3,38.8,3.1c3.2,0.2,6.6-0.4,9.2,2.4
			c1.2,3.4,1.8,6.9,1.8,10.5c-0.1,23.6,0,47.1,0,70.7C338.5,405.7,338.4,409.2,335.9,412.1z"/>
		<path class="st46" d="M243.7,320.3c1.9,10.1,1.5,20.4,1.9,30.6c0.6,14.8,0.3,29.6,0.2,44.3c0,5.6,0.9,10.7,5.2,14.7
			c-5.5-1-11-2.1-16.5-3.1c3.4-3.9,3.2-8.7,2.8-13.3c-0.6-5.5-0.6-11.1-0.7-16.6c-0.4-17.9-0.8-35.7-1.2-53.6
			c0.1-0.9,0.1-1.9,0.2-2.8C238.4,316.9,240.5,316.9,243.7,320.3z"/>
		<path class="st47" d="M335.9,412.1c0.1-22.7,0.4-45.4-0.4-68.1c-0.3-7.2,1.5-14.5-0.6-21.7c3-3.2,4.4-3,5.8,0.7
			c1.4,3.8,0.3,7.8,1.3,11.6c0.4,15.6,0.6,31.2,1.1,46.8c0.2,7.3-1.5,14.5-0.5,21.8c0.3,2.5-1.1,4.7-2.6,6.7
			C338.7,410.6,337.3,411.4,335.9,412.1z"/>
		<path class="st48" d="M436.2,15.2c-0.1,3.1,1.2,4.3,4.6,4.7c8.5,1.2,17.1,1.4,25.6,1.5c13.5,0,26.9,0,40.4-0.1
			c5,0.4,6.5,4,6.6,8.2c0.3,8.7,0.6,17.4-0.1,26c-1.5,17.7-0.7,35.3-0.6,53c-0.1,2.8,0.8,3.8,4,3.6c7.9-0.4,15.7-0.4,23.6-0.5
			c3.4,0,6.6,1.5,10,0.6c2.4,0.4,4.8,0.7,7.3,1.1c1.6,1.7,5.1,2.6,2.9,6.2c-1.1,1.9-2.8,2-4.8,2c-17.7-0.1-35.3,0-52.9,2.5
			c-6.8,1-13.7,0-20.6,0.3c-3.6,0.1-7.2,0.1-10.8,0.9c-5.3-0.8-10.6-1-16-1.5c-0.9-0.1-1.9,0-2.8-0.2c-9.7-0.2-19.5-2.6-29.2-0.4
			c-0.9,0.1-1.9,0.1-2.8,0.1c-2.4-0.1-4.8,0.1-7-1.3c-4.5-2.8-4.2-7.6-4.6-12c-0.6-7.7,1.1-15.2,1-22.9c-0.2-17.7,0.1-35.5-0.1-53.2
			c-0.1-5.4,1.3-9.1,6.8-10.4c1.7,0,3.4-0.1,5.1,0.1C428.6,24.2,434.1,22.6,436.2,15.2z"/>
		<path class="st49" d="M621.8,26.6c0.7,0,1.4,0,2,0c3.8,1,4,4.4,4,7.1c-0.5,19.1,0.4,38.1,0.2,57.2c0,2.7,0.4,5.5-3,6.7
			c-8.6-0.5-17.3-0.3-25.9,1c-1.1,0.2-2.3,0.5-3.5,0.6c-9.5,0.9-18.9,1.3-28.4,1.6c-6.1,0.2-7.2-1.4-7.8-7.9
			c-0.9-11.2,0.3-22.4-0.7-33.5c-0.5-5.3-0.5-10.7-0.6-16c0-1.3-0.2-2.7,0.2-3.9c0.6-1.9,0.4-4.9,3.7-4.6c2.5,0.2,3.8,1.9,4.2,4.3
			c0.2,1.2,0.2,2.4,0.1,3.6c-0.1,2.8,1.6,2,3.1,1.5c4.4,0.4,6.3,3.2,6.3,7.3c0.1,9.9,0.1,19.7,0,29.6c0,1.2-0.2,2.4-0.6,3.5
			c-2.4,5.9-2.2,6.1,4.2,5.8c3.2-0.7,6.5-0.5,9.8-0.7c1.6-0.1,3.2-0.3,4.7-0.8c1.1-0.5,3.2,0.6,3.2-1.5c0-1.6-1.7-3-3-2.8
			c-6.4,0.8-5.9-3.4-6-7.6c-0.1-3-1.5-6.1,0.9-9c1-1.2,1.9-1.9,3.3-2c5.4,0.2,6.5,5.5,9.7,8.3c1.5,0.4,2.9,0.9,3.9-1.1
			c1.5-3.2,0.4-15.9-1.9-18.7c-0.7-0.9-1.5-1.4-2.6-0.9c-2.5,2.1-3.1,5.8-6.3,7.2c-7-1.5-9.4-5.2-7.5-11.7c0.1-0.5,0.5-1.3,0.6-1.3
			c5.4-0.5,7-8,13-7.2c5.5-0.3,9.3,2.2,11.6,7.2c0.5,1.1,0.7,2.9,2.7,2c2.5-2.5,4-8.6,2.5-11.7c-1.7-3.4-4.6-4.3-8.2-3.7
			c-0.6,0.1-1.6,0-2.1,0c-2.8,0.3-3.8-1.4-4.2-3.6c-0.5-2.6,1.4-3.1,3.3-3.5c3.2-0.8,6.5-0.2,9.7-0.4C618.1,27,620,27.6,621.8,26.6z
			"/>
		<path class="st50" d="M550.4,112.2c1.5,1.4,0.9,2.1-0.8,2.1c-11.7,0-23.4,0-35.1-0.1c-2.6,0-4.2-1.4-4.4-4.1
			c1.3-1.8,3.2-2.4,5.4-2.6c4.1-0.2,8.2-1.2,12.2-2c2.7-0.6,4.6-2,4.2-5c-2.3-16.2,1.3-32.3,0.3-48.4c-0.4-6.6,0.5-13.2,1.2-19.8
			c0.5-5.4-2.3-9.1-4.8-13.1c6.9-1.4,13.8-0.2,20.8,0.1c-1.7,3.5-2.1,7.3-2.1,11.2c0.4,23.4-0.8,46.9,1,70.3
			C548.5,104.6,545.7,109.2,550.4,112.2z"/>
		<path class="st51" d="M621.8,26.6c-3.8,1.7-7.8,0.6-11.7,1.2c-1.7,0.2-3.8,0.4-3.7,2.7c0.1,2,2.1,2,3.6,2.2
			c9.3,1.5,10.5,3,9.7,12.6c-0.2,2.8-0.6,5.5-1,8.2c-0.2,1.8-0.5,3.6-3,3.3c-1.7-3-1.6-6.2-1.4-9.4c0.3-5.5-1.3-7.6-6.5-7.7
			c-11-0.2-21.9-0.5-32.9,1c-3.6,0.5-4.3,2.9-4.8,5.7c-2.7,2.2-5,0.9-5.8-3c-0.4-2,0.9-5.7-1.9-5.6c-2.9,0.2-2.7,4.1-2.5,6.5
			c1.5,14.7,0.8,29.5,0.6,44.2c-0.1,8.8,2.7,11.1,11.2,10.6c5.7-0.3,11.4-0.4,17-0.6c3.6-0.1,7.3-0.3,10.1-3.1
			c1.3-1.3,2.7-1.2,4.3-0.8c3,0.9,6.1,0.7,9.2,0.7c2.1,0,4.2-0.2,4.9-2.8c0.3-1.2,1-2.4,2.4-2.4c1.8,0,2,1.6,2.4,2.9
			c0.5,1.6,1.6,2.6,3,3.4c0.8,0.7,0.6,1.4,0,2c-18.9,2-37.8,2.2-56.8,3.1c-9.3,0.4-10.5-1.2-10.6-10.3c-0.3-17.2-0.8-34.4-1-51.6
			c-0.1-9.2,1.8-10.9,10.9-11.1C585.6,28.3,603.6,25.9,621.8,26.6z"/>
		<path class="st52" d="M559.6,118.4c-0.7-1.7-1.3-3.4-2-5.1c2-0.1,4.1-0.1,6.1-0.2c7.4,0.4,6.8,0.3,6.5,7.7
			c-0.5,14.2-0.2,28.5-0.3,42.7c-0.5,12.7,0.6,25.5-0.7,38.2c-0.2,1.8,0.5,3.7,0.8,5.6c-1.4,1.9-3.4,2.6-5.4,1.5
			c-3-1.6-1.7-4.8-2.2-7.4c-2.2-1.4-2.2-3.7-2.3-6c-1.3-23.9-1.1-47.8-1.1-71.8C559.1,121.8,559.4,120.1,559.6,118.4z"/>
		<path class="st53" d="M625,98.6c0-0.7,0-1.4,0-2c2.9-4.1,2-8.7,1.8-13.2c-0.7-15.8-0.7-31.6-0.6-47.5c0-3.4-0.2-6.6-2.4-9.4
			c5.3,0.2,5.1,4.3,5.2,7.8c0.2,11.4,0.1,22.9,0.1,34.3c0,7.6,0,15.2,0,22.9C629,94.7,628.4,97.5,625,98.6z"/>
		<path class="st54" d="M473.6,417.3c0-26.9,0-53.9,0.1-80.8c0-3.2-1.1-5.7-3.1-8c-2.6-2.9-6.2-1.2-9.3-2c-1.7,0-3.4-0.1-5.1-0.1
			c-1.6-2.6,0-3.8,2.2-4.5c4.6-1.5,9.3-2.7,14.1-3c7.2-0.4,14.4-0.7,21.5-1.9c2.5-0.4,4.9,0.2,5.2,3.5c0.3,23.8-0.2,47.7,0.2,71.5
			c0.1,2.9-0.7,5.5-3.9,6.5c0,0-0.1,0-0.1,0c-5.5,5.6-10.9,11.2-16.6,16.7C477.4,416.4,476.5,419.6,473.6,417.3z"/>
		<path class="st55" d="M578.3,305.5c4.5-0.7,9,1.7,13.5,0c2.1,1.7,2.2,2.7,0.4,4c-1,0.8-2.2,0.9-3.3,1.3c-4.5,1.7-9.5,2.3-12.1,7.3
			c-7.3-0.3-14.5,0.9-21.7,1.2c-10.6-1.4-21.3-1-32-0.5c-6.5,0.3-9.3,3.4-9.4,10.1c-0.3,15.5-0.3,30.9,0,46.4
			c0.2,7.3,2.8,9.9,10.4,9.9c12.2,0.1,24.4-1,36.6-1.5c1.4,0.1,2.3,1.1,3.5,1.6c1.1,0.7,2.5,1,3,2.4c0.6,12.6-1,10.9-9.8,10.6
			c-1.7-0.1-3.5,0.1-4.9-1.1c-12.3,0.2-24.7-0.6-37,0.9c-4.2,0.5-8.6,0.6-12.7-0.9c-3.2-0.3-3.4-2.4-3.5-5.1
			c-0.5-15.1,0.3-30.3-0.4-45.4c-0.4-8.3-0.2-16.7-0.3-25c-0.3-2.3,0.2-4,2.8-4.7c4.2-1.1,6.5-3.8,7.3-8.4c0.7-4.5,2.4-4.9,9.9-4.1
			c-1.9-0.4-3.9-0.1-5.8-0.6c-3.8-0.8-4.5-3-2.3-6.4c7.5-0.1,14.7,2.1,22.1,2.3c7.1,0.2,14.1,1.7,21.2,2.2
			C561.6,305.9,569.8,307,578.3,305.5z"/>
		<path class="st56" d="M577.3,316c-0.2-4.5,3.8-4.6,6.4-6.1c2.6-1.6,6.6-0.6,8.1-4.3c-0.4-1.1-1.4-2.3,0.4-3
			c0.9-0.3,2.1-0.5,2.9-0.1c1.2,0.5,0.4,1.7,0.3,2.7c-0.2,2.2-0.4,4.4-0.5,6.6c0.3,26.4,0.6,52.7,1.1,79.1c0.2,9.5,2,10.7,14.3,10.9
			c-1.3,1.3-2.9,1.9-4.7,1.9c-11.2,0.1-22.3,0.5-33.3-2.2c-4.6-1.1-9.5-1.2-14.3-1.7c-2.1-0.2-4.1-0.6-5.6-2.2c0.3,0,0.7,0,1,0
			c9.8-0.1,9.8-0.1,12.4-9.4c1.5-2.2,2.8-4.6,5.7-5.2c8.3,0.2,9.8-1.4,9.5-10c-0.5-11.4,1.5-22.8,1-34.3
			C581.6,330.7,583.1,322.6,577.3,316z"/>
		<path class="st57" d="M499.6,320.1c0.3,23.1,0.7,46.3,1,69.4c0,2.8,0.3,5.6,2.1,7.9c-2.3,1.2-4.8,1.1-7.4,1
			c1.9-3.1,2.3-6.4,2.3-10c0-22.7,0-45.5,0.1-68.2C498.3,319.5,499,319.5,499.6,320.1z"/>
		<path class="st58" d="M581.4,127.9c1.7-0.3,3.3-0.9,5-0.9c19.7-0.4,39.4-0.7,59.1-1c4.8,1.3,6.4,4.6,6.4,9.4
			c-0.1,18.1,0,36.2-0.1,54.3c-0.1,7.5-1.9,9.4-9.2,9.3c-18.3-0.2-36.6,0.3-54.8,1.4c-5.4,0.3-8.1-2.5-8.2-8.9
			c-0.2-12.4-0.1-24.7-0.1-37.1c0-5.7,0.2-11.5,0.3-17.2C579.8,134,580.2,130.9,581.4,127.9z"/>
		<path class="st59" d="M644.5,211.6c-4.3,2.6-4,6.9-4,11.1c-0.1,23.6,0.1,47.1-0.2,70.7c-0.1,5.2,0.1,9.9,3.3,14.2
			c-12-2.1-24.4-0.7-36.2-4.8c-2.9-1-4.2-1.3-3.3-5.1c2.2-8.7,0.9-17.5-1.4-26.1c-1-3.6-2.5-7.5,0-11.2c0.1-0.1,0.3-0.3,0.2-0.4
			c-1.8-6.6,1-13.3-0.2-19.9c-0.2-1-0.9-2.2-0.6-3c2.5-6.3,0.7-12.5,0-18.8c-0.3-2.9,2.2-5,3.1-7.6c14.6-1.7,29.2-0.8,43.9-0.5
			C647.5,210.5,646,211,644.5,211.6z"/>
		<path class="st60" d="M559.6,118.4c1.6,2,2,4.3,2.1,6.8c0.3,25.4,0.6,50.7,0.8,76.1c-1.6,3.9,0.4,8.7-2.9,12.2
			c-0.2,0.6-0.5,1.1-1.1,1.4c-5.6,2-11.6,1.1-17.3,2.2c-4,0.8-8,1.4-12,1.1c-7.5,0.4-15.1-0.7-22.7,0.5c-4.8,2-9.8,1.6-14.7,1.5
			c-7.7-0.2-15.4,0.8-23.1-0.8c-4.5-5-6.2-10.8-6-17.6c0.3-11.9-0.1-23.9,0.2-35.9c0.2-8.5-0.9-16.9-1.1-25.4c0-1.7,0-3.5,0-5.2
			c0.1-9.9,1-11.1,10-13.8C501.1,122,530.3,118,559.6,118.4z"/>
		<path class="st61" d="M558.6,213.7c0.3,0,0.6-0.1,1-0.1c7.8-0.8,14.9,2.6,22.3,3.6c3.1,0.4,3.9,2.9,2.2,5.5
			c-5.1,8.4-5.7,16.6,0.8,24.6c1.2,1.5,0.7,2.7-0.8,4c-4,3.5-5.2,13-2.5,17.6c0.9,1.6,2.3,2.1,3.9,1.9c4.5-0.6,6.6,2,6.8,5.9
			c0.4,6.3,1.5,12.7-0.5,19.1c-1.2,3.7-3,5.7-6.5,6.5c-4.9,1.1-9.9,1.5-14.9,1c-2.5-0.3-4.8-0.5-6.9,1.3c-4.8,1.7-7.2,0.6-7.6-4
			c-0.7-7.6-1.9-15.2,0.1-22.8c1-3.7,0.5-7.6,0-11.4c-2.2-15.7-1.8-31.5-0.2-47.3C556.2,216.8,557,215,558.6,213.7z"/>
		<path class="st62" d="M558.6,213.7c-0.5,11.1-1.4,22.2-1.1,33.3c0.2,6.6-0.1,13.2,1.6,19.7c0.9,3.4,1,7,0.1,10.3
			c-2,7.2-0.9,14.5-0.6,21.7c0.1,3.5,1.4,5.7,5.2,5.7c4.7,1.7,9.7,0.8,14.5,1.1c-8.4,1.6-16.7,2-24.8-1c-3.9-2-8-3.5-11.3-6.5
			c-6.2-5.7-9.1-12.5-7.4-21c1.2-6.1,1.2-12.1-0.6-18c-1.1-3.6,0.6-6.8,1.2-10.1c1.7-9.9,3.6-19.8,4.1-29.9c0.1-1.6,0.6-3,1.5-4.3
			C546.8,213.4,552.7,213.5,558.6,213.7z"/>
		<path class="st61" d="M582.9,234.6c0.2-0.8,0.4-2.2,0.9-3.5c0.9-2,1.8-5.1,4.2-4.5c2.4,0.6,0.2,3.3,0.5,5c0.4,2.6,0.8,5.1,1.1,7.7
			c0.1,1.3,0.7,3-1,3.7c-1.8,0.7-2.9-0.7-3.8-2C583.5,239.4,583.1,237.3,582.9,234.6z"/>
		<path class="st61" d="M583.4,261.5c0.5-1.9-0.6-4.6,2-4.8c2.2-0.1,2.8,2.3,2.8,4.2c0,2.1-0.5,4.6-3,4.6
			C582.9,265.5,584,262.8,583.4,261.5z"/>
		<path class="st63" d="M528.5,19.2c6.9,0.5,7.4,0.8,7.2,7.7c-0.5,19.6-1.4,39.1-2,58.7c-0.2,6.3-0.3,12.5,2.7,18.4
			c1.2,2.3,0.1,3.8-2.3,3.9c-8.1,0.2-15.9,3.2-24.1,2.2c-0.6-25.5,0.6-50.9,1-76.4c0.1-4.7-0.6-9-4.2-12.3
			C513.8,18.1,521.3,19.8,528.5,19.2z"/>
		<path class="st0" d="M416.7,23.4c-3.5,3-4.2,6.8-4.2,11.3c0.1,19.5,0,39-0.1,58.5c0,6.9-1.5,13.9-0.3,20.8
			c0.4,2.4,0.7,4.8,2.6,6.7c0,2.3-1.4,2.1-3.2,2.3c-9.7,1.3-19.4,0.4-29.1,0c-3.3-0.1-6.6-1.1-7.2-5.4c2-9.4,1.4-19,0.7-28.5
			c-1.2-16.1-0.3-32.2-1.5-48.3c-0.4-5.9-0.1-11.8-2.3-17.4C387.1,23.5,401.9,23.5,416.7,23.4z"/>
		<path class="st64" d="M72,266c-17.7-0.1-35.3-0.1-53-0.2c-2.7,0-5.1,0.6-7.2,2.2c-0.9-0.8-1.8-1.8-2.9-2.2
			c-9.6-3.4-10.6-10.8-10.9-20c-0.3-9.7-0.3-19.4,0.2-29.1c0-23,0-46.1,0.1-69.1c0-9.7,1.6-11.3,11-11.3c3.3,0,6.5,0,9.8-0.1
			c1.8,0,3.5,0,5.3,0c15.5,1,30.9,0.6,46.4-0.1c10.2,0.1,20.4,0.1,30.5,0.2c8.9,0.1,11.5,3.5,11.6,12.6c0.3,16.5,0.1,33,0.9,49.5
			c0.9,18.9,0.5,37.8,0.3,56.7c-0.1,7.4-4.5,11.2-11.8,11.7c-7.4,0.5-14.8-0.9-22.2-1C77.4,268.4,74.7,266.5,72,266z"/>
		<path class="st65" d="M81.4,30.8c-5.8,7-8.1,15.7-11.3,23.9C63.9,70.2,56.4,85,49.1,100c-2,4.2-5.7,3.8-9.3,3.8
			c-0.7-0.4-2-1.1-1.7-1.7c1.8-4.5-1.6-9.2,0.6-13.6c1-2.1-1.3-3.4-0.9-5.4c1.1-5.9,0.6-11.9,1.3-17.9c0.5-4.3,0.1-8.8-0.1-13.1
			c-0.3-5,0.3-9.9,0.2-14.8c-0.1-2.8-0.3-5.7,0.3-8.6c1-5.6,4.2-8.8,9.7-8c2.9,0.5,5.9,0.5,8.8,0.3c6.5-0.4,13-0.7,19.6-0.1
			c16.6,1.5,33.3,1.1,49.9,1.1c1.8,0,4.1-0.2,5.5,1.7c-0.3,26.9-0.7,53.8-0.8,80.7c0,5-2.1,4.5-5.2,2.7c-4.9-5.3-7.1-12-10.1-18.4
			c-2.9-6.2-5.8-12.3-8-18.8c-2.1-5.9-5.2-11.4-7.4-17.2c-1.9-5-4.2-9.7-6.3-14.6C91.9,30.8,89,29.4,81.4,30.8z"/>
		<path class="st65" d="M55.9,118.5c-5.1,0-8.7,0-12.3,0c-2,0-4-0.2-4.1-2.8c-0.1-3,2.1-3.4,4.2-3.3c7.8,0.4,15.5-1.4,23.2-0.3
			c2.6,0.3,6.3,1.2,6.9-2.5c0.6-3.3-1.9-5.3-5.4-5.7c-2.5-0.3-3.4-1.5-3.1-4.3c0.8-7.7,3-10.5,10.4-11.9c1.4-0.3,2.7-0.5,4.1-0.7
			c8.3-1.3,13.6,2.3,15.2,10.6c0.8,3.9-1.1,6.4-4.8,7.4c-2,0.5-4.5,0.8-4.3,3.6c0.3,3.1,3.1,2.8,5.3,2.9c10.3,0.3,20.6,1.9,31,1.1
			c1.4-0.1,2.8,0.1,4.1,0.4c2.3,0.5,5.7-0.2,5.4,3.9c-0.3,4.4-3.7,4.2-6.6,3.9c-16.5-1.8-33.1-0.7-49.6-0.9
			C68.5,119.6,61.6,117.7,55.9,118.5z"/>
		<path class="st66" d="M132.8,23.5c-14.8-0.1-29.6,0.6-44.3-0.4C76.3,22.3,64.2,22,52,22.3c-8.5,0.2-11.6,2.7-11.4,11.4
			c0.3,10.2-0.1,20.3,0.1,30.5c0.1,4.5,0.1,9.7-1.1,14.5c-0.6,2.6,1.6,7.5,1.3,7.9c-3.1,4.8,1.3,10.1-1.3,14.6
			c-0.4,0.6,0,1.7,0.1,2.5c-4.4-2.8-4-7.7-3.5-11.6c1-6.5,0.2-13,0.6-19.5c0.8-13.8,0.4-27.6,0.5-41.4c0-2.8,0.9-5.4,1.8-8.1
			c1.2-3.5,3.7-4.8,7.1-4.7c26.3,1.1,52.6,1.9,79,1.8C128.2,20.4,131.3,20,132.8,23.5z"/>
		<path class="st67" d="M81.4,30.8c7.3-2.2,12.6,0.6,16,7.4c4.5,8.9,7.7,18.3,12.3,27.2c3,5.7,3.8,12.4,6.9,18.2
			c3.9,7.5,6.9,15.5,10.3,23.3c-7.3-3.1-8.2-10.7-11.3-16.6c-8.7-16.9-14-35.4-22.4-52.5C90.5,32.7,87.2,29.9,81.4,30.8z"/>
		<path class="st68" d="M77.4,80.1c-2.6,0.6-4.2,0.4-2.4-3.3c1.1-2.3,1.2-5,1.8-7.6c0.4-1.8,1.5-3.3,3.3-3.7
			c2.2-0.4,2.7,1.6,3.5,3.2c0.1,0.2,0.2,0.3,0.2,0.5C88,77.8,87,79.6,77.4,80.1z"/>
		<path class="st69" d="M342.1,334.6c-0.3-2-0.8-4.1-1-6.1c-0.4-3.8-2-6.2-6.1-6.3c-6.6-1.9-13.4-0.8-20.1-1
			c-5.7-0.2-11.4-0.1-17.1,0c-3.9,0.1-7.1-1-9.5-4.2c-3.8-1.3-2.5-4.6-2.5-7.1c-0.1-21.2-0.1-42.4-0.1-63.6c0-2.1,0-4.2,0-6.3
			c-0.2-9.5-2.5-11.6-11.9-11c-0.9,0.1-1.7,0.2-2.6,0.2c-9.7-0.6-19.4-0.2-29.1-0.6c-3.9-0.1-8.3,0-11-4c-2.1-5.1-0.9-10.5-1.2-15.8
			c0.3-1.9,1-3.8-0.1-5.6c0.4-17-0.2-34-0.8-50.9c-0.2-5.1-1.9-9.9-1.7-14.9c1.4-2.1,2.7-4.2,4.1-6.2c6.8,0.7,13.6,0.1,20.4-0.4
			c5.3-0.3,10.6-0.7,15.9-0.7c3-2.9,6.7-1.8,10.2-2.1c6.4-0.4,12.8,0,19.2,0.5c2.2,0.2,4.5,0.3,6.6,0.8c1.5,0.4,3.4,0.6,3.5,2.5
			c0,2,0.4,4.4-1.7,5.9c-3.2,2.2-6.2,5-10.6,4.4c-13.4,1.7-26.8,0.9-40.2,1.1c-10.1,0.2-12.6,2.3-12.2,12.2
			c0.6,16.3,1.4,32.6,2.2,48.9c0.3,5.7,3,8.3,8.6,9.4c1.9,0.4,3.8,0.6,5.7,0.4c17.7-1.6,35.5-0.5,53.2-1.1c4.4,0.3,5.3-3,6.2-6.1
			c0.7-2.2,0.7-4.5,0.2-6.7c-0.3-1.4-0.5-2.7-0.5-4.1c-0.1-4.3,2.4-9.3,5.3-9.1c3.9,0.2,5.2,3.8,6,7.2c0,1.1,0,2.3,0.1,3.4
			c-0.3,3.6,0.7,7,1,10.5c-0.1,2.6,0,5.2-0.1,7.7c-3.1,6.6-2.1,8.5,5,8.8c4.3,0.2,8.6,1.3,12.8,1.1c5.3-0.3,10.6,0.2,15.8-0.6
			c4.8-0.7,9.6-0.6,14.4-0.3c4.8,0.3,9.3,6.5,10,13.3c0.1,23.8,0,47.6,0.1,71.3c0,3.7-0.2,7.3-3.7,9.7c-0.7,0.7-1.3,1.4-2,2.1
			c-10,1.8-20.1,0.8-30.2,0.9c-10.1,0.1-10.1,0-10.2,10.4C342.1,333.2,342.1,333.9,342.1,334.6z"/>
		<path class="st37" d="M227.2,137.4c3,2.1,3.9,5.2,4,8.6c0.5,18.2,1,36.4,1.5,54.6c0,0.9-0.2,1.7-0.4,2.6c-1.5,2.3-3.5,3.7-6.4,3.7
			c-8.1-0.1-16.1,0.6-24,1.9c-0.5,0.1-1.1,0-1.4-0.1c-7.8-3.5-11.5,2.5-15.8,7c-2,2.1-3.2,4.9-6,6.4c-3.2,1.7-4.9,4.2-2,7.7
			c0.5,7.1,0.1,14.2,1.1,21.3c0.3,2,0.7,4.7-2.5,5.4c-1-2.7-2.8-4.2-5.8-4.3c-4.5-0.2-6.4-2.9-6.4-7.2c-0.1-6.6-0.6-13.2,2.2-19.5
			c1.1-2.4,1.3-5.2,0.3-7.7c-3.5-9.2-2.7-18.7-2.7-28.3c-0.1-13.5-0.5-27.1-1.4-40.6c-0.6-9.4,2.4-13.5,11.7-13.6
			C191.1,135.1,209.2,134.5,227.2,137.4z"/>
		<path class="st70" d="M175.3,256.5c-0.5-9.1-1.3-18.1-0.9-27.3c-0.4-4.4,2.3-7.6,7.6-7.6c7,0,13.9,0.4,20.7,2.1c0.3,0.1,0.6,0,1,0
			c2.6,2.8,5.5,5,8.4,7.3c2.6,2,4.7,4.3,2.7,8c-4.4,2.3-9.1,1.1-13.7,1.2c-14,0.2-15.7,2.4-14.3,16.3c1.1,11.4,0.8,22.9,1.6,34.3
			c0.2,2.9-0.1,5.9,0.3,8.9c0.7,5.2,2.6,7.3,7.6,8.5c3.9,0.9,7.9,1.5,11.8,0.9c11.3-1.8,22.7-0.1,34-0.8c5-0.3,9.9-0.7,14.6-2.7
			c3.2,0.2,3.9-2.3,3.7-4.5c-2-18.5-1.8-37.1-2.4-55.7c-0.3-10,1.8-10.8,13.9-9.7c1.2,1,1.3,2.5,1.3,3.8c-0.2,8,1.3,15.9,1.2,23.9
			c-0.1,16,1.7,31.9,1,47.9c-0.1,3.3-0.5,6.2-3.7,7.8c-9.2,2.2-18.6,0.4-27.9,1.2c-2.7,0.1-5.5,0.1-8.2,0.2
			c-16.3-0.1-32.7-0.2-49-0.3c-3.6,0-7.4,0.1-9.2-4.2C176.7,296.1,176,276.3,175.3,256.5z"/>
		<path class="st39" d="M72,266c2.7,0,5.4,0,8.2-0.1c0.3,0.7,0.7,1.3,1,2C77.7,269,74.7,268.2,72,266z"/>
		<path class="st71" d="M326.8,125.8c0.5-2.5,2.6-1.9,4.1-1.9c8.6-0.1,17.1-0.1,25.7-0.1c2.8,5.1,1.7,10.7,1.7,16.1
			c0.1,18.1,0.1,36.3,0.7,54.4c0.2,6.8-0.3,13.7,0.3,20.6c0.3,4-3,6-6.8,6.3c-4.9,0.4-9.8-0.9-14.7-0.7c-2.5,0.1-5.8,2.5-7.4-1.7
			c-1.4-13.2-0.7-26.6-1.8-39.8c-1.2-14,0.4-27.9-1.1-41.9C327.1,133.3,325.5,129.6,326.8,125.8z"/>
		<path class="st72" d="M289.4,113.3c-3-3.1-4.1-7-4.1-11.3c0-6.3,0-12.7-0.1-19c-1.1-10.9-0.2-21.8-0.5-32.7c-0.1-2.1,0-4.2,0-6.2
			c-0.1-3.8,1.8-5.9,5.6-5.9c21.8,0.1,43.6-0.5,65.4,0.3c0.9,0.2,1.9,0.2,2.7,0.9c1,5.5,3.3,10.7,2.6,16.5c-0.4,3.3,0.5,6.5,0.2,9.8
			c-1.1,1.7-2.9,2.9-3.6,5c-1.2,3.1-4.1,2.4-6.6,2c-2.7-0.4-2.2-2.6-2.2-4.4c0-2.2,0.2-4.5,0.8-6.7c1.6-5.3-2.2-9.6-2.9-14.5
			c-0.3-2.1-3.7-1.2-5.3-1c-10.6,1.5-21.1,1-31.7,0.3c-2.9-0.2-6.9-0.8-9.3,2.5c0,0.9-0.5,1.9,0.2,2.5c4.5,3.8,3.7,9,3.7,14
			c0.1,5.7,0.2,11.4,0.6,17.2c0.4,6.1-0.6,12.1-3.3,17.6c1.9,5.4,6.9,2.6,10.3,4c2.9,1.1,6.1-0.6,9.2-0.7c8.5-0.1,17-0.6,25.4,0.3
			c1.1,0.1,2,0.5,2.6-0.7c0.4-0.9-0.2-1.7-0.9-2.1c-1-0.7-1.9-1.5-1.8-2.9c1.1-5.6-0.8-11.3,0.4-16.9c0.6-2.7,2.6-3.9,5-3.4
			c2.6,0.5,4.9,2.6,4.8,5.2c-0.6,8.3,0.8,16.6-0.8,24.9c-0.5,2.4-1.8,3.2-4.3,3.6c-2.8,0.4-5.6,0.9-8.4,0.9
			c-13.4-0.2-26.8,1.1-40.1-0.1C298.3,111.7,294,114.2,289.4,113.3z"/>
		<path class="st73" d="M289.4,113.3c8.5-2.2,16.9-1.9,25.6-1.4c10.6,0.5,21.3-0.6,32-1.2c4.2-0.2,6.3-2.4,7-6.8
			c1-6.3,0.4-12.5,0.4-18.8c0-4.3-2-5.1-6-3.1c-2.1,1.6-2.6,4-3.4,6.3c-3.3,9.6-8,12.7-18,12c-3.1-0.2-6.2,0.6-9.3-0.1
			c-3.1-0.7-4.8-2.6-5-5.8c-0.2-4.9-0.3-9.7,0-14.6c0.4-4.7,3.1-6.1,7.6-4.3c2.1,0.8,4.1,1.8,6,3c1.4,0.9,3,1.6,4-0.3
			c1.1-2.1,1.3-4.5-0.2-6.4c-1.4-1.9-2.8-0.2-3.8,0.8c-3.1,3.4-7.2,2.8-10.5,1.6c-3.2-1.2-3.2-5-3.2-8.1c0-3.5-0.2-7,0.1-10.4
			c0.3-3.2,1.8-4.7,5.3-5c5.9-0.5,11.7-1.3,17.4,1.2c4,1.8,7.4,4.3,10,8.2c2.2-6.2,0-9.6-5.8-9.7c-12.7-0.3-25.3,0.4-38,0.5
			c-2.7,0-4.4-0.6-5.1-3.4c4.1-3.5,9.2-2.6,13.8-2.5c10.3,0.4,20.6,0.8,30.9-0.4c6.6-0.8,10.1,2.3,10.4,9c0.1,3.4-0.3,6.9-0.5,10.4
			c-0.1,2-1.3,4.4,1.1,5.6c2.5,1.3,3.6-1,5-2.5c0.7-0.8,1.6-1.3,2.4-1.9c2.7,3.2,1.2,6.9,1.3,10.4c0.4,10-0.7,20-0.3,30.1
			c0.1,2.4-0.5,4.6-3.1,5.6c-2.6,1.4-5.4,2-8.4,2.1c-18.9,0.4-37.9-0.8-56.8,0.7C291.4,114.1,290.4,113.6,289.4,113.3z"/>
		<path class="st74" d="M331.7,217.6c0.5,0.4,1.1,1.3,1.6,1.3c6.7-0.1,13.3-0.1,20-0.6c3.3-0.2,4.4-3,4.4-6.1
			c0-6.2,0.4-12.5-0.1-18.7c-1.8-23.2-0.5-46.5-0.9-69.7c0.7,0,1.4,0,2.1,0c1.1,0.7,2.3,1.2,2.8,2.5c2.2,3.1,1.8,6.6,1.8,10
			c-0.3,19.8,0.3,39.6,0.1,59.5c-0.1,7.7,0.2,15.3,0.9,22.9c0.6,7-0.7,6.9-7.5,6.9c-7.6,0-15.2-0.9-22.8-1.1
			c-2.9-0.1-5.6-0.6-5.3-4.6C329.4,218.8,329.8,217.2,331.7,217.6z"/>
		<path class="st75" d="M331.7,217.6c-0.3,0.7-0.6,1.5-0.9,2.2c-3.9,0.2-1.5-2.7-2.1-4.2c0-2.8-0.1-5.6-0.1-8.4
			c-1-3.1,0-6.3-0.9-9.4c0-1,0-2.1-0.1-3.1c-1-3.8-2.6-7.5-2.5-11.5c0.3-11.3-1.2-22.5-1.2-33.8c-0.1-14.2-1.8-18.2-17.1-19.3
			c-8-0.6-16-1-23.9,0.4c-1.7,0.3-3.4,0.6-4.9-0.6c-3.5,0-6.9,0-10.4,0c0.5-4.4,4.2-3.7,6.8-3.9c7-0.4,14.1-0.2,21.2-0.3
			c10.4,0,20.9,0,31.3-0.1c1.9,1.6,1.8,4,2.1,6.2c1.7,16.6,0.4,33.2,1.7,49.8C331.5,193.7,331.4,205.7,331.7,217.6z"/>
		<path class="st76" d="M359.8,125.9c-0.4-0.7-0.7-1.4-1.1-2.1c3.7-0.4,7.4-1.1,11.1-1c3.9,0.1,5.4-1.5,5.5-5.2
			c1,0.7,1.9,1.8,2.9,1.9c12.2,1.2,24.3,3.5,36.5,1.1c2.1,0.4,4.2,0.7,6.2,1.1c7-0.3,14,0.4,20.9-0.6c3.7,0.2,7.4-0.6,11.1,0.5
			c0.7,0,1.4,0.1,2.2,0.1c0.8,0.8,1,1.6,0.5,2.7c-2.7,2.9-5.9,3.3-9.9,3.2c-14.2-0.3-28.5-0.6-42.7,0.5c-12.3,1-24.7,0.3-37.1,0.2
			C363.6,128.4,361.5,127.5,359.8,125.9z"/>
		<path class="st77" d="M357.7,111.2c0.3-2,1.1-4.1,1-6.1c-1.1-13.3,1.8-26.6,1.1-39.9c0-3.5,0-7,0-10.5c-1.6-4.7,0.2-9.9-2-14.5
			c-0.4-0.4-0.7-0.7-1.1-1.1c-0.6-0.4-0.6-0.7,0-1.1c4.2-0.4,4.9,2.6,5.1,5.6c0.5,6.7,1,13.5,1.1,20.2c0.2,13.5,0.1,27.1,0.1,40.6
			C362.9,108.2,362.1,111.2,357.7,111.2z"/>
		<path class="st73" d="M356.6,38.1c0,0.4,0,0.7,0,1.1c-20.9,0-41.8,0-62.6,0c-7.5,0-8.7,1.3-8.7,8.9c-0.1,11.7,0,23.3,0,35
			c-2-6.5-0.7-13.1-1-19.7c-0.2-6.2-0.1-12.5,0-18.8c0-4.2,1.9-7.3,6.4-7.3c21-0.1,42,0,63,0.1C354.6,37.3,355.6,37.8,356.6,38.1z"
			/>
		<path class="st78" d="M124.6,310.8c-1.6,10-0.7,20.1-0.9,30.2c-0.3,11.6-0.1,23.3-0.1,34.9c0,6.1-0.8,6.8-6.9,6.9
			c-28.4,0.6-56.8-1.1-85.3-1.1c-4.9-2.2-3.4-7.2-3.4-10.5c0-12.5,0.4-25.1,0.6-37.6c0.1-6.4,0.2-12.9,0.2-19.3
			c0-8.2,0.1-16.4-0.5-24.6c-0.3-4.3,2-5.1,5.1-5c15.5,0.6,30.9,0.8,46.4,1.1c11.5,0.2,23-0.3,34.5,0.1c3.2,0.1,6.5,0.5,9.5-1.3
			c2.3,0.6,2.3,2.3,2.6,4.3C128.1,296.5,126.2,303.6,124.6,310.8z"/>
		<path class="st79" d="M122.5,286.7c-6.3,1.6-12.6,0.3-19,0.4c-7.9,0.2-15.8-0.3-23.7-0.4c-13.8-0.3-27.5-0.7-41.3-0.9
			c-7-0.1-7.8,0.9-7.8,7.7c0,22,0.9,43.9,0.2,65.9c-0.2,7.3-2.7,15,0.5,22.3c-3.3-0.4-4.6-2.3-4.7-5.6c-0.6-16-0.1-31.9-0.1-47.9
			c0-10,1.6-20-0.3-30c0-2.4,0-4.9,0-7.3c0.1-6.4,1.6-7.9,7.7-7c4.5,0.6,8.9,0.7,13.4,0.7c20.2,0,40.5,0,60.7,0c4.1,0,8.3,0,12.4,0
			C122.1,284.4,123.3,284.6,122.5,286.7z"/>
		<path class="st40" d="M122.5,286.7c-0.7-0.7-1.4-1.4-2-2.1c0.4-3.1-1.1-7.6,3.4-8c3.9-0.3,3.4,4.2,4.1,6.7
			c2.1,7.4,2.5,15-0.1,22.4c-0.7,2-1.5,3.9-3.4,5c-1.2-3.9-0.5-7.8-0.3-11.8C124.5,294.8,126.1,290.4,122.5,286.7z"/>
		<path class="st80" d="M149.3,326.4c0.4-0.3,0.8-0.7,1.2-1c5.7-0.2,7.9,1.9,7.4,7.8c-0.2,3,0.3,5.3,2.3,7.4
			c2.6,2.8,3.6,6.1,3.2,9.9c-0.8,8.5,0.3,16.9,0.4,25.3c0,1.7,0.5,3.5-1.2,4.8c-0.7,0.6-1.7,1.3-1.2,2.4c0.5,1,1.7,1.5,2.6,1.3
			c2.7-0.6,5.7-0.2,8.1-2c1.6-4.6,0.4-9.3,0.6-14c0.3-6.1,1.6-7.6,7.6-7.5c2.5,0.1,4.9,0,7.4,0.1c6.4,0.3,9.7,3.6,9.8,10
			c0,2.8,0,5.6,0,8.3c0,2.1-0.7,5,2.9,4.8c3-0.2,2.5-2.6,2.4-4.7c-0.3-11.3-0.2-22.6-0.1-33.9c0.1-5.6,2-7,6.7-5.8
			c7.9,8.6,9.3,19.2,9.1,30.3c-0.1,5.4,0.9,10.8,1.1,16.3c0.4,10.7-2,12.8-12.4,11.3c-16.5-0.4-33,0.7-49.5-1
			c-5.2-0.5-8-3.3-8.1-8.3c-0.5-19.1-0.9-38.2-1.2-57.3C148.6,329.4,149.1,327.9,149.3,326.4z"/>
		<path class="st81" d="M181.6,385.9c-6,1.9-12.3,1.3-18.4,1c-4.4-0.2-5.4-2.4-3.2-6.2c2.5-4.2,2.2-8.7,1.7-13.2
			c-0.6-4.8-0.9-9.7-0.8-14.5c0.2-4.7-0.5-9-3.9-12.5c-1.9-2-2-4.6-1.8-7.3c0.3-3.6-1-6.5-4.6-7.8c2.8-1.8,5.8-2.2,9-1.9
			c12.9,1.5,25.8,0.5,38.8,0.9c4.1,0.1,8.3,0.4,12.4,0.9c6.9,0.7,9.3,2.7,9.9,9.7c0.6,6.2,0.5,12.5,0.4,18.8
			c-0.1,13.6,0.3,27.1,1.1,40.7c-4,5-9.1,4.8-14.6,3.2c8.6,1.1,11.5-4.3,10.6-11.4c-1.4-11-0.6-22.2-3.9-33
			c-1.4-4.5-4.1-7.9-5.7-12.1c-0.5-0.6-0.8-1.2-1.2-1.9c0,0-0.3-0.3-0.4-0.3c-1-0.4-2-0.4-3.1-0.4c-7.3-0.1-7.7,0.3-5.8,7.5
			c1,4,0.1,7.9,0.2,11.9c0,2.7-2.1,3.5-4.3,3.4c-5.6-0.2-11.2-0.3-16.7-0.5c-3.5-0.2-5.1-2.8-5.4-6.2c-0.2-3.6-0.2-7.3,0-10.9
			c0.3-5.5,0.3-5.5-6.2-4.8c4.6,5.7,3.3,12.3,2.6,18.5c-0.9,7.4,0.9,14.5,0.5,21.8c-0.2,2.7,1.8,3.7,4.3,4.2
			C176,384,179.3,383.5,181.6,385.9z"/>
		<path class="st82" d="M359.8,125.9c28.6,0.4,57.1-1.3,85.7-1.3c3.3,0,6.4-0.5,9.6-0.7c3.8,0.2,3.5,3.2,3.5,5.6
			c0.2,8.5,0.1,17,0.1,25.5c0,16.3-0.1,32.6,0.1,49c0.1,7.8,4.1,11.9,11.8,12.7c11.8,1.5,23.6,1.9,35.4-0.8c3.4,1.2,5.4,3.6,6.6,6.9
			c0.7,2,0.7,3.7-1.4,4.8c-0.6,0.4-1.2,0.7-1.9,0.5c-10.3-2.9-20.9-1.3-31.3-1.3c-17.5,0-35.1-1-52.6,0.8c-2.9,0.3-6.7,1.5-8.7-2.5
			c-1-0.3-2-0.6-3-0.9c-1.6,2.1-3.9,2.5-6.4,2.5c-4.1,0-8.2-0.1-12.3,0c-5.3,0.2-6.1,1-6.7,6.3c-0.2,1.8,0.6,4.5-2.6,4.6
			c-0.6-0.9-1.4-1.6-1.6-2.6c-2.3-7.7-2.3-7.8-10.1-7.8c-12.4,0-24.7,0-37.1,0c-1.7,0-3.5,0.1-5.2-0.1c-6.9-0.6-8.3-3.5-4.5-9.3
			c0.5-0.7,1-1.4,1.5-2.1c0.7,1.4,1.4,2.8,2.1,4.2c6,3.8,13,2.6,19.4,4.1c1.3,0.3,2.7,0.1,4.1,0.2c7.6,0.3,8.2-0.2,7.1-7.6
			c-0.6-4.3-0.6-8.7-0.6-13c-0.1-19.4-0.1-38.9-0.6-58.3C360,138.7,360.9,132.3,359.8,125.9z"/>
		<path class="st83" d="M416.6,225c27.1-2.1,54.2,0.1,81.3-1.7c4.5-0.3,8.9,0.9,13,2.8c3-0.4,3.3,1.8,3.5,3.9
			c0.3,3.6,0.2,7.2,0.2,10.8c-0.2,8.1,0.1,16.2-1.9,24.3c-1.7,7.2,1.8,14.4,1.6,21.7c-0.1,4.3,0.5,9-3.2,12.4c1.9,3.7,5.9,3,9,4.2
			c1.7,0.7,3.6,1,6.7,1.9c-4.1,1.7-7.1,1-10,1.2c-2.8,0.2-5,0.8-5.7,4c-1.9,7.9-2.9,8.6-11.5,9.6c-0.6,0-1.3,0.1-1.9,0.1
			c-0.7-0.2-1.4-0.6-2-0.5c-11.7,2.7-24,0.4-35.6,4.3c-1.5,0.5-2.9,1.1-4,2.2c-16.9,0.1-33.6-2.5-50.4-3.4c0-0.5,0-0.9,0-1.4
			c5.4,0,10.9,0,16.3,0c0.3-0.4,0.5-0.9,0.8-1.3c-7.4,0.3-8.3-3.9-8.3-9.4c0.1-25.4,0-50.8,0-76.3
			C414.6,231.2,414.4,227.9,416.6,225z"/>
		<path class="st84" d="M385.6,237.6c0-2.4,0.1-4.9-0.1-7.3c-0.5-6.2-0.6-6.2,5.9-6.2c7.4,0,14.8,0.1,22.2,0.1
			c0,21-0.2,42.1,0.1,63.1c0.1,7.6-1.9,15.2-0.3,22.9c0.6,2.9-1,4.3-4.2,4.5c-8.4,0.5-16.8,0.7-24.6,4.5c0.8-2.3,1.1-4.7,1.1-7.2
			C385.6,287.1,385.6,262.3,385.6,237.6z"/>
		<path class="st85" d="M455.1,412.1c-18.7-0.7-37.4-2.5-56-4.1c-6.6-0.6-8.1-2.5-8.2-8.9c-0.1-18.4-0.1-36.8,0.1-55.2
			c0.1-7.7,2.1-9.4,9.8-9c5.3,0.3,10.6,0.6,16,0.9c1.4,0.2,1.7,2.4,4.1,1.3c3-1.4,6.6,0.1,10,0.3c3,0.1,6.3,1,9.2,0.8
			c5.5-0.3,10.5,1.7,15.7,2.1c3.2,0.3,4.1,3,3.9,5.5c-0.7,11.7,1.7,23.2,1.8,34.8c0.1,8.8-0.2,17.6-0.7,26.4
			C460.4,410.4,459.4,413.3,455.1,412.1z"/>
		<path class="st86" d="M455.1,412.1c1.9-0.9,2.8-2.5,3-4.5c0.8-14.9,2.5-29.7-0.5-44.6c-0.9-4.2-0.3-8.7-0.4-13
			c-0.1-7-3.9-10.3-10.4-8.5c-1.3,0.4-1.4,1.2-2.7-0.4c-2.2-2.9-6.1-2.2-9.1-1.8c-2.6,0.3-1.1,3.9-2,6.1c-1.6-1.9,0.7-5.5-2.6-6.3
			c-2.5-0.6-5.1-0.8-7.6-0.9c-4.4-0.2-3.6,3.7-4.3,7.4c-0.9-4-0.4-7.1-1.6-9.8c11.1-0.9,22.1,1.6,33.2,1c2,1,4.1,0.4,6.1,0.5
			c5.6,0.4,8.5,3.2,8.2,8.9c-0.7,14.3,0.7,28.6,0.7,42.9c0,5.7-1.1,11.4-0.6,17.1c0.2,1.8-1,3.3-2,4.7
			C460.1,413,457.9,414.2,455.1,412.1z"/>
		<path class="st2" d="M462.3,411c2.2-13.4,1.6-27,0.6-40.4c-0.4-5.6-0.6-11.1-0.6-16.6c0-13.4,0-13.4-12.4-17.1
			c17,0,17.5,0.6,15.8,17.9c-0.4,4-0.6,8-0.2,12c1.4,12.8-1,25.6-0.4,38.4C465.2,407.5,464.1,409.5,462.3,411z"/>
		<path class="st2" d="M381.5,413.1c-1.7-8.4-1.5-16.7,0-25.1C381.5,396.4,381.5,404.7,381.5,413.1z"/>
		<path class="st83" d="M461.3,326.4c3.4-0.5,6.9-1.8,9.3,2C467.5,327.8,464.4,327.1,461.3,326.4z"/>
		<path class="st87" d="M255.3,329.7c1.7-3.1,4.6-3.4,7.6-3.2c11,0.8,22,1.4,33,2.5c5.7,0.6,11.4,0,17,0.8
			c11.5,1.6,11.5,4.3,11.9,12.9c0.8,17.2,0.5,34.4,0.6,51.6c0.1,7.8-3.1,10.1-10.3,8.4c-0.9-10.5,0-20.9,2.1-31.3
			c1.9-9.8-0.7-19.2-6.2-27.5c-2.8-4.2-6.1-4.7-9.3-2.5c-1.3,1.9-3.1,1-4.7,0.7c-3.1-0.5-6.1-1.1-9.1-1.5
			c-8.8-1.3-21.2,7.9-19.9,18.4c0.2,1.7,0,3.5,0,5.2c-0.1,13.9,9.8,24.1,23.7,24.3c1.7,0,3.4,0,5.1,0.2c2,0.2,3.3,0.9,3.1,3.2
			c-2,4.1-6.2,4.4-9.6,4.6c-10.3,0.7-19.6-1.7-27.6-9c-5.1-4.6-4.4-10.4-5.2-16.1c-1.9-12.2,0.1-24.6-1.2-36.9
			C256.3,332.8,256.1,331.2,255.3,329.7z"/>
		<path class="st88" d="M271.6,319.1c2.5-10.8,1.1-21.7,0.9-32.6c-0.3-16.6-1.3-33.2-1.9-49.8c-3.3-3.2-2.8-6.4,0-9.6
			c3.3-1.1,6.8-0.9,10.3-0.9c6.9,0,7.5,0.6,7.5,7.4c0,11.6,0,23.3,0,34.9c0,16.2,0,32.3,0.1,48.5
			C283.2,320.9,277.2,318.4,271.6,319.1z"/>
		<path class="st89" d="M255.3,329.7c2.8,2,2.6,4.9,3,7.9c1.4,10.4-0.7,20.7,0.7,31.1c2.8,20.1,17.7,29.8,37.2,23.4
			c0.8-0.3,1.6-0.6,2.4-0.9c-0.3-2.3,1.8-2.7,3.1-3.6c15.6-10.8,16.2-30.3,1.4-42.4c-1.5-1.2-4.5-2.1-2.5-5.1
			c0.3-4.9,3.8-3.9,6.3-2.9c5.3,2.1,8.7,6.4,9.9,11.9c2.2,10,3.4,20.1,1.2,30.4c-1.1,5.1-1.1,10.3-0.1,15.5c0.6,3.1,0,5.9-2.7,7.8
			c-17.3-1.1-34.6-2.2-51.8-3.3c-4.6-0.3-7.2-2.8-7.2-7.7c0-3.6,0-7.3-0.1-10.9c-1.3-6.6,0.4-13.3-0.8-19.8
			C255.3,350.5,255.3,340.1,255.3,329.7z"/>
		<path class="st87" d="M255.3,361c1.8,6.5,0.6,13.2,0.8,19.8C254.4,374.2,255.5,367.6,255.3,361z"/>
		<path class="st90" d="M495.2,108.1c-8.6,2.4-17.3,2.1-26.1,1.6c-12.5-0.8-25.1,0.3-37.6,0.8c-6.3,0.2-7.8-0.9-8.5-7.4
			c-1.2-10.4-1.2-20.7-0.3-31.2c0.8-8.5,0.2-17,0.3-25.5c0-9.4,0.9-10.2,10-10.3c19.1,0,38.3,0,57.4,0c5.4,0.2,8,2.7,8.1,7.8
			c0.3,19.3-0.2,38.5-0.7,57.8C497.5,104.1,498,106.7,495.2,108.1z"/>
		<path class="st91" d="M470.6,216.6c-3.8,1.5-7.5,0.2-11.2-0.2c-3.8-0.5-3.2-4-3.2-6.7c0-22.1,0-44.1-0.1-66.2
			c0-6.6,0.8-13.2-1.1-19.7c0-0.7,0-1.4,0-2c5.6,0,11.1-0.1,16.7-0.1c-5.6,2.3-7.6,6.8-7.3,12.5c1.1,24.3,0.8,48.5,1.1,72.8
			C465.7,210.8,466.8,214.5,470.6,216.6z"/>
		<path class="st92" d="M495.2,108.1c1.9-18.5,1.3-37,0.7-55.5c-0.1-1.9-0.1-3.8,0.1-5.7c0.6-5.1-1-8.8-5.8-10.9
			c6.6-1.7,10,0.9,10.3,8.1c0.6,14.5-1,28.9-1,43.3c0,5.2,0.1,10.4-0.1,15.7C499.4,105.7,499.2,108.6,495.2,108.1z"/>
		<path class="st82" d="M452.9,121.6c-3.8,0-7.6,0.1-11.4,0.1c-6.2,0.6-12.4,1-18.6-0.2C433,120.1,442.9,119.9,452.9,121.6z"/>
		<path class="st0" d="M423,121.5c6.2,0.1,12.4,0.1,18.6,0.2c-6.9,1.5-13.7,1.4-20.6,0.1C421.6,121.7,422.3,121.6,423,121.5z"/>
		<path class="st3" d="M570,46.5c-2-1.6-4.5-3.2-3.1-6.3c1.2-2.9,4-1.9,6.4-2.1c11.8-1.4,23.7-0.6,35.6-1.1c5.8-0.2,8.8,2.4,8.5,8.2
			c-0.2,3.9-0.2,8-1.7,11.8c-3.3,0-5-1.4-5.2-4.9c-0.3-5.2-3.1-8.2-8.2-8.7c-4.4,0.1-8.3,2-12.3,3.4c-1.7,0.6-2.3,1.3-2.4,2.9
			c-0.1,1,0.1,2.1,0.1,3.1c0.4,7.3,0.4,7.3,7.3,5.2c1.4-2.5,2.8-4.9,4.2-7.4c2.8-1.6,4.4-0.8,5.1,2.3c1.5,6.2,1.9,12.4,1.4,18.7
			c-0.2,2.7-0.9,5.3-4.5,5.1c-4.3-1.2-4.5-6.6-8.3-8.3c-1.5,1.3-4.7,0-4.9,2.8c-0.3,3.9-0.5,8,0.7,11.8c0.5,1.5,2.4,0.8,3.7,1.1
			c2.3,0.4,4.4,1.4,5.1,3.7c0.8,2.8-1.7,3.5-3.5,4.6c-1.7,0-3.5,0-5.2,0c-3.1,0.8-6.1,1.2-9.3,1c-3.1-0.1-6.2,0-9.3-0.2
			c-1.6-0.1-3.1-0.7-3.5-2.5c-0.3-1.5,0.4-2.9,1.7-3.5c4.4-2.1,4.8-5.9,4.8-10.1c0-7.8,0-15.6,0.1-23.4
			C573.1,50.9,572.6,48.2,570,46.5z"/>
		<path class="st51" d="M601.1,76.8c4-6.2,1.4-13,2-19.5c0.3-3.1-0.3-5.9-4.1-6.7c2.2-2.4,4.3-2.3,5.7,0.6c2.9,5.8,4.5,12,4.5,18.4
			C609.2,74.8,606.1,77.4,601.1,76.8z"/>
		<path class="st51" d="M594.8,57.9c-2.1,1.5-4.2,3.5-6.9,2.2c-2.6-1.2-2.2-4-2.3-6.4c-0.5-8.4-0.1-8.9,8.4-10
			c2.7-0.3,5.5-0.3,8.2-0.4c-4.9,0.4-7.7,4.5-11.8,6.5c-2,1-0.9,3.5-0.7,5.2C590,58.2,592.7,57.7,594.8,57.9z"/>
		<path class="st51" d="M593.8,92.4c2.5-3.8,1.7-6.2-2.9-6.9c-6.1-1-4.9-5.8-5-9.7c0-4.3,1.1-8.1,6.7-7.4c-5.6,4.9-4.7,12,1.9,15.1
			c2.6,1.2,4.3,3.1,4.2,6C598.8,92.8,595.9,92.1,593.8,92.4z"/>
		<path class="st51" d="M605.6,85.2c-0.3,1.4-0.4,2.9-2,2.7c-1.8-0.3-2.1-2-2.1-3.6c0-1.1,0.4-2.2,1.7-2.1
			C605.2,82.2,605.3,84,605.6,85.2z"/>
		<path class="st51" d="M623.8,86.3c-1.6-1.2-1.7-2.8-1.1-4.4c0.1-0.2,1.1-0.3,1.2-0.1C625,83.3,625.2,84.8,623.8,86.3z"/>
		<path class="st51" d="M579.3,93.5c3-1.2,6.2-1,9.3-1C585.6,93.8,582.6,95,579.3,93.5z"/>
		<path class="st49" d="M593,31.8c-9.4,3.9-17.8,3.2-26.3,2.2c-1.1-0.1-2.6-0.3-2.6-1.9c0-1.3,1.3-2,2.1-1.8
			C574.6,32.6,583.4,28,593,31.8z"/>
		<path class="st93" d="M560.7,387c-13.2,0.4-26.5,0.8-39.7,1.1c-7.7,0.1-9.8-1.9-9.9-9.8c-0.1-17-0.1-34-0.1-51.1
			c0-7.9,2.4-10.6,10.4-10.9c7.6-0.3,15.1-0.1,22.7-0.2c3.4,0,6.9,0,10.3,0c2.1,1.1,4.4,0.4,6.5,0.7c7.6,0.8,10.2,2.3,7.2,12.6
			c-1.7,2-3.7,1.2-5.7,0.7c-10.2-2.5-20.6-1.4-30.9-0.8c-2.1,0.1-3.7,1.1-3.4,3.6c1.6,12.3,1.4,24.5,0.8,36.8
			c-0.2,4.2,1.5,5.2,5.3,5.5c8,0.7,16,0.4,24,0.1c1.2-0.1,2.4-0.2,3.5,0.5c0.5,0.5,0.9,1,1.4,1.5c4,3.9,3.7,6.1-1.2,9
			C561.6,386.5,561.1,386.7,560.7,387z"/>
		<path class="st94" d="M511.1,299.3c0-17.8,0-35.7,0-53.5c0-1.7,0.5-3.4,0.7-5.1c3.8,0.5,2.6,3.6,2.6,5.7
			c0.2,11.5,0.1,22.9,0.1,34.4c0,2.1-0.1,4.2,0.6,6.2c1,2.9,3,4.3,5.9,3.7c2.8-0.5,3.3-2.7,3-5.2c-1.2-11.7-0.5-23.6-1.1-35.3
			c-0.5-9.3,2.4-18.5,2.3-27.9c0-2.7,1.1-5.5,4.2-6.6c3.8-0.3,7.6-0.7,11.4-1c2.8,9.7-0.9,18.9-1.7,28.3c-0.6,6.7-3.3,12.9-0.8,20.3
			c1.3,3.7,1.2,9.4-0.7,14.5c-2.7,7,0.8,13.1,6.1,18.1c3.1,3,7.3,4.7,9.6,8.6c-12-1.1-24-1.3-35.9-3.3
			C515.4,300.8,513.3,299.9,511.1,299.3z"/>
		<path class="st95" d="M566.9,328.5c1.6-10-5.6-11.1-12.5-12.5c7.6,0,15.2,0,22.8-0.1c5.1-0.2,7.2,2.6,7.2,7.4
			c-0.2,12.8,0.7,25.7-0.7,38.5c-0.4,3.6-0.3,7.3,0,10.9c1.2,11.4-0.3,13.1-11.7,13.1c-2.8-0.2-5.5,0.6-8.3,1c-1,0-2.1,0-3.1,0
			c2.6-3.1,4.3-6.2-0.1-9.3c-0.7-2.8,1.7-2.7,3.1-3.6c0.5-0.5-0.2,0.1,0.4-0.4c9.8-8.5,9.7-11-1.1-19c-3-3-3.3-5.6,0.3-8.5
			c4.4-3.5,5.7-8.1,3.3-13.4C566,331.2,565.7,329.9,566.9,328.5z"/>
		<path class="st5" d="M563.8,387c2.5-2.4,5.3-2.3,8.3-1c-2.1,0.7-4.1,1.4-6.2,2.1C565.2,387.7,564.5,387.3,563.8,387z"/>
		<path class="st96" d="M631,189.3c-2.9,0-5.9,0.3-8.8-0.1c-2.5-0.4-4-2.5-1.4-4.3c4.1-2.8,2.5-5.4,0.7-8.3
			c-5.5-8.6-5.9-8.6-12.8-1.5c-1.1,1.1-2.2,2.2-3.3,3.3c-3,3.4-2.7,5.2,1.4,6.9c1.1,0.5,2.6,0.5,2.6,2c0,1.9-1.6,2.1-3,2.2
			c-4.5,0.4-8.9,0.7-13.4,0.8c-1.8,0.1-3.5-0.5-4.2-2.5c-0.7-2.1,0.7-3.2,2.1-4.3c6.2-4.9,10.9-11.1,16.2-16.8
			c2.6-2.8,2.6-5.8,0.4-8.5c-5-5.9-8.3-13.4-16.1-16.5c-1.3-0.5-2.3-1.7-1.9-3.3c0.4-1.6,1.8-2,3.2-2.1c5.8-0.4,11.7-0.7,17.5-1
			c1.8-0.1,3.5,0.5,4.3,2.3c0.8,1.8-0.5,2.9-1.6,4c-1.9,1.8-1.6,3.8-0.2,5.6c1.9,2.4,3,6,6.4,6.4c3.2,0.4,7.9-9.6,6.2-12.5
			c-2.2-3.7-1.4-5.6,2.7-5.9c3.9-0.3,7.9-0.1,11.9,0.1c1.6,0.1,3.1,0.8,3.6,2.5c0.5,2-1.2,2.7-2.5,3.4c-6.9,3.7-11,10.4-16.4,15.7
			c-2.8,2.8-0.3,5.5,1.6,7.8c4.8,5.9,9.8,11.7,14.6,17.6c1.1,1.4,3.3,2.6,2.3,4.8c-1,2.2-3.4,2-5.5,2.1c-2.2,0.1-4.5,0-6.7,0
			C631,189.4,631,189.3,631,189.3z"/>
		<path class="st97" d="M550.4,202.1c-2.2,1.1-4.4,1.9-6.9,2c-18.6,0.7-37.1,1.6-55.7,2.2c-7.6,0.2-9.7-1.8-9.9-9.2
			c-0.4-18-0.8-36.1-1-54.1c-0.1-9.1,1.6-10.9,10.5-10.7c13.8,0.4,27.5-1.3,41.3-1.2c6-1.2,12-0.4,18-0.5c3.5,0,4.4,3.4,4.8,6.5
			c1.1,8.2-0.1,16.4,0.6,24.6c0.9,10.6-0.6,21.2,1.2,31.8C553.8,196.7,552.5,199.6,550.4,202.1z"/>
		<path class="st98" d="M529.6,215.7c-1.3,3.8-2,7.7-2,11.7c0,5.6-0.1,11.1-1.6,16.5c-0.6,2.3-0.7,4.9-0.4,7.2c1.3,9,0.4,18,0.9,27
			c0.2,4,0.4,7.9,2.4,11.6c1.4,2.6,0.1,4-2.5,4.1c-3.6,0.2-7.2,0.4-10.8,0.4c-3.6,0-3.4-2.8-3.4-5.2c-0.1-11.5,0-22.9,0-34.4
			c0-4.7-0.1-9.4-0.1-14.1c-0.3-4.8,0.8-9.8-1-14.5c-0.9-3.8-3-7.1-5-10.3C513.8,215.8,521.7,215.7,529.6,215.7z"/>
		<path class="st99" d="M550.4,202.1c1.3-7.4,1-14.9,0.9-22.4c-0.2-13.4-0.7-26.7-1.4-40.1c-0.4-7.3-2.1-8.6-9.4-8.6
			c-4,0-7.9,0-11.9,0c6.2-1.9,12.7-1.1,19-1.1c4.8,0,5.7,4.5,5.8,8.4c0.2,10.1,0,20.1,0.2,30.2c0.2,8.1-0.8,16.2,1.6,24.3
			C556.2,196.7,554.7,200.5,550.4,202.1z"/>
		<path class="st100" d="M19.2,154.2c24.8-1.9,49.6-0.1,74.3-0.3c5,0,7.2,1.9,7.2,7c0,27.8,0,55.6,0.2,83.4c0,5.6-3.2,6-7.4,6
			c-24.8-0.3-49.6-1.7-74.4-1.3c-2.2-1.4-2.3-3.4-2.5-5.8c-1.6-16-1.2-32.1-1.1-48.1c0-12.2-0.9-24.3-0.7-36.5
			C14.9,155.4,15.9,153.7,19.2,154.2z"/>
		<path class="st101" d="M19.2,154.2c-3.4,4-2,9-2,13.4c-0.1,17.7,0.1,35.4,0.8,53.1c0.4,9.4-0.4,18.9,1.1,28.3
			c-2.9,0-4.3-1.2-4.5-4.3c-0.4-8-0.9-15.9-0.9-23.9c0.1-20.4-0.1-40.8-0.8-61.2C12.7,153.8,14,153,19.2,154.2z"/>
		<path class="st102" d="M313,215.6c-17.2,0.2-34.5-0.3-51.7,1c-3.8,0.3-7.5,0.1-11.3-0.5c-5.3-0.8-8-3.9-8.2-9.1
			c-0.8-18.9-1.6-37.8-2.2-56.7c-0.2-7.6,2.1-9.6,9.5-9.8c15.1-0.2,30.3,0.5,45.4-1.1c3.9-1.5,8.1-1.1,12.1-1.7
			c4.1-0.6,8.7,5.7,9.1,11.4c0.7,9.2,0.7,18.4,1,27.6c0.4,10,0.4,20.1,0.8,30.2C317.6,210.4,315.3,213.1,313,215.6z"/>
		<path class="st103" d="M298.6,274.3c0-9.2-0.1-18.4,0-27.6c0.1-6.6,2.2-8.9,8.7-8.9c17.4-0.1,34.8-0.2,52.2,0
			c8.1,0.1,11.5,3.4,11.3,11.6c-0.5,18.7,1.4,37.5-0.6,56.2c-0.7,6.8-0.9,6.8-7.9,6.6c-17.1-0.4-34.1-0.3-51.2-0.4
			c-10.5-0.1-12.4-1.9-12.4-12.5C298.6,291,298.7,282.7,298.6,274.3C298.6,274.3,298.6,274.3,298.6,274.3z"/>
		<path class="st104" d="M313,215.6c3-13.7,0.8-27.6,0.8-41.3c0-7.1-0.5-14.2-0.7-21.2c-0.3-10.9-2.8-13.5-13.5-13.5
			c-1.7,0-3.4,0-5.2-0.1c2.2-1.5,4.8-1.7,7.3-2.4c1.8-0.5,3.1-1.7,3-3.7c0-2.1-1.8-2.3-3.3-2.6c-5.6-1.1-11.2-0.4-16.8,0.4
			c-2.3,0.3-4.8,1-6.7-1.1c12.2-1.3,24.4-1.2,36.7-1c8.6,0.1,10.5,1.4,11.2,10c1.4,18.5,2.2,37.1,1.9,55.7c-0.1-0.1-0.2-0.3-0.4-0.4
			c-1.9-0.9-1.2-5.5-4.3-4c-3.2,1.4-2.7,4.9-2,7.9C323,206.5,320.5,212.1,313,215.6z"/>
		<path class="st105" d="M270.6,227.1c0,3.2,0,6.4,0,9.6c-2.1,1.3-3.5,3.5-6.8,2.3c-3-1.1-3.2,2-3.2,3.9c-0.1,8.7-0.4,17.3,0.3,26
			c0.8,10.7,1.2,21.4,1.5,32.2c0.1,3.2-0.1,7-5.1,6.6c-2.8-1.3-2.4-4-2.4-6.3c-0.1-14.6-1.5-29.1-1.3-43.7
			c0.3-14.9-1.9-18.7-19-17.7c-5.5,0.3-11,0.3-16.5,0.1c-1.8-0.1-4,0.2-4.2-2.6c-0.8-2.2-2.2-4-4.2-5c-3.1-1.6-4.8-4.4-6.2-7.4
			c2.5-3.7,6.1-3.8,10-3.4c4.2,0.8,8.5,0.8,12.8,0.8c2.3,0,4.4,0.6,6.4,1.6c7.9,2.8,16.2,1.9,24.3,2.1
			C261.4,226.2,266.1,225.7,270.6,227.1z"/>
		<path class="st106" d="M232.5,224c-6.2,2.1-12.5,0.6-18.8,1c-7-0.7-13.9-2-20.9-2.6c-2.1-0.2-3.8-0.6-5.4-2.1
			c-3.5-3.3-3.4-4.5,0.1-7.9c3.5-3.3,7-6.5,12.4-4c1.8,0.8,3.8-0.3,5.5-0.7c7.8-1.8,15.8-0.6,23.5-2.1c2.2-0.4,2.4,1.5,3.2,2.7
			C232.4,213.6,232.5,218.8,232.5,224z"/>
		<path class="st35" d="M232.3,208.4c-1-0.4-2-1.2-2.8-1.1c-8.9,1.4-18.3-1.2-26.6,3.9c-1.4,0.9-3,1.2-4.4,0.3
			c-5-3.5-7.5,1.1-9.6,3.8c-2.2,2.8,1.4,4.3,3.4,4.9c5.6,1.5,11.3,2.6,17,3.8c1.5,0.3,3,0.8,4.5,1.1c-3.5,0-6.9,0-10.4,0
			c-6.6-1.4-13.3-0.4-19.9-1c-4.1-0.4-7.4,1.1-9.1,5.2c-2.8-1.2-2.5-2.9-0.8-4.8c4.5-5.2,8.9-10.5,13.6-15.6c3.4-3.6,8-3.2,12.5-3.1
			c11,0.3,21.9,0.5,32.6-2.6C232.3,204.9,232.3,206.6,232.3,208.4z"/>
		<path class="st104" d="M327.7,197.9c1.3,3,0.9,6.2,0.9,9.4C327.5,204.2,327.2,201.1,327.7,197.9z"/>
		<path class="st80" d="M213.7,237.5c11.1,0.9,22.3-1.4,33.4,0c4.6,0.6,8,1.8,8,7.3c0,1.2,0.6,2.4,0.6,3.6
			c0.5,19.7,0.9,39.5,1.4,59.2c-1.3,1.4-2.8,2.9-4.8,2.8c-7.6-0.3-15.1,1.8-22.7,0.7c-5-0.7-9.9-0.4-14.9,0.2
			c-6.5,0.8-13.1,0.6-19.6-0.4c-7.1-1.1-8.8-2.6-9.3-9.8c-0.5-6.9-0.3-13.9-0.8-20.8c-0.9-11.4-1.1-22.9-1.3-34.3
			c-0.1-6.8,1.6-8.3,8.3-8.4C199.3,237.5,206.5,237.6,213.7,237.5z"/>
		<path class="st107" d="M296.6,47.5c7.5,0.2,15.1,0.4,22.6,0.4c7.6,0,15.1-0.4,22.7-0.4c5.8,0,7.3,1.6,7.4,7.5
			c0.1,3.6,0.5,7.3-0.9,10.8c-0.5,1.1-1.1,2.3-2.5,2.3c-1.4,0-2.1-1.2-2.3-2.4c-0.9-4.7-2.8-8.3-7.4-10.6c-5.6-2.8-11.3-2.7-17.2-2
			c-4.9,0.6-3.8,4.8-3.7,7.8c0.2,4-2.1,9.3,3.7,11.2c3.3,1.1,5.5-1,6.9-4.1c0.8-1.8,1.4-4.4,4-4.1c2.8,0.4,2.9,3.2,3.3,5.3
			c0.8,4.1,1.1,8.3-0.2,12.4c-0.5,1.6-0.1,3.9-2.1,4.5c-2.2,0.6-3.4-1.4-4.4-3c-1.6-2.5-4-3.7-6.6-4.8c-2.7-1.2-4.5-0.5-4.6,2.6
			c-0.2,4.2-0.1,8.3,0,12.5c0,1.6,0.9,2.9,2.4,3.8c9.7,5.8,22.1,0.5,24.5-10.6c0.8-3.6,1.7-6.1,6-4.6c1.6,5.5,0.9,11.1,1,16.7
			c0.4,5.5,0.4,5.4-4.8,5.3c-10.3-0.2-20.6-0.3-30.8,0.2c-4.3,0.2-8.7-0.4-13-0.5c-5.9-0.1-6.3-1.3-4.1-7.1c3.1,0.5,4.5-1.2,4.9-4
			c1.3-11.3,0-22.6,0-33.8c0-2.1-1.4-3.5-3-4.6C295.9,52.5,295.2,50.3,296.6,47.5z"/>
		<path class="st73" d="M296.6,96.6c-0.5,3.3-0.3,6.1,4.1,6.1c13.9,0,27.8,0,41.7,0.2c3.3,0,5.7-1,7-4.2c1.1,1.5,2.7,3.1,1.6,5.1
			c-1.2,2.2-3.5,1.6-5.6,1.5c-9.4-0.5-18.9-0.8-28.3,0.4c-6,0.8-12-0.6-17.9-1.5C293.6,103.3,293.1,101.6,296.6,96.6z"/>
		<path class="st73" d="M357.7,40.2c3.3,4.5,1.7,9.6,2,14.5C357.2,50.2,358.1,45.1,357.7,40.2z"/>
		<path class="st108" d="M73.9,366.1c12.4,1.9,21.2-3.4,25-15.4c0.4-1.2,0.6-2.4,1.2-3.4c1.3-2.4,1.3-6.3,5.6-5.5
			c4.3,0.8,7.6,4.7,6.5,9.2c-2.2,8.2-5.3,16.1-12.6,21.4c-11.2,8.1-23.5,6.7-35.6,3.5c-10.1-2.6-18.6-8.5-23.4-18.1
			c-8.4-16.9-7.6-39,5.6-52.8c12.2-12.9,30.2-18,47.8-6.3c3.4,2.3,5.4,2.4,7.6-0.9c2.4-3.7,5.5-5.8,10.1-3.8c4.7,2,4.4,6.1,4.1,10.2
			c-0.3,5-0.5,10-1.1,15c-0.4,3.4-0.6,7.3-5,8.1c-4.2,0.8-7.3-1.1-9-5.2c-0.9-2.2-2.1-4.4-3.1-6.6c-4.6-10.6-17.1-13.8-26.7-7.5
			c-3.5,2.4-6,5.5-9.2,8.2C52.4,332.6,56.4,355.6,73.9,366.1z"/>
		<path class="st109" d="M73.9,366.1c-9.5-4.3-15.4-11.6-17.6-21.9c-1.4-6.8-0.8-13.8,0.1-20.6c0.5-3.4,1.4-6.5,5.2-7.6
			c-0.1,5.7-3,10.8-2.9,16.6c0.1,8,0.9,15.6,5.6,22.2C67.1,358.9,70.7,362.3,73.9,366.1z"/>
		<path class="st110" d="M211.6,338.9c-1,0.7-2.1,1.4-3.1,2.1c-2.5,1-3,3.1-3,5.5c0,10.1,0.1,20.1,0.1,30.2c0,2.6,0.8,4.8,3.1,6.2
			c1,0.6,2.3,1.2,1.7,2.8c-0.4,1.1-1.6,1.3-2.6,1.3c-5,0-10-0.1-15-0.3c-1.4-0.1-2.9-0.7-3-2.3c-0.2-1.8,1.5-1.5,2.5-1.9
			c0.6-0.2,1.5-0.5,1.7-1c1.9-4.3,1.5-8.9,0.6-13.2c-0.7-3.3-3.6-4.7-6.7-4.8c-3.8-0.2-8.8-2.2-11.2,1.5c-2.9,4.4-1.6,10.1-0.5,15.1
			c0.7,2.8,5,2.6,5.4,5.9c-5,0-10,0-15-0.2c-1.5-0.1-4.5-0.2-2.6-2.7c2.6-3.4,2.1-6.9,1.8-10.5c-0.5-6.4-0.6-12.8,0.2-19.2
			c0.6-4.9,0.4-9.7-3.2-13.8c-2.2-2.4-1.2-3.8,1.8-3.7c5.2,0.2,10.5-0.8,17.3,1.2c-9.5,3.5-7.4,10.3-7.3,16.4c0,1.8,0.5,3.8,2.3,4.4
			c5.5,1.7,11.2,1.2,16.9,0.4c1.4-0.2,1.4-1.7,1.6-3c0.8-5.7,1-11.1-4.1-15.3c-2.5-2-1.6-4,1.3-4c6.3-0.1,12.8-1.1,19,0.9
			C212.3,337.6,212.3,338.2,211.6,338.9z"/>
		<path class="st80" d="M211.6,338.9c0-0.6,0-1.3,0-1.9c0.6-0.6,1.3-1.2,2.2-0.5c0.7,0.6,0.6,1.6,0.2,2.3
			C213.3,340,212.4,339.9,211.6,338.9z"/>
		<path class="st111" d="M494.3,306.6c-5.3,1.7-10.8,2.1-16.3,2.1c-15,0-30,0.3-44.9,0.5c-4.4,0.1-7.3-1.8-8.3-6.2
			c-0.5-2.2-0.7-4.5-0.7-6.7c-0.1-16.5-0.1-33,0-49.5c0-8.1,1.6-9.4,9.6-10.3c10.8-1.2,21.6-0.9,32.5-0.2c6.3,0.4,12.7-0.9,19.1-0.7
			c2.8,0.1,5.5,0,8.2,1c3.8-0.9,5.1,1.7,5.3,4.6c0.6,7.9,0.5,15.8,0.1,23.8c-0.5,11.3,0.3,22.5,0.1,33.8
			C498.8,301.9,498.8,305.7,494.3,306.6z"/>
		<path class="st112" d="M494.3,306.6c2.4-3.4,3.4-7.3,3-11.3c-1.6-15.1-0.1-30.2-0.2-45.2c0-4.7,0.7-9.9-3.8-13.5
			c1.8-4,3.8-1.6,5.4,0c1.9,1.8,1.9,4.4,1.9,6.8c0,18.5,0,37.1-0.1,55.6C500.5,302.9,500.6,307.5,494.3,306.6z"/>
		<path class="st113" d="M453.9,366.3c0,5.2,0.4,10.4-0.6,15.6c-2.3,11.7-8.2,17.5-19.9,18.1c-7.4,0.4-14.9-0.3-21.6-4
			c-8.1-4.5-13.6-10.5-13.9-20.8c-0.3-8.8-0.5-17.7,0-26.5c0.1-2.5,1.1-5,4.2-5.1c2.8-0.1,3.8,2,4.4,4.3c0.7,3,2.8,4.3,5.6,4.5
			c9.3,0.7,18.6,1.4,27.8,2c2.8,0.2,4.4-1.4,5.7-3.7c1.1-1.9,2.8-3.2,5.2-2.5c2.3,0.7,3.1,2.7,3.1,4.9
			C453.9,357.6,453.9,362,453.9,366.3z"/>
		<path class="st114" d="M300.7,340c11.4,7,16.5,17.2,15.5,30.6c-0.7,9.9-8.3,18.7-17.5,20.6c-11.2,0.8-21.2-1.5-28.7-10.7
			c-3.5-4.2-5.4-8.8-4.8-14.3c0.2-1.9,0.3-3.8,0.3-5.7c-0.4-15.1,10.4-24.7,25.2-22.4C294,338.6,297.3,339.4,300.7,340z"/>
		<path class="st48" d="M468.4,77.8c-4.1-0.1-8.3,0-12.4-0.2c-4.1-0.2-6.2,1.8-6.1,5.9c0.1,4.7-1.1,9.6,3.5,13.5
			c2.4,2,0.9,4.4-2,4.6c-5,0.3-10,0.4-15,0c-3.7-0.2-5.2-3.1-2.6-5.7c6.3-6.5,5.5-14.1,4.9-22c-0.2-3.4,0.1-6.9,0.3-10.4
			c0.3-4.4-0.7-8.3-4.3-11.2c-1.6-1.3-2.7-2.8-1.7-4.9c1-2.3,2.9-1.7,4.9-1.6c3.9,0.2,7.9,0.1,11.9,0.1c2.2,0,4.3,0.3,5.3,2.5
			c1,2.5-1.3,3.2-2.7,4.4c-2.5,2.1-3.8,10.9-2.1,14.7c1.7,4.1,5.5,2.7,8.6,3c0.3,0,0.7,0,1,0c3.6-0.7,8,0.5,9.9-3.9
			c1.5-3.5-1.4-12.1-4.7-14.6c-1.3-1-2.7-1.8-2.1-3.7c0.6-1.7,2-2.6,3.6-2.6c5.7,0.2,11.4,0.4,17,1.1c3.1,0.4,3.7,2.8,1.1,4.7
			c-3.4,2.5-3.9,5.9-3.9,9.7c0,8.9,0,17.7,0,26.6c0,3.6,0.3,7,3.6,9.2c1,0.7,1.9,1.7,1.3,3.1c-0.6,1.3-1.9,1.5-3.1,1.5
			c-5.2,0.1-10.3,0.1-15.5,0c-1.8,0-3.6-0.5-4.1-2.6c-0.6-2.2,1.1-3,2.8-3.7c1.5-0.6,2.6-1.6,3.6-2.9c2.2-0.4,2.9-1.9,2.8-3.9
			c-0.1-2.8-0.2-5.6-0.4-8.4C471.9,78,471.1,76.3,468.4,77.8z"/>
		<path class="st115" d="M468.4,77.8c2.6-2.7,4.4-1.6,5,1.5c0.6,3,0.7,6.2,0.7,9.3c0,2.8-1.4,4.6-4.6,3.9
			C470.5,87.5,472,82.4,468.4,77.8z"/>
		<path class="st116" d="M566.9,328.5c5.6,8,5.5,12.3-1.1,19.2c-1.9,2-2.2,3.7-0.9,6c3.7,7.3,3.3,14.5,0,21.8
			c-1.4,0.7-2.9,1.5-4.3,2.2c-12.9-0.1-25.8-0.2-38.8-0.4c-0.2-0.5-0.4-1.1-0.5-1.6c5.6-2.2,5.4-6.7,5.3-11.2c-0.1-8,0-16,0-24
			c0-3.6-0.3-7-3.9-9c-1.1-0.6-2-1.5-1.6-3c0.4-1.4,1.6-2,2.8-1.9C538.2,327.2,552.7,324.2,566.9,328.5z"/>
		<path class="st56" d="M564.9,375.5c-1.5-2.3-1.8-4.8-0.7-7.4c1.8-4.7-0.8-9.7,0.8-14.4c4.1,2.5,9.5,3.8,9.2,10.3
			C573.8,370.1,570.4,373.7,564.9,375.5z"/>
		<path class="st117" d="M500.2,142.7c3.1,0,6.2-0.2,9.3,0.1c2.4,0.2,3.4,1.2,1.5,3.8c-2.6,3.5-1,7.4,4.4,11.9
			c3.2,2.8,4.9,0,6.9-1.7c0.8-0.7,1.4-1.5,2.2-2.2c3.3-2.8,4.1-5.5,0-8.3c-3-2-2.3-3.9,0.6-4.6c4.5-1,9.2-1.5,13.8-0.8
			c2.9,0.4,3.4,2.7,1,4.3c-6.4,4.2-10.4,10.6-15.7,15.8c-2.6,2.6-2.7,5-0.3,7.7c5.4,6.1,10.7,12.3,16.1,18.4c1.2,1.4,3.1,2.7,2,4.9
			c-0.9,1.8-2.9,1.7-4.6,1.8c-4.7,0.1-9.3,0.1-14,0c-1,0-2.2,0-2.7-1.2c-0.5-1.4,0.7-1.7,1.5-2.3c2-1.2,2.3-3.1,1.5-5
			c-1.8-4-4.6-7.4-7.9-10.2c-2.5-2-4.8-0.1-6.1,1.9c-2.5,3.9-8,6.1-7,11.9c0.2,1.3,1.8,1.4,3,1.8c1.2,0.3,2.5,0.7,2.2,2.3
			c-0.2,1.2-1.4,1.5-2.4,1.6c-5,0.3-10,0.6-15,0.8c-1.1,0.1-2.1-0.3-2.4-1.5c-0.3-1.2,0.6-1.9,1.5-2.5c7.6-4.8,11-13.7,18.4-18.8
			c2.9-2,1.6-5.4-0.5-7.3c-6.3-5.9-9.2-15.4-18.2-18.7c-0.8-0.3-1.4-1.1-1.3-2.1c0.2-1.2,1.2-1.7,2.2-1.8c3.3-0.1,6.5,0,9.8,0
			C500.2,142.8,500.2,142.7,500.2,142.7z"/>
		<path class="st118" d="M72.8,239.8c-13.4,1.8-26.9,0.9-40.3,0.9c-2.3,0-5.2,0.6-6.4-2.1c-1.2-2.6,1.1-4.1,2.5-5.8
			c2.1-2.5,3-5.4,2.9-8.7c-0.1-15-0.2-29.9-0.2-44.9c0-4.2-1.1-7.9-4-11c-1.4-1.5-3.1-3.1-1.7-5.5c1.2-2.1,3.3-2.4,5.4-2.3
			c7.4,0.3,15,1.1,22.1,0.6c8.2-0.6,15.6,1.4,23.4,2.3c2.2,0.3,4.1,0.7,4.6,3.3c3.8,5.4,7,10.7,5.9,17.9c-0.5,3.3-1.2,6.6-3.2,8.9
			c-2.1,2.5-2.9,4.7-1.6,7.6l0,0c7.7,5.4,11.2,15.1,9,25.3C90,232.1,80.5,239.1,72.8,239.8z"/>
		<path class="st119" d="M72.8,239.8c20.6-7.4,20.7-25.1,9.4-38.8c8.7,2.6,12.1,9.5,11.2,22.6C92.7,233.8,82.9,241.5,72.8,239.8z"/>
		<path class="st119" d="M82.2,201.1c-3.3-2.2-4.2-4.2-1.1-7.8c5.4-6.3,5.4-13.5,1.9-20.8c-0.9-1.9-1.9-3.7-2-5.8
			c8.4,5,11,19.2,4.8,27.1C84.1,196,82.9,198.3,82.2,201.1z"/>
		<path class="st120" d="M297.3,203.2c-3.1,0.3-7.2,0.7-11.3,0.9c-1.4,0.1-3.7,0.3-3.6-1.8c0.1-2.1,2.1-1.1,3.3-0.8
			c2.6,0.6,3.2,0,2.7-2.9c-1.8-9.9-14.4-15.3-22.4-9.2c-2.8,2.1-2.9,5.4-2.9,8.6c0,3.1,2.2,4,4.9,4.3c0.8,0.1,2,0.2,1.9,1.3
			c-0.1,0.7-0.9,1.6-1.6,1.8c-5,1.5-9.9,0.2-14.8-0.7c-1.8-0.3-1.4-2-0.7-3.4c6.9-13.5,10.7-28.1,15.9-42.3c1.1-3.1,1-7.3,5.8-7.5
			c7.2-0.3,9,0.9,11.3,7.2c4.5,12,9,24,13.6,36c0.6,1.6,1.6,3.1,2.4,4.6c0.7,1.3,3.2,1.7,2.3,3.6c-0.8,1.7-2.8,0.5-4.3,0.5
			C299.4,203.4,298.9,203.3,297.3,203.2z"/>
		<path class="st121" d="M331.8,284.6c-4.2,0.1-8.8-0.8-11,4.6c-2,4.8-1.5,6.7,3.3,9c0.9,0.4,2.2,0.6,2.1,1.9
			c-0.2,1.6-1.6,1.6-2.8,1.7c-0.5,0-1,0-1.5-0.1c-3.7-0.9-8.6,1.3-10.9-1.7c-2.7-3.5,2-6.8,3.2-10.2c3.9-11.5,8.2-22.9,12.4-34.3
			c1.3-3.6,2.8-6.9,7.9-6.6c5.1,0.2,7.7,2.1,9.2,7.1c3.7,11.6,7.9,23,11.9,34.5c0.9,2.7,1.9,5.2,4.2,7c2.4,1.9,2,4.2-0.8,4.3
			c-6,0.2-12-0.4-18-0.8c-0.5,0-1.3-0.8-1.4-1.3c-0.2-1.1,0.7-1.6,1.6-1.5c5.4,0.3,4.3-2.9,3.2-6.1
			C342.1,285.2,341.1,284.6,331.8,284.6z"/>
		<path class="st69" d="M311.6,133.7c-0.1,1-0.5,1.7-1.6,1.5c-1.1-0.2-1.7-1.1-1.8-2.1c-0.1-1.1,0.6-1.5,1.6-1.4
			C310.9,131.8,311.5,132.5,311.6,133.7z"/>
		<path class="st70" d="M219.8,275c-2,7.6-3.8,13.9-5.4,20.3c-0.9,3.7-3.1,5.1-6.7,5c-2.8-0.1-5.5,0.4-8.3,0.3
			c-3.4-0.1-5.5-1.4-3.5-5.3c1-2.1,1.3-4.3,1.3-6.6c0-8.4,0-16.7-0.1-25.1c0-3.7-0.3-7.3-2.4-10.5c-0.8-1.1-1.5-2.6-0.8-3.9
			c1.1-1.9,2.8-0.5,4.2-0.4c3.4,0.2,7.7-0.7,10.1,1c3.3,2.3-1.2,6.1-0.5,9.5c1.7,8.3,0.5,16.8,1.2,25.2c0.4,0,0.9,0.1,1.3,0.1
			c1.5-6.8,3-13.6,4.6-20.4c1-4.2,1.9-8.5,2.9-12.7c0.4-1.7,0.8-3.6,3-3.8c2.1-0.1,2.9,1.6,3.6,3.2c4,8.7,6.3,18,9.4,27
			c1,2.7,1.2,5.8,3.3,8c1.4-0.4,1.1-1.4,0.9-2.1c-1.5-6.2-1.2-12.5-1.6-18.7c-0.4-5-0.2-10.2-4-14.2c-0.7-0.7-1.2-1.9-0.6-2.9
			c0.7-1.1,1.9-0.9,2.8-0.4c3.2,1.5,7.6-1.5,9.8,1.5c1.9,2.7-1.3,6.2-1.2,9.4c0.3,10.4,0.6,20.8,1,31.3c0.1,2.1,1.2,3.9,2.6,5.6
			c2.1,2.4,1,3.9-1.6,4.3c-4.3,0.6-8.6,0.7-12.9-0.1c-3.6-0.7-4.6-3.8-5.4-6.9C225.1,287.2,224.1,281.1,219.8,275z"/>
		<path class="st122" d="M440.4,252.2c-1.9-0.1-3.7-0.5-5-2c-0.1-1.5-0.7-2.9-1.1-4.3c4-1.8,8.3-0.6,12.4-0.8
			c8.6-0.4,17.2-0.1,25.8-0.1c0.8,2.3,3.3,1.9,4.8,3.2c4,3.7,5,8.4,4.3,13.5c-0.3,1.8,0,3.1,1.4,4.2c-4,6.1-4,6.1,1.5,11.2
			c5.2,4.7,4.7,13.4-0.9,17.7c-4.4,3.3-8.8,5.2-14.7,4.8c-8.4-0.6-16.9-0.8-25.3,0.6c-0.7,0.1-1.4,0.2-2.1,0.1
			c-2.8-0.3-6.8,0.3-7.3-3.2c-0.5-3.6,3.3-4.2,6.1-5c1-0.1,1.9-0.3,2.6,0.7c4.7,1.7,9.3,2,13.7-1c2.1-1.1,4.3-0.8,6.5-0.9
			c4.8-0.1,8-2.3,8.2-5.4c0.3-3.6-3-7-7.8-7.3c-4.2-0.3-8.1-0.7-11-4.2c-0.2-1.6-0.3-3.2,0.1-4.8c1.7-2,3.9-2.6,6.4-2.8
			c1,0,2.1,0,3.1-0.1c5-0.5,8-2.7,8-5.8c0-3.2-3-6-7.7-6.3c-3.3-0.2-5.9-1.7-8.7-3.2c-3-1.5-6-2.6-8.8,0.3
			C443.7,252.5,441.9,251.9,440.4,252.2z"/>
		<path class="st123" d="M441.6,294c-0.4-0.7-0.8-1.4-1.1-2.1c0.8-13.2,2.2-26.5-0.1-39.7c-0.4-3.1,1.6-2.3,3.2-2.1
			c3.1-0.4,3.4,2,3.4,4c0.4,11.8,0.4,23.6,0,35.4C447,292.9,445.5,295.1,441.6,294z"/>
		<path class="st124" d="M483,265.8c-1.6,0.2-3.4,1.9-4.9,0.7c-1.7-1.5,0.3-3.1,0.7-4.7c1.8-6.8-1.8-13.1-8.4-14.4
			c-0.2-1.7,1.5-1.6,2.2-2.4c3.8,1.1,7.3,2.6,10.4,5.2c0.8,2.7,2.4,5,4,7.3C485.7,260.2,484.3,263,483,265.8z"/>
		<path class="st123" d="M434.3,245.9c1.6,1.1,1.9,2.6,1,4.3C434,249,433.5,247.6,434.3,245.9z"/>
		<path class="st122" d="M487.1,257.4c-2.5-1.8-3.7-4.3-4-7.3C484.7,252.4,486.2,254.7,487.1,257.4z"/>
		<path class="st125" d="M413.6,363.7c6.7,0.6,14.4,1.2,22.1,2.2c4.1,0.5,8.3,1.2,8.9,6.9c0.8,7.6-1.2,12.5-6.4,15.1
			c-9.9,5-27.7-1.8-31.6-12.2c-0.6-1.6-1-3.3-1.1-5C405.2,364.7,406.7,363.3,413.6,363.7z"/>
		<path class="st126" d="M301.8,363.3c-0.1,6.1-0.6,10.9-2.1,15.6c-2.3,7.4-9.8,9.4-15.6,4.4c-1.9-1.6-3.4-3.5-4.1-5.9
			c-2.8-8.7-3.5-17.4,0.1-26c3.5-8.3,12.2-9.4,17.6-2.2C301,353.7,302.1,358.9,301.8,363.3z"/>
		<path class="st127" d="M547.2,373.4c-8,0.1-8.1,0-8.2-6.1c-0.2-11.9,0.7-13.4,8.4-13.5c7.3-0.2,13.2,4.4,13.2,10.2
			C560.7,370.9,557.3,373.3,547.2,373.4z"/>
		<path class="st128" d="M548.1,349.4c-8.1,0-9-0.9-9-10c0-7.9,0.7-8.8,7.9-8.8c7.6,0,11.7,3.8,11.7,10.7
			C558.6,347.4,556,349.3,548.1,349.4z"/>
		<path class="st129" d="M58.4,201c7.4,3.1,11.2,9,12.4,16.6c1.5,9.5-2.7,14.2-12.4,14.7c-6.7-2.5-7.3-3.2-7.4-10.9
			c-0.1-4.9,0.1-9.8-0.5-14.7C49.9,201.9,53.3,199.4,58.4,201z"/>
		<path class="st100" d="M59.3,169.6c7.1,4.8,8.9,10.4,5.8,18.1c-1.7,4.1-4.7,6.1-9,6.4c-3.9-0.9-6.4-2.5-5.8-7.5
			c0.4-3.6-0.6-7.4-0.3-11c0.5-5.6,1.3-6.2,6.8-6.2C57.7,169.2,58.5,169.2,59.3,169.6z"/>
		<path class="st130" d="M58.4,201c-3.9,0.5-5.3,2.7-5.2,6.7c0.1,4.6,0,9.2,0.2,13.8c0.2,4.6,0.8,8.4,5,10.8c-7-0.1-8.7-1.6-9.2-8.8
			c-0.4-5.9,0-11.8-0.8-17.6c-0.4-2.5,0.5-4.9,2.9-6.2C53.8,198.5,56.3,199,58.4,201z"/>
		<path class="st131" d="M59.3,169.6c-6.6,1.6-8.2,3.5-7,10.1c0.9,4.9-0.9,10.5,3.7,14.3c-5.8,0.5-7.8-1.1-8-6.5
			c-0.2-3.6-0.1-7.3-0.1-10.9C48.1,167.7,51,166,59.3,169.6z"/>
		<path class="st132" d="M275.1,184.2c-6.6,0.1-7.6-1.5-5.5-7.8c1.3-4,2.4-8,3.6-12c0.3-1,0.6-2.2,1.8-2.3c1.3,0,1.4,1.3,1.7,2.2
			c1.4,3.9,2.8,7.8,4.1,11.8C283,182.8,282,184.2,275.1,184.2z"/>
		<path class="st133" d="M333.9,280.4c-8.8,0.1-9.4-0.9-6.1-9.2c1.1-2.7,1.9-5.6,2.9-8.3c0.3-0.7,1-1.6,1.6-1.8
			c1.3-0.3,1.7,0.9,2,1.8c1.9,5,3.7,10.1,5.6,15.1c0.7,1.7,0,2.3-1.5,2.4C336.9,280.4,335.4,280.4,333.9,280.4z"/>
		<path class="st124" d="M441.6,294c1.8-1.2,2.9-3,2.9-5.2c0-11.9,0-23.8-0.1-35.7c0-1-0.5-2-0.8-3c0.6-3.5,3.1-4.3,6.1-4.1
			c2.2,0.1,5.1-0.8,5.3,3.1c2.1,6.6,2.5,13.3,0,19.9c0,1.7,0,3.4,0,5.1c1.5,2.9,1.7,6.1,1.6,9.4c-0.1,3.6,0.7,7.1,1.5,10.6
			C453.2,297.1,444.7,297,441.6,294z"/>
		<path class="st111" d="M458.2,294.1c-2.3-0.3-4-1.4-4-3.9c0-5.3-1-10.8,0.9-16c2.7,0.4,5.4,0.7,8.1,1.1c1.5,0.2,3.1,0.2,4.5,0.7
			c4.3,1.6,7.4,4.8,7.5,9.6c0.1,4.5-3.8,6.1-7.4,7.5C464.6,294.3,461.3,293.1,458.2,294.1z"/>
		<path class="st111" d="M455,269c-1.6-6.6-1.6-13.3,0-19.9c2.3,1.2,4.8,1.9,7.4,2.1c1.4,0.1,2.8,0.3,4.1,0.7c4.4,1.4,7.4,4.7,7.4,9
			c0,4.6-4,6.8-8,7.6C462.3,269.2,458.7,268.9,455,269z"/>
	</g>
</g>
</svg>
