<svg id="Layer_1" data-name="Layer 1" xmlns="http://www.w3.org/2000/svg" viewBox="0 0 343.16 58.46"><defs><style>.cls-1{fill:#fff;}</style></defs><title>Artboard 2</title><path class="cls-1" d="M36.36,27a.25.25,0,0,1,0,.07A.25.25,0,0,0,36.36,27Z"/><path class="cls-1" d="M36.32,27s0,0,0,.05S36.33,27,36.32,27Z"/><path class="cls-1" d="M36,26.56Z"/><path class="cls-1" d="M36.09,26.65h0Z"/><path class="cls-1" d="M34.58,23.45s0,0,0,.06A.14.14,0,0,1,34.58,23.45Z"/><path class="cls-1" d="M36.28,26.9l0,0Z"/><path class="cls-1" d="M36.16,26.73a0,0,0,0,1,0,0A0,0,0,0,0,36.16,26.73Z"/><path class="cls-1" d="M36.22,26.82s0,0,0,0S36.23,26.83,36.22,26.82Z"/><path class="cls-1" d="M49.58,31.73c-1,0-.85-.44-.68-.8s.65-.39.68-.6A.91.91,0,0,0,49,29.2c-1.71-.76-.45.77-1.2,1-.33.1-.32-.16-.6-.13s-1,.52-.64,1,.57.25,1.14.62A.78.78,0,0,1,48,32.79c-.47.7-1.36-.52-1.54-.07-.3.8-.61.76-.87.76s-.58,0-.88-.76c-.17-.45-1.07.77-1.53.07a.78.78,0,0,1,.29-1.08c.57-.37.81-.13,1.14-.62s-.23-1-.64-1-.27.23-.61.13c-.74-.22.52-1.75-1.19-1a.92.92,0,0,0-.6,1.13c0,.21.55.31.69.6s.29.8-.67.8a.43.43,0,0,0-.29.79c.45.36,1,.27,1,.64,0,.59-.52.5-.44,1,.06.31.35.39.52.53a1.05,1.05,0,0,1,.26.91,3.84,3.84,0,0,1,.54,1.07,3.26,3.26,0,0,0,.79-.93c.09-.3-.12-.3-.32-.45s-1-1-.72-1.45c.43-.67,1.39.61,1.65.1s.81.17.74.63c-.41,2.63-1.72,2.72-.79,3.37.36.25,1.18.15.72,1-.56,1-2,2-.7,2.41s-.06,2,1.06,2-.23-1.67,1-2S46.47,40,45.91,39c-.46-.87.36-.77.71-1,.94-.65-.37-.74-.78-3.37-.07-.46.45-1.09.74-.63s1.21-.77,1.64-.1c.31.48-.42,1.23-.71,1.45s-.42.15-.32.45a3.26,3.26,0,0,0,.79.93,4,4,0,0,1,.54-1.07,1,1,0,0,1,.26-.91c.16-.14.46-.22.51-.53.09-.49-.48-.4-.43-1,0-.37.55-.28,1-.64A.43.43,0,0,0,49.58,31.73Z"/><path class="cls-1" d="M36.1,26.66l.06.07Z"/><polygon class="cls-1" points="34.58 23.44 34.58 23.44 34.58 23.45 34.58 23.44"/><path class="cls-1" d="M36,26.56a.71.71,0,0,0,.07.09A.71.71,0,0,1,36,26.56Z"/><path class="cls-1" d="M36.38,27.11a.15.15,0,0,1,0,.07A.15.15,0,0,0,36.38,27.11Z"/><path class="cls-1" d="M36.17,26.76l0,.06Z"/><path class="cls-1" d="M36.34,27l0,0Z"/><path class="cls-1" d="M36.3,26.93l0,0Z"/><path class="cls-1" d="M36.24,26.85l0,0Z"/><path class="cls-1" d="M49.58,31.73c-1,0-.85-.44-.68-.8s.65-.39.68-.6A.91.91,0,0,0,49,29.2c-1.71-.76-.45.77-1.2,1-.33.1-.32-.16-.6-.13s-1,.52-.64,1,.57.25,1.14.62A.78.78,0,0,1,48,32.79c-.47.7-1.36-.52-1.54-.07-.3.8-.61.76-.87.76s-.58,0-.88-.76c-.17-.45-1.07.77-1.53.07a.78.78,0,0,1,.29-1.08c.57-.37.81-.13,1.14-.62s-.23-1-.64-1-.27.23-.61.13c-.74-.22.52-1.75-1.19-1a.92.92,0,0,0-.6,1.13c0,.21.55.31.69.6s.29.8-.67.8a.43.43,0,0,0-.29.79c.45.36,1,.27,1,.64,0,.59-.52.5-.44,1,.06.31.35.39.52.53a1.05,1.05,0,0,1,.26.91,3.84,3.84,0,0,1,.54,1.07,3.26,3.26,0,0,0,.79-.93c.09-.3-.12-.3-.32-.45s-1-1-.72-1.45c.43-.67,1.39.61,1.65.1s.81.17.74.63c-.41,2.63-1.72,2.72-.79,3.37.36.25,1.18.15.72,1-.56,1-2,2-.7,2.41s-.06,2,1.06,2-.23-1.67,1-2S46.47,40,45.91,39c-.46-.87.36-.77.71-1,.94-.65-.37-.74-.78-3.37-.07-.46.45-1.09.74-.63s1.21-.77,1.64-.1c.31.48-.42,1.23-.71,1.45s-.42.15-.32.45a3.26,3.26,0,0,0,.79.93,4,4,0,0,1,.54-1.07,1,1,0,0,1,.26-.91c.16-.14.46-.22.51-.53.09-.49-.48-.4-.43-1,0-.37.55-.28,1-.64A.43.43,0,0,0,49.58,31.73Z"/><path class="cls-1" d="M49.58,31.73c-1,0-.85-.44-.68-.8s.65-.39.68-.6A.91.91,0,0,0,49,29.2c-1.71-.76-.45.77-1.2,1-.33.1-.32-.16-.6-.13s-1,.52-.64,1,.57.25,1.14.62A.78.78,0,0,1,48,32.79c-.47.7-1.36-.52-1.54-.07-.3.8-.61.76-.87.76s-.58,0-.88-.76c-.17-.45-1.07.77-1.53.07a.78.78,0,0,1,.29-1.08c.57-.37.81-.13,1.14-.62s-.23-1-.64-1-.27.23-.61.13c-.74-.22.52-1.75-1.19-1a.92.92,0,0,0-.6,1.13c0,.21.55.31.69.6s.29.8-.67.8a.43.43,0,0,0-.29.79c.45.36,1,.27,1,.64,0,.59-.52.5-.44,1,.06.31.35.39.52.53a1.05,1.05,0,0,1,.26.91,3.84,3.84,0,0,1,.54,1.07,3.26,3.26,0,0,0,.79-.93c.09-.3-.12-.3-.32-.45s-1-1-.72-1.45c.43-.67,1.39.61,1.65.1s.81.17.74.63c-.41,2.63-1.72,2.72-.79,3.37.36.25,1.18.15.72,1-.56,1-2,2-.7,2.41s-.06,2,1.06,2-.23-1.67,1-2S46.47,40,45.91,39c-.46-.87.36-.77.71-1,.94-.65-.37-.74-.78-3.37-.07-.46.45-1.09.74-.63s1.21-.77,1.64-.1c.31.48-.42,1.23-.71,1.45s-.42.15-.32.45a3.26,3.26,0,0,0,.79.93,4,4,0,0,1,.54-1.07,1,1,0,0,1,.26-.91c.16-.14.46-.22.51-.53.09-.49-.48-.4-.43-1,0-.37.55-.28,1-.64A.43.43,0,0,0,49.58,31.73Z"/><path class="cls-1" d="M49.58,31.73c-1,0-.85-.44-.68-.8s.65-.39.68-.6A.91.91,0,0,0,49,29.2c-1.71-.76-.45.77-1.2,1-.33.1-.32-.16-.6-.13s-1,.52-.64,1,.57.25,1.14.62A.78.78,0,0,1,48,32.79c-.47.7-1.36-.52-1.54-.07-.3.8-.61.76-.87.76s-.58,0-.88-.76c-.17-.45-1.07.77-1.53.07a.78.78,0,0,1,.29-1.08c.57-.37.81-.13,1.14-.62s-.23-1-.64-1-.27.23-.61.13c-.74-.22.52-1.75-1.19-1a.92.92,0,0,0-.6,1.13c0,.21.55.31.69.6s.29.8-.67.8a.43.43,0,0,0-.29.79c.45.36,1,.27,1,.64,0,.59-.52.5-.44,1,.06.31.35.39.52.53a1.05,1.05,0,0,1,.26.91,3.84,3.84,0,0,1,.54,1.07,3.26,3.26,0,0,0,.79-.93c.09-.3-.12-.3-.32-.45s-1-1-.72-1.45c.43-.67,1.39.61,1.65.1s.81.17.74.63c-.41,2.63-1.72,2.72-.79,3.37.36.25,1.18.15.72,1-.56,1-2,2-.7,2.41s-.06,2,1.06,2-.23-1.67,1-2S46.47,40,45.91,39c-.46-.87.36-.77.71-1,.94-.65-.37-.74-.78-3.37-.07-.46.45-1.09.74-.63s1.21-.77,1.64-.1c.31.48-.42,1.23-.71,1.45s-.42.15-.32.45a3.26,3.26,0,0,0,.79.93,4,4,0,0,1,.54-1.07,1,1,0,0,1,.26-.91c.16-.14.46-.22.51-.53.09-.49-.48-.4-.43-1,0-.37.55-.28,1-.64A.43.43,0,0,0,49.58,31.73Z"/><path class="cls-1" d="M35.86,35a3.68,3.68,0,0,1-.41,0,7.49,7.49,0,0,1-2.35-.66c-.23.27.35.75-.2,1A2.45,2.45,0,0,1,31,35.14c-.73-.32-1.33-1.23-1.61-1.41s-.39-.13-.43.36-.15,1.46-2.09,1.12c-.38-.06-.84-.67-.91-.9a.46.46,0,0,0-.5-.36c-.26,0-.21.48-.23.79s-.37.34-.55.33a5.41,5.41,0,0,0-1.19-.29c-.44,0-.53.22-.54.35s-.05.23.28.43c.49.29,1.66-.15,1.91.36a1.71,1.71,0,0,1,0,1.1c-.05.24-.07.52.25.56,1,.12,0-2.23,3.15-1.52a1.22,1.22,0,0,1,.88,1c0,.29.23.33.4,0a5,5,0,0,1,.63-.76A2.68,2.68,0,0,1,33,36a1.36,1.36,0,0,1,.73.66c.2.41.14.6.37.58s.34-.19.53-.59a1.71,1.71,0,0,1,.92-1l1.08-.48a.15.15,0,0,0,0-.24C36.54,34.88,36.2,35,35.86,35Z"/><path class="cls-1" d="M33.13,29.52c.06-.37-.64-.31-.73-.79-.22-1.2-.48-1.45-1.32-.44-.51.61-2.82-.06-3.09-.83s.06-1.24-.63-1.18-.29,1.58-1.89.42c-1.18-.85-1.81.47-.79.63,2.06.32,1.62,1.05,1.4,1.55-.1.23.19.69.63.27a2.35,2.35,0,0,1,2.3-.43c1.14.27,1.41.47,1.57.82s0,1.33.36,1.42c.65.15.63-.69,1-.93S33.06,30,33.13,29.52Z"/><path class="cls-1" d="M35.46,41.42a6.45,6.45,0,0,1-1.1.17A2,2,0,0,1,32.82,41c-.31-.34-.51-.34-.63-.28-.37.19.42,1.19-.46,1.47-.39.12-1.94.47-2.62-.27s-.88-.69-1-.62c-.57.26.06,1-.35,1.31s-2.1-.31-2.12.45,1,.33,1.37.18c.64-.29,1.3.07,1.33.34s.07,1.06.37,1,.66-.66.79-.84c.3-.43.78-1,2.34-1,0,0,.81,0,.85.43s0,1.14.34,1.09.42-.72.51-.95a2.51,2.51,0,0,1,1.56-1.2c.66-.24.81-.35.69-.58A.3.3,0,0,0,35.46,41.42Z"/><path class="cls-1" d="M55.35,41.51c-.2.19,0,.33.06.36a6.91,6.91,0,0,1,.65.24,2.7,2.7,0,0,1,1.57,1.2c.09.23.17.9.5.95s.31-.66.35-1.09.85-.43.85-.43c1.56,0,2,.57,2.34,1,.12.18.49.81.79.84s.34-.77.37-1,.69-.63,1.33-.34c.33.15,1.39.57,1.37-.18s-1.59,0-2.12-.45.22-1-.35-1.31c-.15-.07-.35-.12-1,.62s-2.24.39-2.62.27c-.88-.28-.09-1.28-.46-1.47-.12-.06-.32-.06-.63.28a2,2,0,0,1-1.54.63,6.7,6.7,0,0,1-1.11-.17A.38.38,0,0,0,55.35,41.51Z"/><path class="cls-1" d="M54.45,35.24s.93.31,1.16.42a1.67,1.67,0,0,1,.91,1c.2.4.31.59.54.59s.17-.17.36-.58a1.44,1.44,0,0,1,.73-.66,2.68,2.68,0,0,1,2.56.31,4.88,4.88,0,0,1,.64.76c.17.29.37.25.4,0a1.23,1.23,0,0,1,.87-1c3.19-.71,2.12,1.64,3.16,1.52.32,0,.3-.32.25-.56a1.71,1.71,0,0,1,0-1.1c.25-.51,1.42-.07,1.91-.36.32-.2.29-.31.28-.43s-.1-.34-.54-.35a5.52,5.52,0,0,0-1.2.29c-.17,0-.52,0-.54-.33s0-.75-.24-.79a.45.45,0,0,0-.49.36c-.07.23-.53.84-.91.9-1.94.34-2.05-.62-2.09-1.12s-.16-.55-.43-.36-.88,1.09-1.62,1.41a2.43,2.43,0,0,1-1.91.17c-.56-.27,0-.75-.2-1a7.46,7.46,0,0,1-2.36.66,3.29,3.29,0,0,1-.4,0c-.18,0-.72-.06-.85-.07S54.18,35.1,54.45,35.24Z"/><path class="cls-1" d="M59.12,30.05a1.73,1.73,0,0,1,.47.71.52.52,0,0,0,.69.19c.35-.2.07-1,.28-1.41s.43-.55,1.57-.82a2.35,2.35,0,0,1,2.3.43c.43.42.72,0,.62-.27-.21-.5-.65-1.23,1.41-1.55,1-.16.38-1.48-.79-.63-1.6,1.16-1.2-.35-1.9-.42s-.36.41-.63,1.18-2.55,1.43-3.08.83c-1.26-1.41-1.17-.07-1.41.56-.12.3-.76.35-.72.67S58.71,29.68,59.12,30.05Z"/><path class="cls-1" d="M45.26,18.65a.33.33,0,0,0,.32.22.28.28,0,0,0,.3-.22,1.06,1.06,0,0,1,1-1.1c.35-.09.63-.15.54-.42s-1-.16-1.25-.53c-1-1.46,2.25-2.12,1.65-3-.18-.26-1.09-.09-1.56-.29s-.26-1-.19-1.32-.06-.67-.49-.67-.57.3-.49.67.28,1.11-.19,1.32-1.38,0-1.56.29c-.6.86,2.61,1.52,1.64,3-.24.37-1.14.17-1.24.53s.19.33.54.42C45,17.71,45.24,18,45.26,18.65Z"/><path class="cls-1" d="M52.53,21.21c.19-.56-.72-.9-.2-1.43.68-.7,1.34.15,1.74-.53s-.51-.73-.37-1.6.8-1.54,1.77-1.19,1.43-.28,1.23-.52-.81-.25-1-.53.07-.79.45-1.08c1-.73-.84-1.48-.81-.21,0,.57-.81.9-1.23.66-1-.57-1.66,0-.76.8.71.66.1,1.22-.39,1.45s-1-.09-1.24.1-.42.61.08,1.51c.4.71-.38,1.94-1.73,2-.32,0-.82-.17-1.2.23s.28.57.42,1.29-.82,1.77-.46,2,.88-1.29,1.3-1.69C51.29,21.4,52.29,21.92,52.53,21.21Z"/><path class="cls-1" d="M78.33,36.76V23.85c0-.17.82-17.39-15.58-22.23a36.66,36.66,0,0,0-28.2,2.73V1.74H0V18.16H13v18.6H0V53.35H38.18a6,6,0,0,0,4-1.54,5.11,5.11,0,0,0,.92-1.25h5a6.08,6.08,0,0,0,.56.75,7.26,7.26,0,0,0,5.61,2H91V36.76Zm-35,6.89v6H41.92v-7a3,3,0,0,0,1.39.47c0,.1,0,.21,0,.32S43.31,43.6,43.31,43.65Zm1.93,6H43.85V44.89a2.09,2.09,0,0,0,1.39.7Zm2,0H45.9V45.59a2.09,2.09,0,0,0,1.39-.7Zm1.93,0H47.83v-6s0-.1,0-.15,0-.21,0-.31a3,3,0,0,0,1.39-.47Zm-1.3-11.12c-.8.43,1.55,2.4,1,3.25-.77.79-1.93.26-2,.88s.2,2-1.39,2-1.36-1.53-1.39-2-1.21-.09-2-.88c-.53-.85.86-1.84,1.16-2.9a.32.32,0,0,0-.2-.4c-.32-.1-.85.32-1.18.74a2.7,2.7,0,0,0-.47,1.06A6.82,6.82,0,0,1,37.78,45s-1,.17-1.13-.79-.55-.83-.71-.79a1.78,1.78,0,0,0-.83.76c-.24.44-1.23,2.2-2.5,2.25s-1-1.51-1-1.51a.43.43,0,0,0-.3-.57.73.73,0,0,0-.92.29c-.2.27-1.26,1.87-2.51,1.87s-1-1.29-.81-1.53c.29-.4.64-1.52-1.59-.58-1.3.55-1.68-.42-1.66-1.22s.31-1.87,1.14-1.91c0,0,.67,0,.87.37a.51.51,0,0,0,.71.18c.11,0,.25-.35.13-.78s-.07-1.38.53-1.51a1.41,1.41,0,0,1,1.44.82,1.48,1.48,0,0,0,1.48.62.74.74,0,0,0,.61-.88c-.11-.54.16-1.48.81-1.48s.81.5,1,.92a1.36,1.36,0,0,0,1.58.66c.24,0,.85-.31.81-.64,0-.57-.91-.11-1.36-.14a1,1,0,0,1-.85-1.23c.07-.38.2-1-.42-1.27s-1.57,1.31-1.77,1.62a1.7,1.7,0,0,1-1.58.94c-.63-.09-.61-1-.56-1.27s0-.93-.52-1.08c-1-.25-1.48,1.15-1.75,1.68a1.29,1.29,0,0,1-1.81.55c-.77-.45-.39-1.54-.37-1.85a1.49,1.49,0,0,0-.08-.79c-.2-.37-.71,0-1.33.06-.88.13-1.15-1.14-1.16-1.77-.05-2.14,1.44-1.59,1.68-1.47a.8.8,0,0,0,.8.09c.25-.1.16-.38.2-.81s.17-1.16.84-1.19a1.4,1.4,0,0,1,1.6,1.07.61.61,0,0,0,.68.56c.29,0,.39-.17.39-.53S27,31.22,28.05,31c.67-.1,1.08,1.11,2.09,1.92.4.32,1.38,1.09,1.73.43a.81.81,0,0,0,0-.65.48.48,0,0,0-.55-.32c-.78.25-1.74-.6-2-1.38-.19-.61-.18-.73-.51-1a1,1,0,0,0-1.21.25A3.77,3.77,0,0,1,25,31a.89.89,0,0,1-.55-1.4c.26-.41.61-.89.18-1.23a.69.69,0,0,0-.84-.13c-.45.14-1.64-.25-1.36-1.81s1.3-1.62,1.73-1.54,1.76,1.41,2.05,0a1.16,1.16,0,0,1,1.16-1,1.48,1.48,0,0,1,1.3,1c.1.42.36,2,1.55,2.12.92.07,1.42-.61,2.44-.46a1.23,1.23,0,0,1,.9,1.09,1.13,1.13,0,0,0,1,.86,1.36,1.36,0,0,0,.68,0,1.42,1.42,0,0,0,1.18-1.34h0a.15.15,0,0,0,0-.07.25.25,0,0,0,0-.07l0,0s0,0,0-.05l0,0,0,0,0,0s0,0,0,0l0-.06a0,0,0,0,0,0,0l-.06-.07h0a.71.71,0,0,1-.07-.09h0a6.75,6.75,0,0,0-.78-.76,2.91,2.91,0,0,1-.77-1.26,2.14,2.14,0,0,1,.09-1,.14.14,0,0,1,0-.06h0c.08-.31-.1-.61-.65-.38a1.2,1.2,0,0,1-1,0c-1.18-1.05-.74-1.65-.28-2.17.25-.27.15-1.05-.41-.71s-1.36.12-1.62-.75c-.09-.35-.25-.74-.72-.46-.26.15-.25.53.13.91a.91.91,0,0,1-.08,1.49c-.48.24-.18.85.49.73a1.47,1.47,0,0,1,1.45.59c.51.58.69.81.53,1.29s-.72.53-.5.89,1.49-.31,2,.24a5.15,5.15,0,0,1,1.24,2.1s.06.39-.12.53a.51.51,0,0,1-.72-.38,2.54,2.54,0,0,0-1.25-1.39,6.39,6.39,0,0,0-1.92.08c-1.61,0-1.33-1.24-.76-1.53.77-.4,0-1.28-.71-1s-2,.08-2.29-.68a1.23,1.23,0,0,1,.79-1.59c.71-.31,1.23-.95.51-1.61-.39-.36-1.57-1.35.2-2.21,1.48-.72,2.28.29,2.3.95s.53,1.17,1.47.41c.3-.24,1.27-.61,1.65-.2.61.65-.15,1.5-.37,2-.43,1.09.54,1.11.85.81a1.07,1.07,0,0,1,1.2-.18,1,1,0,0,1,.24.26,3.1,3.1,0,0,1,.2.89c0,.6.42.65.56.45a3.93,3.93,0,0,0,.17-1.39c0-.42-.06-.8-.63-.9-.33-.05-1,.06-1.32-.58a.85.85,0,0,1,.28-1.16.5.5,0,0,0,.2-.68c-.11-.36-.67-.49-1.69-.38a1.58,1.58,0,0,1-1.49-.47c-.86-1,.67-1.69,1-1.9.84-.55,0-.86-.31-1.33-.71-1.15,2.17-2.47,3-1.59.4.42.28,1.08.68,1.17a1,1,0,0,0,.95-.29A1.6,1.6,0,0,1,39.48,13c.86.34.37,1.13.13,1.49s-.15.72.15.82,1.07-.5,1.44.2c.12.22-.11.62-.38,1.17a2.18,2.18,0,0,0,.14,2.2c.61.67,1.43.11,2,.49.2.13.78.5,1.07.23a.7.7,0,0,0-.7-1.08c-1.11.13-1.69-.38-1.8-1-.07-.41.11-1.57,1.07-1.57a.71.71,0,0,0,.67-.36s.11-.39-.56-.6-1.8-.77-1.63-1.65a1.71,1.71,0,0,1,2.25-1c.52.19,1.08-.12.81-.68S43.58,10,45.57,10,47.3,11.14,47,11.69s.28.87.81.68a1.71,1.71,0,0,1,2.25,1c.17.88-1,1.45-1.63,1.65s-.56.6-.56.6a.71.71,0,0,0,.67.36c.95,0,1.14,1.16,1.07,1.57-.11.6-.69,1-1.8,1-.92,0-1.07.84-.72,1.05s.89-.07,1.08-.2c.55-.38,1.37.18,2-.49a2.2,2.2,0,0,0,.14-2.2c-.28-.55-.51-.95-.39-1.17.37-.7,1.2-.11,1.45-.2s.43-.37.14-.82-.72-1.15.13-1.49a1.62,1.62,0,0,1,1.62.27,1,1,0,0,0,.95.29c.4-.09.27-.75.68-1.17.86-.88,3.74.44,3,1.59-.28.47-1.14.78-.3,1.33.32.21,1.85.94,1,1.9a1.58,1.58,0,0,1-1.49.47c-1-.11-1.58,0-1.7.38a.51.51,0,0,0,.21.68.85.85,0,0,1,.28,1.16c-.34.64-1,.53-1.33.58-.77.14-.66.79-.56,1.37a.41.41,0,0,0,.31.29c.25,0,.36-.06.39-.18.09-.39.12-.58.41-.79a1.07,1.07,0,0,1,1.2.18c.31.3,1.28.28.84-.81-.21-.52-1-1.37-.36-2,.37-.41,1.35,0,1.65.2.94.76,1.46.1,1.47-.41s.82-1.67,2.3-.95c1.76.86.59,1.85.19,2.21-.71.66-.19,1.3.52,1.61a1.24,1.24,0,0,1,.79,1.59c-.32.76-1.6.91-2.29.68s-1.49.64-.71,1c.57.29.84,1.55-.76,1.53a6.39,6.39,0,0,0-1.92-.08,2.54,2.54,0,0,0-1.25,1.39.51.51,0,0,1-.72.38c-.19-.14-.12-.53-.12-.53a5,5,0,0,1,1.24-2.1c.56-.55,1.85.08,2-.24s-.37-.5-.5-.89,0-.71.53-1.29a1.47,1.47,0,0,1,1.45-.59c.67.12,1-.49.49-.73a.9.9,0,0,1-.08-1.49c.38-.38.39-.76.13-.91-.48-.28-.63.11-.73.46-.25.87-.93,1.17-1.62.75s-.65.44-.41.71c.47.52.9,1.12-.27,2.17a1.22,1.22,0,0,1-1,0c-.61-.26-.76.16-.6.51a2.1,2.1,0,0,1,.07,1,4.26,4.26,0,0,1-.77,1.26c-.26.35-.94.8-1.14,1.31s.45,1.25,1.17,1.42a1.28,1.28,0,0,0,1.66-.88,1.2,1.2,0,0,1,.9-1.09c1-.15,1.52.53,2.43.46,1.2-.09,1.46-1.7,1.55-2.12a1.5,1.5,0,0,1,1.31-1,1.16,1.16,0,0,1,1.16,1c.29,1.38,1.61.05,2,0s1.45,0,1.73,1.54-.91,1.95-1.36,1.81a.69.69,0,0,0-.84.13c-.43.34-.08.82.17,1.23a.89.89,0,0,1-.54,1.4,3.77,3.77,0,0,1-2.65-.66,1,1,0,0,0-1.21-.25c-.33.24-.32.36-.51,1a2.07,2.07,0,0,1-2,1.38.66.66,0,0,0-.54.36.69.69,0,0,0,0,.61c.28.68,1.32-.11,1.72-.43,1-.81,1.43-2,2.1-1.92,1.09.18.45,1.16.45,1.63s.1.51.39.53.58-.18.68-.56a1.4,1.4,0,0,1,1.6-1.07c.66,0,.8.75.84,1.19s0,.71.19.81a.82.82,0,0,0,.81-.09c.23-.12,1.64-.65,1.68,1.47,0,.71-.28,1.9-1.16,1.77-.62-.1-1.13-.43-1.33-.06a1.48,1.48,0,0,0-.09.79c0,.31.41,1.4-.36,1.85A1.29,1.29,0,0,1,65,38.75c-.27-.53-.78-1.93-1.75-1.68-.56.15-.57.77-.52,1.08s.07,1.18-.56,1.27a1.69,1.69,0,0,1-1.58-.94c-.2-.31-1.16-1.9-1.78-1.62s-.48.89-.41,1.27a1,1,0,0,1-.85,1.23,2.45,2.45,0,0,1-1-.15.24.24,0,0,0-.35.22c0,.37.6.66.84.71a1.36,1.36,0,0,0,1.58-.66c.21-.42.34-.92,1-.92s.92.94.8,1.48a.75.75,0,0,0,.62.88,1.48,1.48,0,0,0,1.48-.62,1.41,1.41,0,0,1,1.44-.82c.6.13.65,1.08.53,1.51s0,.74.13.78a.52.52,0,0,0,.71-.18c.2-.4.87-.37.87-.37.83,0,1.12,1.11,1.14,1.91s-.36,1.77-1.66,1.22c-2.23-.94-1.88.18-1.6.58.16.24.45,1.53-.8,1.53s-2.32-1.6-2.52-1.87a.72.72,0,0,0-.92-.29.43.43,0,0,0-.3.57s.31,1.56-1,1.51S56.26,44.57,56,44.13a1.77,1.77,0,0,0-.82-.76c-.16,0-.6-.15-.72.79s-1.12.79-1.12.79a6.84,6.84,0,0,1-3.73-4.64C49.42,39.35,48.39,38.39,47.92,38.56ZM88.7,51.1H54.26a5.15,5.15,0,0,1-3.93-1.29,2.09,2.09,0,0,1-.23-.29V43.41A6.54,6.54,0,0,0,53,45.76l.09,0,.09,0s.16,0,.33,0a1.73,1.73,0,0,0,1.75-1.22C56,45.81,57,47.2,58.5,47.26A1.74,1.74,0,0,0,60,46.65a2.08,2.08,0,0,0,.42-1,4,4,0,0,0,2.84,1.71h0a1.74,1.74,0,0,0,1.63-.89,2.16,2.16,0,0,0,.15-1.4l.27.11a2,2,0,0,0,2.28-.28,2.44,2.44,0,0,0,.61-1.77c0-1.55-.78-2.64-1.87-2.76a2.07,2.07,0,0,0,.92-.29,2.24,2.24,0,0,0,.83-2.55l.37.08.23,0c1.15,0,1.89-1.34,1.94-2.54a1.33,1.33,0,0,1,0-.17c-.12-2.22-1.39-2.46-1.93-2.46a2.06,2.06,0,0,0-.76.14,2.31,2.31,0,0,0-.55-1.38,1.43,1.43,0,0,0,.26-.45,1.86,1.86,0,0,0-.18-1.63h.1a2.07,2.07,0,0,0,1.57-.75,2.47,2.47,0,0,0,.46-2.12c-.38-2.13-1.89-2.3-2.34-2.3a2.71,2.71,0,0,0-.41,0,2.4,2.4,0,0,0-.77.35l-.31.18a2.17,2.17,0,0,0-1.25-1.37.2.2,0,0,0,0-.08,2.08,2.08,0,0,0-1.25-2.73A1.12,1.12,0,0,1,63,20.2l0,0a2.36,2.36,0,0,0,1-2,2.2,2.2,0,0,0-1.42-1.61,3,3,0,0,0-1.35-.34,2.23,2.23,0,0,0-1.53.59,2,2,0,0,0,0-.43,2.54,2.54,0,0,0-1.31-1.62,2.78,2.78,0,0,0,.26-.32,1.66,1.66,0,0,0,0-1.68,3.64,3.64,0,0,0-3-1.55,2,2,0,0,0-1.47.56,2.08,2.08,0,0,0-.47.79A2.57,2.57,0,0,0,52.21,12a2.43,2.43,0,0,0-.89.17,1.7,1.7,0,0,0-.61.4,2.59,2.59,0,0,0-2.25-1.18,2.73,2.73,0,0,0-.41,0,1.85,1.85,0,0,0-.21-1.36,2.42,2.42,0,0,0-2.23-1h0a2.48,2.48,0,0,0-2.27,1,1.85,1.85,0,0,0-.2,1.34l-.42,0a2.58,2.58,0,0,0-2.24,1.18,1.85,1.85,0,0,0-.62-.4,2.38,2.38,0,0,0-.88-.17,2.57,2.57,0,0,0-1.59.56,2.22,2.22,0,0,0-.47-.79,2,2,0,0,0-1.48-.56,3.64,3.64,0,0,0-3,1.55,1.63,1.63,0,0,0,0,1.68c.08.12.17.22.25.32a2.53,2.53,0,0,0-1.3,1.62,1.51,1.51,0,0,0,0,.43,2.23,2.23,0,0,0-1.53-.59,3,3,0,0,0-1.35.34,2.2,2.2,0,0,0-1.42,1.61,2.36,2.36,0,0,0,1,2l0,0a1.38,1.38,0,0,1-.26.15,2.08,2.08,0,0,0-1.25,2.74l0,.07a2.22,2.22,0,0,0-1.25,1.37l-.3-.18a2.4,2.4,0,0,0-.77-.35,2.71,2.71,0,0,0-.41,0c-.46,0-2,.17-2.35,2.3A2.47,2.47,0,0,0,22,28.38a2.07,2.07,0,0,0,1.57.75h.1a1.86,1.86,0,0,0-.18,1.63,1.43,1.43,0,0,0,.26.45,2.31,2.31,0,0,0-.55,1.38,2.1,2.1,0,0,0-.76-.14c-.54,0-1.92.32-1.93,2.46,0,1.53.8,2.71,1.95,2.71l.22,0,.38-.08a2.24,2.24,0,0,0,.83,2.55,2.07,2.07,0,0,0,.92.29c-1.1.12-1.84,1.21-1.88,2.77a2.53,2.53,0,0,0,.61,1.76,2,2,0,0,0,2.28.28l.28-.11a2.1,2.1,0,0,0,.15,1.4,1.73,1.73,0,0,0,1.63.89h0a4,4,0,0,0,2.84-1.71,2.08,2.08,0,0,0,.42,1,1.71,1.71,0,0,0,1.38.61h.1c1.47-.06,2.55-1.46,3.21-2.64a1.73,1.73,0,0,0,1.75,1.22c.17,0,.29,0,.32,0l.1,0,.09,0A6.6,6.6,0,0,0,41,43.41v6.2a2.72,2.72,0,0,1-.44.56,3.75,3.75,0,0,1-2.46.93H2.25V39h13V15.91h-13V4H32.3V8.55l1.78-1.27a34.16,34.16,0,0,1,28-3.51c14.67,4.33,14,19.32,14,20V39H88.7Z"/><path class="cls-1" d="M49.58,31.73c-1,0-.85-.44-.68-.8s.65-.39.68-.6A.91.91,0,0,0,49,29.2c-1.71-.76-.45.77-1.2,1-.33.1-.32-.16-.6-.13s-1,.52-.64,1,.57.25,1.14.62A.78.78,0,0,1,48,32.79c-.47.7-1.36-.52-1.54-.07-.3.8-.61.76-.87.76s-.58,0-.88-.76c-.17-.45-1.07.77-1.53.07a.78.78,0,0,1,.29-1.08c.57-.37.81-.13,1.14-.62s-.23-1-.64-1-.27.23-.61.13c-.74-.22.52-1.75-1.19-1a.92.92,0,0,0-.6,1.13c0,.21.55.31.69.6s.29.8-.67.8a.43.43,0,0,0-.29.79c.45.36,1,.27,1,.64,0,.59-.52.5-.44,1,.06.31.35.39.52.53a1.05,1.05,0,0,1,.26.91,3.84,3.84,0,0,1,.54,1.07,3.26,3.26,0,0,0,.79-.93c.09-.3-.12-.3-.32-.45s-1-1-.72-1.45c.43-.67,1.39.61,1.65.1s.81.17.74.63c-.41,2.63-1.72,2.72-.79,3.37.36.25,1.18.15.72,1-.56,1-2,2-.7,2.41s-.06,2,1.06,2-.23-1.67,1-2S46.47,40,45.91,39c-.46-.87.36-.77.71-1,.94-.65-.37-.74-.78-3.37-.07-.46.45-1.09.74-.63s1.21-.77,1.64-.1c.31.48-.42,1.23-.71,1.45s-.42.15-.32.45a3.26,3.26,0,0,0,.79.93,4,4,0,0,1,.54-1.07,1,1,0,0,1,.26-.91c.16-.14.46-.22.51-.53.09-.49-.48-.4-.43-1,0-.37.55-.28,1-.64A.43.43,0,0,0,49.58,31.73Z"/><path class="cls-1" d="M42.22,24.14c.41-.1-.52-1.29-.42-2s.76-.93.42-1.29-.88-.21-1.2-.23c-1.35-.08-2.13-1.31-1.74-2,.51-.9.35-1.3.08-1.51s-.74.15-1.23-.1-1.1-.79-.4-1.45c.91-.85.25-1.37-.76-.8-.42.24-1.24-.09-1.23-.66,0-1.27-1.81-.52-.8.21.38.29.67.66.45,1.08s-.67.19-1,.53.34.86,1.23.52,1.61.29,1.76,1.19-.67,1.06-.36,1.6,1.06-.17,1.73.53c.53.53-.38.87-.19,1.43s1.2.24,2.35,1.25C41.41,22.86,41.92,24.21,42.22,24.14Z"/><path class="cls-1" d="M38.91,27.08a5.66,5.66,0,0,0,1.64-1.42s.43-.62.85.07a1.77,1.77,0,0,1-.21,1.93,2,2,0,0,1-2.44.11s-.49-.37.16-.69Z"/><path class="cls-1" d="M38.61,26.74a3.4,3.4,0,0,0,1.55-1.43.75.75,0,0,0-.3-.91c-.53-.46-1.94-1.38-3-.68s.56,2.58.7,2.74a.83.83,0,0,0,1,.28Z"/><path class="cls-1" d="M37.06,32.89a4.76,4.76,0,0,0,.09-2.05s-.15-.72.68-.48a2,2,0,0,1,1.33,1.53,1.73,1.73,0,0,1-1.68,1.59s-.64.05-.42-.59Z"/><path class="cls-1" d="M36.59,32.83a2.86,2.86,0,0,0,0-2,.87.87,0,0,0-.9-.47c-.73,0-2.46.21-2.66,1.36s2.38,1.52,2.61,1.54a.81.81,0,0,0,.94-.43Z"/><path class="cls-1" d="M40.43,38.43A5.31,5.31,0,0,0,38.83,37s-.71-.37.05-.77a2.32,2.32,0,0,1,2.14.14,1.53,1.53,0,0,1,.18,2.2s-.39.45-.77-.12Z"/><path class="cls-1" d="M40.07,38.7a3.38,3.38,0,0,0-1.63-1.36,1,1,0,0,0-1,.29c-.49.5-1.48,1.79-.68,2.69s2.86-.56,3-.69a.7.7,0,0,0,.28-.93Z"/><path class="cls-1" d="M52.23,27.08a5.66,5.66,0,0,1-1.64-1.42s-.43-.62-.85.07a1.79,1.79,0,0,0,.2,1.93,2,2,0,0,0,2.44.11s.49-.37-.15-.69Z"/><path class="cls-1" d="M52.53,26.74A3.4,3.4,0,0,1,51,25.31a.75.75,0,0,1,.29-.91c.54-.46,1.94-1.38,3-.68s-.56,2.58-.7,2.74a.83.83,0,0,1-1,.28Z"/><path class="cls-1" d="M54.07,32.89A4.76,4.76,0,0,1,54,30.84s.16-.72-.67-.48A2,2,0,0,0,52,31.89a1.73,1.73,0,0,0,1.69,1.59s.64.05.41-.59Z"/><path class="cls-1" d="M54.55,32.83a2.86,2.86,0,0,1,0-2s.16-.48.9-.47,2.46.21,2.66,1.36-2.38,1.52-2.61,1.54a.81.81,0,0,1-.94-.43Z"/><path class="cls-1" d="M50.7,38.43A5.42,5.42,0,0,1,52.32,37s.7-.37-.07-.77a2.33,2.33,0,0,0-2.14.14,1.55,1.55,0,0,0-.18,2.2s.4.45.77-.12Z"/><path class="cls-1" d="M51.07,38.7a3.38,3.38,0,0,1,1.63-1.36,1,1,0,0,1,1,.29c.49.5,1.47,1.79.68,2.69s-2.86-.56-3-.69a.69.69,0,0,1-.28-.93Z"/><path class="cls-1" d="M45.57,20.33c-1,0-1.58,2-1.6,2.2a.86.86,0,0,0,.64,1,2.78,2.78,0,0,0,.93.15h.06a2.68,2.68,0,0,0,.92-.15.86.86,0,0,0,.65-1c0-.19-.56-2.18-1.6-2.2Z"/><path class="cls-1" d="M45.54,25.88a1.45,1.45,0,0,1-1.63-1.48s-.06-.57.64-.39a7.5,7.5,0,0,0,1,.11,7.5,7.5,0,0,0,1-.11c.7-.18.64.39.64.39a1.46,1.46,0,0,1-1.63,1.48"/><path class="cls-1" d="M45.17,26.92l.15-.06h0a1,1,0,0,1,.18,0,1.05,1.05,0,0,1,.19,0c.15,0,.27.06.3.13a1.71,1.71,0,0,1,.09.56v0h0v.08c0,.09,0,.19,0,.25.09,1.42.28,2.22-.54,2.23s-.67-.66-.57-1.84C45,28.19,45,27.06,45.17,26.92Z"/><polygon class="cls-1" points="123.59 3.21 114.59 3.21 114.59 6.17 117.14 6.17 117.14 18.35 117.08 18.35 109.23 3.21 100.57 3.21 100.57 6.17 103.13 6.17 103.13 20.63 100.57 20.63 100.57 23.59 109.57 23.59 109.57 20.63 107.02 20.63 107.02 7.86 107.08 7.86 115.37 23.59 121.04 23.59 121.04 6.17 123.59 6.17 123.59 3.21"/><path class="cls-1" d="M130.54,24c4.58,0,7.79-2.86,7.79-7.72s-3.21-7.73-7.79-7.73-7.79,2.87-7.79,7.73S126,24,130.54,24Zm0-12.49c2.65,0,3.49,2.46,3.49,4.77s-.84,4.76-3.49,4.76-3.49-2.46-3.49-4.76S127.89,11.53,130.54,11.53Z"/><path class="cls-1" d="M140.64,19.85A4.26,4.26,0,0,0,145.16,24c3.48,0,4.7-1.77,4.57-5.11h-2.49c0,.66-.06,2.15-1.25,2.15s-1.21-1.15-1.21-2.21v-7h3.89V9h-3.89V4.71l-4.14,1.46V9H138.3v2.8h2.34Z"/><path class="cls-1" d="M152.16,19.85A4.26,4.26,0,0,0,156.68,24c3.49,0,4.7-1.77,4.58-5.11h-2.49c0,.66-.07,2.15-1.25,2.15s-1.21-1.15-1.21-2.21v-7h3.89V9h-3.89V4.71l-4.15,1.46V9h-2.33v2.8h2.33Z"/><polygon class="cls-1" points="170.63 20.78 168.61 20.78 168.61 9.01 162.44 9.01 162.44 11.81 164.47 11.81 164.47 20.78 162.44 20.78 162.44 23.59 170.63 23.59 170.63 20.78"/><rect class="cls-1" x="164.31" y="2.78" width="4.3" height="4.14"/><path class="cls-1" d="M180.07,20.78h-1.86V15.46c0-1.87.9-3.93,3.14-3.93a2.66,2.66,0,0,1,2.56,2.93v6.32H182v2.81h8V20.78h-2V14.3c0-3.67-1.34-5.73-5.2-5.73a5.46,5.46,0,0,0-4.95,2.9h-.07V9H172v2.8h2v9h-2v2.81h8Z"/><path class="cls-1" d="M202.1,11.25H202a5.33,5.33,0,0,0-4.77-2.62c-4.7,0-6.66,3.37-6.66,7.67,0,3.7,2.3,7.07,6.23,7.07a5.49,5.49,0,0,0,4.89-2.12V22.9a3.44,3.44,0,0,1-3.15,3.62c-1.34,0-2.59-.25-2.71-2h-4.51c.21,3.46,2.48,4.83,6.78,4.83,5.86,0,7.73-3.37,7.73-7.07V11.81h2V9h-5.8Zm-3.68,9.16c-2.33,0-3.51-2-3.51-4.27s1-4.55,3.58-4.55S202,13.74,202,16,201,20.41,198.42,20.41Z"/><path class="cls-1" d="M216.06,20.78h-1.87V15.11c0-1.18,1-3.58,3.4-3.58,1,0,2.3.5,2.3,3v6.23H218v2.81h8V20.78h-2V13.9c0-3.55-1.77-5.33-5.2-5.33a4.78,4.78,0,0,0-4.58,2.56h-.06V2.78H208v2.8h2v15.2h-2v2.81h8Z"/><path class="cls-1" d="M235.34,14.43c-3.64,0-8.44.12-8.44,4.92,0,3.11,2.37,4.67,5.08,4.67a5,5,0,0,0,4.83-2.55h.06v2.12h5.7V20.78H240.7V15c0-4.43-1.53-6.39-6.23-6.39-3.43,0-6.85.69-7.1,4.86h3.89c.13-1.68,1.12-2.36,2.75-2.36s2.8.52,2.8,2.23v1.13ZM233,21.22c-1.28,0-2.22-.62-2.22-2,0-2,1.9-2.31,4-2.31h2C236.87,19.41,235.47,21.22,233,21.22Z"/><path class="cls-1" d="M252,20.78h-1.87V15.46c0-1.87.9-3.93,3.15-3.93a2.66,2.66,0,0,1,2.55,2.93v6.32H254v2.81h7.88V20.78H260V15.3c0-2,1-3.77,3.2-3.77,1.87,0,2.5,1.34,2.5,2.93v6.32h-1.87v2.81h8V20.78h-2V13.3c-.1-3.39-2.27-4.73-5.48-4.73a5,5,0,0,0-4.71,2.71c-1.09-2-2.61-2.71-4.86-2.71a5.49,5.49,0,0,0-4.95,2.9h-.06V9H244v2.8h2v9h-2v2.81h8Z"/><path class="cls-1" d="M281.79,19.54c0,1.37-1.27,1.68-2.18,1.68-1.68,0-3.11-.94-3.11-2.77h-3.27v5.14h3.11V22h.06a4.9,4.9,0,0,0,4.33,2c3.15,0,5.21-2.09,5.21-4.67,0-6.41-8.63-3.46-8.63-6.41,0-1.38,1.4-1.56,2.24-1.56,1.53,0,2.68.74,2.68,2.45h3.27V9h-3.11v1.52h-.07a4.18,4.18,0,0,0-3.92-2c-2.65,0-5.24,1.44-5.24,4.49C273.16,19.54,281.79,16.48,281.79,19.54Z"/><path class="cls-1" d="M295.07,20.78H293.2V15.11c0-1.18,1-3.58,3.39-3.58,1,0,2.31.5,2.31,3v6.23H297v2.81h8V20.78h-2V13.9c0-3.55-1.77-5.33-5.21-5.33a4.75,4.75,0,0,0-4.57,2.56h-.06V2.78H287v2.8h2v15.2h-2v2.81h8Z"/><polygon class="cls-1" points="314.6 20.78 312.57 20.78 312.57 9.01 306.41 9.01 306.41 11.81 308.43 11.81 308.43 20.78 306.41 20.78 306.41 23.59 314.6 23.59 314.6 20.78"/><rect class="cls-1" x="308.28" y="2.78" width="4.3" height="4.14"/><path class="cls-1" d="M322,11.84h-.06V9H316v2.8h2v9h-2v2.81h8.66V20.78h-2.49V16.55c.16-2.53,1.44-4.55,4.18-4.55a7.67,7.67,0,0,1,1.86.15V8.76a8,8,0,0,0-1.77-.19C324.29,8.57,322.82,10,322,11.84Z"/><path class="cls-1" d="M336.22,21.22a3.4,3.4,0,0,1-3.65-3.74h10.59a21,21,0,0,0-.18-3.3,6.67,6.67,0,0,0-7-5.61c-4.61,0-7.72,3-7.72,7.54C328.28,21,331,24,336.1,24c3.33,0,6.19-1.43,6.88-4.95h-3.89A2.66,2.66,0,0,1,336.22,21.22Zm-.4-9.84c2.15,0,3.2,1.37,3.2,3.45h-6.45A3.15,3.15,0,0,1,335.82,11.38Z"/><path class="cls-1" d="M111.62,50.2c-4.33,0-6.23-3.23-6.23-7.16s1.34-8.16,5.92-8.16a4.81,4.81,0,0,1,5.14,5h3.9V32.35h-3.9v2.37l-.06-.06c-1.37-2.06-3.4-2.74-5.83-2.74-6.51,0-9.72,4.55-9.72,10.78,0,5.92,3.46,10.47,10.63,10.47,4,0,8.84-1.78,8.94-7.48h-4.14A4.55,4.55,0,0,1,111.62,50.2Z"/><path class="cls-1" d="M129.41,37.71c-4.58,0-7.79,2.87-7.79,7.73s3.21,7.73,7.79,7.73,7.79-2.87,7.79-7.73S134,37.71,129.41,37.71Zm0,12.49c-2.64,0-3.49-2.45-3.49-4.76s.85-4.77,3.49-4.77,3.49,2.47,3.49,4.77S132.06,50.2,129.41,50.2Z"/><path class="cls-1" d="M153.21,38.15h-6V41h1.87v5.33c0,1.87-.9,3.92-3.14,3.92a2.65,2.65,0,0,1-2.56-2.92V38.15H137.2V41h2v6.48c0,3.68,1.34,5.74,5.2,5.74a5.47,5.47,0,0,0,4.95-2.9h.07v2.46h5.79V49.92h-2Z"/><path class="cls-1" d="M172.69,43.44c0-3.67-1.34-5.73-5.21-5.73a5.49,5.49,0,0,0-4.95,2.9h-.06V38.15h-5.8V41h2v9h-2v2.81h8V49.92h-1.87V44.6c0-1.87.91-3.93,3.15-3.93a2.66,2.66,0,0,1,2.55,2.93v6.32h-1.87v2.81h8V49.92h-2Z"/><path class="cls-1" d="M182.56,48.06c0,.65-.06,2.14-1.24,2.14S180.1,49.05,180.1,48V41H184v-2.8H180.1v-4.3L176,35.32v2.83h-2.34V41H176v8a4.26,4.26,0,0,0,4.52,4.18c3.48,0,4.7-1.78,4.57-5.11Z"/><path class="cls-1" d="M195.77,41H198l-3.33,7.45L191.41,41h2.18v-2.8h-8.16V41h1.4l5.64,11.87c-.47,1.47-1.22,2.68-2.4,2.68a12.35,12.35,0,0,1-2.18-.22v3a14.31,14.31,0,0,0,2.37.22c2.71,0,3.83-.93,4.92-3.33L202.13,41h1.4v-2.8h-7.76Z"/><path class="cls-1" d="M221,50.2c-4.33,0-6.23-3.23-6.23-7.16s1.34-8.16,5.92-8.16a4.81,4.81,0,0,1,5.14,5h3.89V32.35h-3.89v2.37l-.06-.06c-1.37-2.06-3.39-2.74-5.83-2.74-6.51,0-9.72,4.55-9.72,10.78,0,5.92,3.46,10.47,10.63,10.47,4,0,8.84-1.78,8.93-7.48h-4.14A4.54,4.54,0,0,1,221,50.2Z"/><path class="cls-1" d="M238.74,37.71c-4.58,0-7.79,2.87-7.79,7.73s3.21,7.73,7.79,7.73,7.79-2.87,7.79-7.73S243.32,37.71,238.74,37.71Zm0,12.49c-2.64,0-3.49-2.45-3.49-4.76s.85-4.77,3.49-4.77,3.49,2.47,3.49,4.77S241.39,50.2,238.74,50.2Z"/><path class="cls-1" d="M262.54,38.15h-6V41h1.88v5.33c0,1.87-.91,3.92-3.15,3.92a2.65,2.65,0,0,1-2.55-2.92V38.15h-6.17V41h2v6.48c0,3.68,1.35,5.74,5.21,5.74a5.49,5.49,0,0,0,4.95-2.9h.06v2.46h5.8V49.92h-2Z"/><path class="cls-1" d="M282,43.44c0-3.67-1.34-5.73-5.2-5.73a5.49,5.49,0,0,0-4.95,2.9h-.06V38.15H266V41h2v9h-2v2.81h8V49.92h-1.87V44.6c0-1.87.9-3.93,3.14-3.93a2.66,2.66,0,0,1,2.56,2.93v6.32H276v2.81h8V49.92h-2Z"/><path class="cls-1" d="M291.76,50.2c-2.71,0-3.33-2.45-3.33-4.82s.65-4.86,3.24-4.86c2.15,0,2.9,1.21,3,3.27h3.27V38.15h-3.11v1.68h-.06a4.53,4.53,0,0,0-4-2.12c-4.77,0-6.67,3.49-6.67,8,0,3.21,1.84,7.42,7.6,7.42,3.37,0,6.17-1.81,6.48-5.52h-3.73A2.62,2.62,0,0,1,291.76,50.2Z"/><polygon class="cls-1" points="305.35 38.15 299.18 38.15 299.18 40.95 301.21 40.95 301.21 49.92 299.18 49.92 299.18 52.73 307.37 52.73 307.37 49.92 305.35 49.92 305.35 38.15"/><rect class="cls-1" x="301.05" y="31.92" width="4.3" height="4.14"/><polygon class="cls-1" points="314.63 31.92 308.46 31.92 308.46 34.72 310.49 34.72 310.49 49.92 308.46 49.92 308.46 52.73 316.66 52.73 316.66 49.92 314.63 49.92 314.63 31.92"/></svg>