<?xml version="1.0" encoding="utf-8"?>
<!-- Generator: Adobe Illustrator 18.0.0, SVG Export Plug-In . SVG Version: 6.00 Build 0)  -->
<!DOCTYPE svg PUBLIC "-//W3C//DTD SVG 1.1//EN" "http://www.w3.org/Graphics/SVG/1.1/DTD/svg11.dtd">
<svg version="1.1" id="Layer_1" xmlns="http://www.w3.org/2000/svg" xmlns:xlink="http://www.w3.org/1999/xlink" x="0px" y="0px"
	 viewBox="0 0 750 750" enable-background="new 0 0 750 750" xml:space="preserve">
<g>
	<g>
		<path fill="#C11B00" d="M-136.9,766.2c-297.5,0-595,0-892.5,0.2c-8.4,0-11.5-0.7-11.5-9.5c0.3-532.1,0.3-1064.3,0.1-1596.4
			c0-7.6,1.5-9.4,10.4-9.4c595.4,0.2,1190.8,0.2,1786.2,0c9.6,0,10.8,2.5,10.8,10.1c-0.2,531.8-0.2,1063.6,0,1595.4
			c0,7.9-1.8,10-11,10C458.1,766.1,160.6,766.2-136.9,766.2z"/>
		<path fill="#CC4338" d="M524,132.9c-5.3,4.1-11.7,2.2-17.8,2c-25.7-1-51.2,1.5-76.1,6.8c-18.9,4-26.4,19.1-31,34.3
			c-7.8,25.6-26.9,40.6-56.9,43.2c-18.5,1.6-19.5,2.8-18.2,18.9c0.9,10.7,0.9,21.5,2.1,32.2c0.8,7.9,3.9,14.4,14.7,15.7
			c11.6,1.3,18.3-3.3,22.7-12.1c2.6-5.1,1-8.1-5.3-9.3c-7.7-1.4-18.1-1-19.4-9.7c-1.4-9.4,9.1-12.7,16.6-16.3
			c14.8-7.2,29.4-14.7,46.2-17.9c7.8-1.5,14.3-1.6,18.2,6c2.4,4.6,7,5.5,12.2,4.7c14-2,27.9-2.2,41.9,0c4.6,0.7,9.5,0.2,10.9-4.5
			c1.5-5.2-3.7-6.4-7.7-7.9c-12.6-4.7-25.9-4.3-39.2-4.1c-10.9,0.2-19.6-1.7-23.5-12.5c-4-11-1.6-19.7,8.8-26.5
			c24.4-16,52.4-23.2,82.1-25c25.6-1.5,51.3-1.6,76.7,3.7c30.6,6.4,56.7,33.4,58.9,61.3c0.9,11.6-4.3,20.6-15.3,26
			c-8.7,4.3-15.6,9.9-22,16.4c-5.3,5.4-11.6,9.8-18.5,13.7c-7.5,4.2-14.5,8.7-20,15.2c-8.1,9.7-14.8,9.1-21.6-2
			c-7.7-12.6-15-25.4-22.6-38c-1.7-2.8-3.7-5.7-6.2-7.8c-6.4-5.4-11.4-4.1-14,3.2c-9,25.4-26.2,32.8-53.3,22
			c-12.3-4.9-26-7.8-36.2-16.5c-4-3.4-8.1-2.1-11.6,1c-4,3.5-4.9,7.4-1.4,11.5c4.1,4.7,9.9,7.5,16.1,9c12.4,3,22.8,8.4,31.7,16.7
			c6.9,6.5,14.3,8.8,24.5,3.4c12.4-6.6,26.8-9.7,41.1-11.7c14-1.9,21.7,5.1,19.4,17.6c-3.7,20-16.4,34.1-37.5,41.6
			c-28,9.9-56.8,11.8-86.3,5.9c-3.5-0.7-6.8-2.3-10.5-1.4c8.2,14.3,37.8,26.5,54,23.4c39.3-7.5,74-22.4,103.6-47.1
			c8.7-7.3,15.5-15.3,21.2-24.5c2.1-3.5,4.3-7.8,9.8-6.1c14.5,4.3,17.8-5.6,22.9-13.6c2.4-3.7,1.5-11.3,7.9-10.2
			c5.4,0.9,3.7,8,4.2,12.4c2.4,21.7-0.2,42.9-8.4,63.6c-4.4,11-12.4,18.4-24.8,21.6c-16.9,4.4-34,8.5-51.1,12.3
			c-8.8,1.9-17.5,1-25.7-3c-3.5-1.7-7.2-3.6-11.1-4.1c-6.8-0.9-15.6-4.1-19.5,3.3c-3.5,6.7,2.3,12.4,8.1,16.4
			c10,7,21.3,11.8,33.9,13.2c27.7,3.2,54.4,0.6,79.1-12.4c10.9-5.7,17.2-13.5,18.6-24.8c0.8-6.4,1.8-12.8,3.4-19.1
			c2.6-10.6,8.2-17.7,22.3-18.8c13.8-1.1,22.7-11.3,32.3-19.2c2.9-2.4,1.1-6.1,0.8-9.3c-1.3-13.9,6.9-21,22.4-19.1
			c18.6,2.3,28.8,13.8,34.4,28.3c21,53.6,11.9,113.4-42,154.8c-61.6,47.2-133.6,69.7-213.7,74c-16,0.9-31.6-1.6-45.8-7.5
			c-22.9-9.6-45.6-19.4-67.5-30.8c-17.5-9.1-23.9-26.4-40.2-38.4c9.9-2.2,16.8,1.3,23.9,2.3c54.6,8.2,109,17.6,164.8,16.1
			c2-0.1,4,0.2,6-0.1c3.3-0.4,8.3,1,8.7-3.6c0.3-4-4.4-4.7-7.7-5.6c-13.5-3.9-27.6-5.4-41.6-5.4c-13.6,0-22.9-5.1-30.7-14.1
			c-1-1.1-2.1-2.2-2.9-3.4c-13.8-21.3-33.9-36.7-57.3-49.2c-7.9-4.2-13.6-9.8-13.5-18.9c0.1-6.3-4.6-7.8-10.8-6.3
			c-3.1,0.8-6.1,1.8-9,2.9c-12.1,4.5-22.6,3.4-31.3-6.2c-3.5-3.9-7.5-7.5-11.5-11c-2.3-2.1-5.2-4-8.2-1c-2.2,2.2-3.5,5.2-1.1,7.9
			c2.5,2.8,5.4,5.3,8.5,7.5c21.2,15.3,42.7,30.4,63.7,46c5.1,3.8,14.8,7.8,9.7,15c-5.5,7.8-12.3,17.9-24.8,16.4
			c-52.1-6.3-102.5-16.9-137.3-56.5c-22.9-26-33.3-56.3-30-89.5c1.2-12.2,2.5-24.2-0.3-36.3c-1.1-5.1-3.1-12,3.3-14.7
			c7.6-3.2,11,3.9,14.6,8.3c15.1,18.5,28.6,38.3,50.1,51.8c8.9,5.6,18,10.8,29.4,11.5c13,0.8,17.8-4.5,12-14.9
			c-9.9-17.6-19.9-35.3-34.4-50.4c-17-17.7-19-35.7-6.2-56.4c11.4-18.5,22-37.6,23.1-59.5c0.5-9.7,8.5-10.7,17.3-10.7
			c56.6,0.1,113.2,0,169.8,0c17.1,0,34.1,0,51.2,0C523.8,130.4,523.9,131.7,524,132.9z"/>
		<path fill="#CC4338" d="M200.2,647.7c15.6-6.4,29-15.5,45-20.5c11.5-3.6,23.1-5.5,35.3-5.7c18.7-0.4,32.5,7,42.2,20.6
			c3.6,5,8.7,7.2,14.2,9.4c19.4,8,33.6,30,28.7,48.4c-3.2,11.9,2.3,12.5,12.4,12.4c36.2-0.1,68.6,10.1,97,30.1
			c4.5,3.2,12.5,6.6,10.6,11.8c-2.1,5.8-10.6,2.9-16.2,2.9c-93.9,0.2-187.9,0.1-281.8,0.1c-24,0-24,0-30-20.2
			c-4.6,2.3-4.3,6.6-5.6,9.9c-1.7,4.1-3.3,8.6-8.7,9.4c-6.2,1-13.7,3.2-18.3-1.4c-3.9-3.9,1.5-8.6,3.2-12.8
			c9.7-23.3,21.9-45.4,37.9-65.8c3.5-4.4,4.1-9.2,3.3-14.4c-4.5-28.6,0-56.5,7.7-84.2c2-7.2,1.3-14.1,0.3-21.3
			c-3.2-24,3.8-44.8,26.2-60c10.4-7.1,16.4-6.3,24.2,3.2c3.8,4.6,6.7,9.8,9.8,14.8c1.2,1.9,2.5,5.4,0.8,5.9
			c-13.1,3.7-3.6,9.5-1.7,14.2c2.2,5.6-0.5,9.8-3.6,14c-6.8,9.3-13.8,18.5-20.3,28c-2.4,3.6-5.5,8.7-0.7,11.7
			c4.8,3.1,7.4-2.5,10.5-4.8c6.2-4.8,10.9-11.1,19.9-13.8C223.7,593.7,216.1,622.1,200.2,647.7z"/>
		<path fill="#CC4338" d="M609.6,575.4c51.3,1.2,96.2,12,138,33c5.7,2.8,10.5,6.3,8.2,12.7c-2.4,6.8-8.8,3.3-13.4,2.8
			c-9.2-1.1-18.3-2.6-27.5-1.8c-13,1-25.7,2.7-33.4,14c-1,1.5-2.6,3.1-4.4,3.6c-25,7.3-36.4,27.3-47.3,45.2
			c-21.5,35.2-54.4,45.1-95.7,42.3c-29.7-2-58.8-6.9-87.6-13.7c-25.9-6.1-34.4-22.8-35.9-44.1c-1.4-18.6,5.5-35,24.1-43.8
			c22.7-10.8,45.1-21.7,66.1-35c7.9-5,17.5-7.4,27.2-8.2C556.4,579.6,584.7,577.5,609.6,575.4z"/>
		<path fill="#CC4338" d="M84.6,286.7c0.2-63.4,45.8-122.9,104.1-141.2c3.4-1.1,6.8-2.2,10.3-2.9c41.3-8.1,38.2-2.1,38.3,31.9
			c0,15.3-9.5,28.8-21.2,40.1c-8.5,8.1-17.1,16.2-26.7,23.3c-12.5,9.2-18.8,20.6-17.8,34.7c3.1,43.6,11.2,86.2,37.8,124.1
			c5.6,8,9.6,14.9-5.4,17.8c-2.4,0.5-5.2,2.8-6.1,4.9c-4.7,10.9-13.5,9.7-22.7,6.2c-35.5-13.6-58.9-38.2-73.5-69.2
			C90.6,332.5,85.9,306.9,84.6,286.7z"/>
		<path fill="#CC4338" d="M166.3,560.6c-8.8-4.6-14-12-22.1-16.7c-6-3.5-11.1-4.5-14.5,2.6c-5.8,12-16.7,15.5-30.3,15
			c-20.4-0.7-39.6-5.1-57.8-13.3c-6.7-3-10.4-7.3-10.4-14.3c0.1-55.3,0.1-110.5,0-165.8c0-9,3.8-10.5,12.6-6.9
			c23.1,9.6,39,26.2,53.7,43.8c24.9,29.9,38.8,63.5,37.7,101.2c-0.3,10.4,3.4,18.6,11.7,26C155.8,540.2,164.4,548.6,166.3,560.6z"/>
		<path fill="#CC4338" d="M512.7,563.6c-2.3,5.1-7.5,4.9-11.4,5.5c-13,2.1-26.1,4.8-39.2,4.9c-30.4,0.4-59.5,6.2-89.1,11.5
			c-32.7,5.9-63.4,1.9-86.3-23c-8.5-9.2-14.7-19.7-19.1-30.9c-8.2-21-15.9-42.1-24.1-63.1c-3-7.8-6.9-15.3-10.4-22.9
			c-3.8-8.1-1.7-10.9,8.1-9.3c21.1,3.4,40.7,10.7,59.2,20.2c22.7,11.7,38.8,28,48.6,50.1c7.5,17,27.3,21.7,43.7,28.2
			c33.5,13.2,69.4,19.7,105.6,24.9C503.2,560.4,508.5,560.4,512.7,563.6z"/>
		<path fill="#CC4237" d="M589.5,131.5c2.6-3.2,6.6-2.2,10-2.2c27.3-0.1,54.6,0.1,81.8-0.1c9.3-0.1,16,2.7,21.5,9.5
			c11.4,14.1,20.6,28.9,25.6,45.9c8.6,28.9-18.8,52-47.6,58.6c-6,1.4-7.8-2.9-9-6.7c-3.4-11.4-3.3-22.5,3.9-33.1
			c8.5-12.4,7.7-14.3-6.9-21.2c-7.7-3.7-13.5-8.4-16.1-16.3c-6.5-19.5-19.2-26.8-42.9-25.9C599.5,140.2,596.8,139.1,589.5,131.5z"/>
	</g>
</g>
</svg>
