<?xml version="1.0" encoding="utf-8"?>
<!-- Generator: Adobe Illustrator 18.0.0, SVG Export Plug-In . SVG Version: 6.00 Build 0)  -->
<!DOCTYPE svg PUBLIC "-//W3C//DTD SVG 1.1//EN" "http://www.w3.org/Graphics/SVG/1.1/DTD/svg11.dtd">
<svg version="1.1" id="Layer_1" xmlns="http://www.w3.org/2000/svg" xmlns:xlink="http://www.w3.org/1999/xlink" x="0px" y="0px"
	 viewBox="0 0 750 750" enable-background="new 0 0 750 750" xml:space="preserve">
<g>
	<g>
		<path fill="#FEC000" d="M156.1,782c-239.7,0-479.4,0-719.1,0.2c-6.8,0-9.2-0.8-9.2-8.9c0.2-496.2,0.2-992.5,0-1488.7
			c0-7.2,1.4-8.7,8.4-8.7c479.8,0.2,959.5,0.2,1439.3,0c7.8,0,8.7,2.4,8.6,9.5c-0.2,495.9-0.2,991.8,0,1487.7c0,7.5-1.6,9.2-8.9,9.2
			C635.5,782,395.8,782,156.1,782z"/>
		<path fill="#FED360" d="M33.7,481.5c1-4.4-2.9-12.1,2.4-14.7c4.2-2,8.4,4.8,12.6,7.7c23.4,15.8,48.5,27.2,75.6,34.6
			c29.5,8,59.4,9.6,89.3,7.4c30.3-2.2,59.3-10.3,87.2-23.9c33.9-16.5,62.6-39.6,87.1-68.5c20.6-24.3,36.7-51.7,46.3-82.6
			c12.9-41.6,37.3-71.9,78.1-86.2c18.7-6.6,37.5-3.2,56.5-0.8c15.9,1.9,31.9,5.3,48.1,2.4c1.6-0.3,3.3-0.7,4.8-0.4
			c2.8,0.7,6.1,1.8,6.6,5.1c0.5,3.4-3,4-5.2,4.9c-13.4,5.1-25.9,12-38,19.8c-41.8,26.6-69.5,64.4-85.3,112.3
			c-9.7,29.6-27.3,54.2-49.6,75.2c-23.7,22.3-51,37.2-82,45c-10.4,2.6-20.9,4.2-31.6,4.5c-27.3,0.8-54.7,0.4-82,2.2
			c-25.8,1.7-50.8,8.7-75.2,17.7c-27.1,10-54.5,19.1-83.6,19.6c-25.5,0.5-49.4-17.8-58.2-48.4C34.9,503.9,33.4,493.3,33.7,481.5z"/>
		<path fill="#FED360" d="M135.3,17.6c6.9,26.9,17.7,51.4,34.3,72.7c27.5,35.3,63.2,59.2,102.2,78.9c40.8,20.6,82.7,39.8,118,70.2
			c25.9,22.3,37.5,51.2,29.9,86.4c-5.6,26.1-17.6,49.2-32.9,71.9c-2-14.7,2.1-28,1.2-41.7c-2.7-37.7-19.4-65.8-50-85.1
			c-31-19.5-65.5-31.4-97.8-47.9c-34.6-17.7-66.1-39.7-88.5-72.8c-26.2-38.8-38.4-80.6-20.7-127.3C131.7,21.1,132.1,19,135.3,17.6z"
			/>
		<path fill="#FED360" d="M507.6,424.4c2.2-8.2,7.2-14.7,12.2-20.9c24.2-29.5,53.6-51.5,90.2-61c17.4-4.5,35.4-4.4,53.7-3
			c36.3,2.7,71.2-4.7,103.9-22.1c26-13.9,48.9-32.2,69.9-53.1c1.8-1.8,3.1-4.3,6.8-4.6c2.4,11.5-0.5,22.2-4.2,32.8
			c-8.7,24.9-26.1,42.7-45.8,58.3c-18.5,14.7-38.3,27.8-60.4,35.4c-39.6,13.6-79.7,22.1-122.4,15.4c-34.3-5.4-68.2,0.3-98.2,20.9
			C511.8,423.6,510.5,425.5,507.6,424.4z"/>
		<path fill="#FED360" d="M359.3,426.4c-1.1-10-1.8-19.7-4.8-28.8c-5.8-17.4-18.3-28.6-33.4-37.3c-18.6-10.7-39.5-14.3-59.7-20
			c-26.4-7.4-52.4-16.1-77.3-28.2c-14.4-7-27.6-15.7-40.3-25.4c-26.9-20.5-42.1-48-46.3-82.3c-1.5-12.5-2.3-24.7-0.1-37.3
			c10.3,20.2,23.1,38.1,38.9,53.4c21.6,20.8,47.3,34.5,73.9,47.1c37.6,17.8,77.7,29.2,114.4,49c19.6,10.5,38.9,22.4,44.7,47
			C374.6,385.9,370.3,406.9,359.3,426.4z"/>
		<path fill="#FED360" d="M796.3,395c-8.5,16.1-19.8,29.2-32.6,41c-32.5,29.8-69.5,50.9-112.3,59.9c-37,7.8-72.9,4.9-107.1-13.5
			c-12.6-6.8-26.4-10.6-41.1-9.8c-9.5,0.5-19.1,0.1-31.1,0.1c18.5-17.5,38.9-25,59.5-32.2c21.3-7.4,42.7-4.6,63,1.4
			c33.7,10,66.4,6.7,99.3-1.8c34.3-8.9,66.6-22.8,96.3-42.9C791.9,396.1,794.2,395.7,796.3,395z"/>
		<path fill="#FED360" d="M149.1,341.5c17.8,11.2,34.2,20.8,52.1,27.8c27.9,11,56.7,17.7,86.3,21.3c11.8,1.4,23.8,1.1,35.2,5.9
			c15.2,6.4,26,28.5,21.3,44.7c-1.2,4.2-3.2,4.7-6.2,2.3c-14.2-11-30.7-10.6-47.2-10.9c-62.3-1.4-106.9-33.9-140.3-86
			C149.7,345.8,149.8,344.7,149.1,341.5z"/>
		<path fill="#FED360" d="M317.6,538c-27.9,22.2-27.8,55-35.4,84c-8.5,32.6-34,55.7-67.7,52.1c-12.3-1.3-24.3-2.8-36.2-6.2
			c-2.6-0.7-5.9-0.5-7-4.1c1.4-2.7,3.9-2.3,6-2.2c25.4,1.5,41.2-13.4,53.9-33.4c11-17.4,18.1-36.9,27.3-55.3
			C271.8,546.5,290.1,535.1,317.6,538z"/>
		<path fill="#FED360" d="M268.1,538.6c-30.7,15.7-50.1,42.2-72,65.6c-11.7,12.5-23.3,24.5-40.2,30.3c-15.1,5.1-29.3,4.1-41.9-3.9
			c-17.6-11-33-25.2-46.2-45.3c8.6,3.2,14.9,5.7,21.4,7.9c33.9,11.2,63.3-0.1,91.2-19.3c20.1-13.9,40-28.5,64.4-33.7
			C251.7,538.6,259,535.6,268.1,538.6z"/>
	</g>
</g>
</svg>
